<svg xmlns="http://www.w3.org/2000/svg" width="692" height="692" fill="none">
  <path stroke="#fff" stroke-linecap="round" stroke-width="54.18" d="M465.014 384.895c10.125-3.614 20.25-7.228 30.453-11.722 10.203-4.495 20.484-9.871 30.159-17.759 9.676-7.887 18.747-18.287 26.142-28.628 7.395-10.342 13.114-20.625 18.747-35.127 5.633-14.501 11.18-33.219 14.704-46.132 3.524-12.913 5.026-20.019 7.251-27.616 2.224-7.597 5.17-15.686 9.099-23.803 3.929-8.117 8.839-16.263 12.046-23.138 3.206-6.876 4.708-12.48 4.535-16.784-.173-4.304-2.022-7.308-5.748-10.37-3.727-3.062-9.331-6.182-17.39-8.233-8.06-2.051-18.574-3.033-29.812-1.704-11.237 1.328-23.196 4.968-36.909 10.667-13.713 5.7-29.18 13.458-44.676 22.996-15.496 9.537-31.02 20.853-43.305 30.464-12.285 9.611-21.331 17.517-29.63 25.628-8.298 8.111-15.849 16.428-22.529 25.43-6.679 9.003-12.487 18.691-18.296 28.379M436.9 378.391c6.684 1.386 13.369 2.773 21.238 4.735 7.87 1.962 16.924 4.499 28.297 8.079 11.374 3.58 25.066 8.201 37.545 13.806 12.48 5.604 23.745 12.19 33.596 19.758 9.85 7.569 18.285 16.119 25.131 24.554 6.847 8.435 12.104 16.755 16.639 25.132 4.536 8.377 8.349 16.812 11.266 23.572 2.918 6.759 4.94 11.843 5.518 16.898.577 5.056-.289 10.082-1.965 14.299-1.675 4.218-4.159 7.627-7.019 9.649-2.86 2.022-6.095 2.657-10.313 2.079-4.218-.577-9.417-2.368-13.461-3.524-4.044-1.155-6.933-1.675-10.631-1.242-3.697.433-8.204 1.82-12.508 3.698-4.304 1.877-8.406 4.246-13.634 5.604-5.229 1.357-11.584 1.704-18.604.809-7.019-.896-14.703-3.034-22.705-6.5-8.002-3.466-16.321-8.262-23.514-13.591-7.193-5.33-13.259-11.194-20.213-17.796-6.953-6.601-14.794-13.94-23.047-22.107s-16.918-17.162-25.253-25.992c-8.334-8.83-16.339-17.494-24.344-26.159m4.47-157.392c2.705-12.326 5.341-24.338 7.217-37.826 1.876-13.488 2.916-28.104 2.973-38.677.058-10.573-.866-17.101-2.802-26.98-1.935-9.88-4.881-23.11-8.348-34.723-3.466-11.612-7.453-21.607-12.624-31.746-5.17-10.1397-11.525-20.4233-19.234-29.6798-7.709-9.2565-16.771-17.4854-26.041-24.1737-9.27-6.6884-18.747-11.8357-25.892-15.0187-7.145-3.183-11.957-4.4015-15.797-4.7692-3.84-.3677-6.709.1155-9.654 2.8287-2.946 2.7132-5.969 7.6562-7.726 13.8862-1.757 6.23-2.247 13.7467-1.614 21.6721.634 7.9255 2.39 16.2592 3.636 25.6144 1.246 9.355 1.982 19.732 2.043 29.25.061 9.519-.552 18.179-1.695 25.962-1.144 7.782-2.819 14.686-5.545 23.232-2.727 8.546-6.504 18.733-10.472 29.819-3.968 11.087-8.126 23.072-10.58 31.36-2.453 8.288-3.203 12.879-3.763 17.623-.559 4.744-.929 9.64-1.027 15.911-.097 6.271.078 13.915.253 21.559m34.963 12.572c-4.511-8.887-8.995-17.72-14.37-27.101-5.375-9.382-11.614-19.261-19.739-30.017-8.124-10.756-18.133-22.388-27.549-32.454-9.417-10.065-18.241-18.562-26.289-24.955-8.048-6.394-15.319-10.683-23.592-14.768-8.273-4.086-17.546-7.967-26.656-11.071-9.11-3.105-18.057-5.434-26.718-6.68-8.66-1.246-17.0349-1.409-23.0811-.837-6.0462.572-9.7637 1.879-13.2975 3.687-3.5337 1.807-6.8836 4.116-9.3143 6.465-2.4308 2.349-3.9423 4.738-4.2895 7.2-.3473 2.461.4697 4.994 3.2885 9.12 2.8189 4.126 7.6394 9.845 10.9893 15.075 3.3499 5.229 5.2291 9.967 6.5772 15.605 1.3482 5.638 2.1652 12.174 2.3286 19.895.1634 7.721-.3268 16.627-.5719 25.41-.2451 8.784-.2451 17.444.286 26.391.531 8.947 1.5932 18.179 2.9822 26.268 1.389 8.089 3.1047 15.034 5.4946 21.57 2.3899 6.536 5.4539 12.664 11.0099 19.425 5.556 6.761 13.603 14.156 23.881 20.97 10.278 6.815 22.784 13.049 33.631 17.496 10.847 4.446 20.033 7.103 25.478 8.654 5.445 1.55 7.149 1.994 13.226 2.875 6.077.882 16.526 2.202 26.04 3.124 9.513.923 18.09 1.448 26.667 1.973h.002m2.406-26.402c-9.227 1.833-18.454 3.665-27.227 6.675-8.774 3.011-17.093 7.199-25.355 11.864-8.261 4.666-16.465 9.808-25.969 16.986-9.504 7.178-20.307 16.393-27.414 23.485-7.106 7.092-10.515 12.06-14.183 18.704-3.669 6.644-7.598 14.964-11.006 24.034-3.409 9.071-6.298 18.892-8.002 28.858-1.704 9.966-2.224 20.077-1.358 29.638.867 9.562 3.12 18.575 5.373 25.999 2.253 7.424 4.507 13.259 7.236 18.17 2.73 4.91 5.937 8.897 9.129 11.511 3.192 2.614 6.369 3.856 9.07 4.16 2.701.303 4.925-.332 6.76-1.416 1.834-1.083 3.278-2.614 6.803-6.73 3.524-4.117 9.128-10.818 15.223-15.989 6.095-5.171 12.681-8.811 21.723-12.277 9.042-3.467 20.538-6.76 30.591-10.717 10.053-3.958 18.661-8.58 27.516-14.461 8.856-5.88 17.957-13.02 23.789-17.739 5.831-4.719 8.392-7.018 12.37-11.787 3.978-4.769 9.372-12.009 13.493-20.436s6.968-18.04 8.444-26.587c1.475-8.548 1.579-16.028 1.683-23.509m85.336-16.3c3.193 3.478 6.386 6.957 11.328 13.263 4.942 6.307 11.632 15.441 17.18 23.997 5.547 8.557 9.951 16.535 13.701 24.47 3.749 7.935 6.843 15.826 10.007 26.03 3.164 10.204 6.397 22.72 8.809 34.384 2.343 11.336 3.91 21.866 5.544 32.852l.282 1.891c1.645 11.047 3.357 22.55 4.279 33.26.948 11.014 1.059 21.189.167 28.184-.892 6.996-2.787 10.811-4.85 13.529-2.063 2.717-4.293 4.336-7.304 4.625-3.01.289-6.802-.752-12.879-3.585s-14.439-7.458-26.183-13.25-26.868-12.751-38.886-18.274l-.165-.076c-11.934-5.485-20.802-9.561-29.71-15.177-8.949-5.642-17.937-12.836-25.743-20.726-7.806-7.89-14.429-16.475-19.869-26.981-5.44-10.506-9.698-22.934-12.339-35.443-2.642-12.51-3.667-25.1-3.864-36.874-.197-11.774.434-22.729 1.81-31.739 1.377-9.01 3.499-16.074 5.621-23.137"/>
  <path fill="#E4D8FD" d="M360.258 306.256c1.228-6.008 2.683-10.621 4.32-15.593 1.637-4.972 3.457-10.301 7.421-17.133 3.965-6.832 10.075-15.166 16.755-23.767 6.68-8.601 13.931-17.469 22.079-25.856 8.148-8.387 17.194-16.292 29.48-25.903 12.285-9.611 27.808-20.927 43.304-30.465 15.496-9.537 30.963-17.296 44.676-22.995 13.714-5.699 25.673-9.339 36.91-10.668 11.237-1.329 21.751-.346 29.811 1.705 8.06 2.051 13.663 5.17 17.39 8.232 3.726 3.062 5.575 6.067 5.748 10.371.174 4.304-1.328 9.908-4.535 16.783-3.206 6.875-8.117 15.021-12.046 23.139-3.928 8.117-6.875 16.205-9.099 23.802-2.224 7.598-3.727 14.704-7.251 27.616-3.524 12.913-9.07 31.631-14.703 46.133-5.633 14.501-11.353 24.785-18.748 35.126-7.395 10.342-16.465 20.741-25.998 28.772-9.533 8.03-19.528 13.692-31.689 18.921-12.162 5.228-26.489 10.023-39.348 12.718-12.859 2.695-24.249 3.289-33.608 3.029-9.36-.26-16.689-1.374-23.46-2.881-6.772-1.506-12.986-3.404-17.893-6.277-4.907-2.872-8.505-6.718-11.633-12.05-3.128-5.332-5.785-12.149-7.559-19.387-1.775-7.238-2.666-14.897-2.611-22.429.056-7.531 1.058-14.934 2.287-20.943Z"/>
  <path stroke="#673DB6" stroke-linecap="round" stroke-width="10.3617" d="M465.016 384.893c10.125-3.614 20.25-7.228 30.453-11.723 10.203-4.495 20.484-9.871 30.16-17.758 9.675-7.888 18.746-18.287 26.141-28.629 7.395-10.341 13.115-20.625 18.748-35.126 5.633-14.502 11.179-33.22 14.703-46.133 3.524-12.912 5.026-20.018 7.251-27.616 2.224-7.597 5.17-15.685 9.099-23.802 3.929-8.118 8.839-16.264 12.046-23.139 3.206-6.875 4.709-12.479 4.535-16.783-.173-4.304-2.022-7.309-5.748-10.371-3.727-3.062-9.331-6.181-17.39-8.232-8.06-2.051-18.574-3.034-29.811-1.705-11.238 1.329-23.197 4.969-36.91 10.668-13.713 5.699-29.18 13.458-44.676 22.995-15.496 9.538-31.019 20.854-43.305 30.465-12.285 9.611-21.331 17.516-29.629 25.627-8.299 8.112-15.85 16.428-22.53 25.431-6.679 9.003-12.487 18.691-18.296 28.379"/>
  <path fill="#673DB6" d="M544.082 181.589c11.24-6.412 22.043-14.112 22.043-14.112s-12.779 3.672-24.263 10.219c-1.619.923-3.22 1.861-4.798 2.815-8.873 5.365-16.948 11.216-24.753 16.896-7.805 5.68-15.493 11.3-23.601 18.704-8.085 7.384-16.58 16.541-24.329 25.519-7.755 8.987-14.831 17.871-20.886 26.439-1.58 2.236-3.089 4.448-4.545 6.641-6.016 9.065-9.598 19.49-9.598 19.49s7.427-8.117 13.332-17.012c1.434-2.161 2.919-4.336 4.471-6.532 5.955-8.427 12.932-17.191 20.619-26.098 7.694-8.914 16.029-17.896 23.958-25.138 7.907-7.22 15.416-12.713 23.216-18.389 7.801-5.677 15.741-11.428 24.434-16.685 1.542-.932 3.11-1.85 4.7-2.757Z"/>
  <path fill="#E4D8FD" d="M405.022 378.729c7.164-1.276 14.443-1.507 22.301-.929 7.857.577 16.292 1.964 25.854 4.159 9.561 2.196 20.249 5.2 32.44 9.013 12.19 3.813 25.882 8.435 38.362 14.039 12.479 5.604 23.744 12.19 33.595 19.759 9.851 7.568 18.285 16.119 25.132 24.554 6.846 8.435 12.103 16.754 16.638 25.131 4.536 8.378 8.349 16.812 11.266 23.572 2.918 6.76 4.94 11.844 5.518 16.899.577 5.055-.289 10.081-1.965 14.299-1.675 4.217-4.159 7.626-7.019 9.648-2.86 2.022-6.095 2.658-10.313 2.08-4.217-.578-9.417-2.369-13.461-3.524-4.044-1.156-6.933-1.676-10.63-1.242-3.698.433-8.204 1.82-12.509 3.697-4.304 1.878-8.406 4.247-13.634 5.604-5.229 1.358-11.584 1.705-18.603.809-7.02-.895-14.704-3.033-22.706-6.5-8.001-3.466-16.321-8.261-23.595-13.264-7.275-5.003-13.504-10.213-18.786-14.98-5.281-4.768-9.615-9.092-14.682-14.359-5.067-5.267-10.868-11.476-17.527-18.503-6.659-7.026-14.176-14.87-20.835-21.978-6.659-7.109-12.46-13.481-19.078-20.59-6.618-7.108-14.053-14.952-18.261-21.12-4.207-6.169-5.188-10.663-4.82-14.299.368-3.636 2.083-6.414 4.984-8.946 2.9-2.533 6.986-4.821 12.553-7.126 5.567-2.305 12.616-4.626 19.781-5.903Z"/>
  <path stroke="#673DB6" stroke-linecap="round" stroke-width="10.3617" d="M436.9 378.391c6.685 1.386 13.369 2.773 21.239 4.735 7.869 1.962 16.923 4.499 28.297 8.079 11.373 3.58 25.066 8.201 37.545 13.806 12.479 5.604 23.745 12.19 33.595 19.758 9.851 7.569 18.286 16.119 25.132 24.554 6.846 8.435 12.104 16.755 16.639 25.132 4.535 8.377 8.348 16.812 11.266 23.572 2.917 6.759 4.939 11.843 5.517 16.898.578 5.056-.289 10.082-1.964 14.299-1.676 4.218-4.16 7.627-7.02 9.649-2.86 2.022-6.095 2.657-10.312 2.08-4.218-.578-9.418-2.369-13.462-3.525-4.044-1.155-6.933-1.675-10.63-1.242-3.698.434-8.204 1.82-12.508 3.698-4.304 1.877-8.406 4.246-13.635 5.604-5.228 1.357-11.583 1.704-18.603.809-7.02-.896-14.703-3.033-22.705-6.5-8.002-3.466-16.321-8.262-23.514-13.591-7.193-5.33-13.259-11.194-20.213-17.796-6.954-6.601-14.795-13.94-23.048-22.107-8.253-8.167-16.917-17.162-25.252-25.992-8.335-8.83-16.339-17.494-24.344-26.159"/>
  <path fill="#673DB6" d="M547.343 470.528c9.528 9.647 20.14 18.599 20.14 18.599s-7.224-11.893-16.951-21.747c-1.207-1.222-2.414-2.418-3.62-3.582-7.429-7.166-14.8-13.074-21.935-18.074-7.145-5.007-14.079-9.125-22.162-12.694-8.027-3.545-17.156-6.529-25.701-9.135-8.544-2.607-16.672-4.888-24.185-6.409-.299-.06-.596-.119-.892-.177-10.22-1.996-20.611-.631-20.611-.631s9.961 3.109 19.75 5.029c.287.056.575.114.864.172 7.335 1.484 15.267 3.709 23.767 6.302 8.499 2.593 17.395 5.502 25.198 8.948 7.747 3.421 14.447 7.392 21.4 12.265 6.961 4.879 14.149 10.64 21.395 17.629 1.178 1.137 2.359 2.306 3.543 3.505Z"/>
  <path fill="#E4D8FD" d="M280.435 340.654c-5.906-2.997-11.02-6.908-15.329-11.861-4.309-4.953-7.813-10.947-10.546-16.304-2.733-5.357-4.693-10.075-6.205-16.581-1.512-6.506-2.574-14.798-2.303-24.332.271-9.534 1.874-20.309 4.755-31.689 2.881-11.38 7.039-23.366 11.007-34.452 3.967-11.086 7.745-21.273 10.471-29.819s4.401-15.45 5.545-23.232c1.144-7.783 1.757-16.443 1.695-25.962-.061-9.519-.796-19.895-2.042-29.2501-1.246-9.3552-3.003-17.6889-3.636-25.6143-.633-7.9255-.143-15.4421 1.614-21.6722 1.756-6.23 4.779-11.173 7.725-13.8862 2.946-2.7132 5.814-3.1964 9.654-2.8287 3.84.3677 8.652 1.5862 15.797 4.7692 7.145 3.1831 16.623 8.3303 25.893 15.0187 9.27 6.6883 18.332 14.9172 26.04 24.1737 7.709 9.2565 14.064 19.5401 19.235 29.6799 5.171 10.139 9.157 20.134 12.623 31.746 3.467 11.613 6.413 24.843 8.349 34.722 1.935 9.88 2.86 16.408 2.802 26.981-.058 10.573-1.098 25.189-2.167 35.935-1.069 10.746-2.166 17.621-4.285 25.654-2.119 8.033-5.26 17.223-8.698 25.285-3.439 8.062-7.176 14.996-11.183 20.74-4.007 5.745-8.284 10.301-13.411 14.96-5.127 4.659-11.103 9.422-17.275 13.071-6.172 3.649-12.539 6.184-20.376 7.983-7.837 1.798-17.143 2.861-25.145 2.351-8.001-.509-14.699-2.59-20.604-5.586Z"/>
  <path stroke="#673DB6" stroke-linecap="round" stroke-width="10.3617" d="M393.388 276.764c2.705-12.326 5.341-24.338 7.217-37.826 1.876-13.488 2.916-28.104 2.974-38.677.058-10.573-.867-17.101-2.802-26.981-1.936-9.879-4.882-23.109-8.348-34.722-3.467-11.612-7.453-21.607-12.624-31.746-5.171-10.1398-11.526-20.4234-19.235-29.6799-7.708-9.2565-16.77-17.4854-26.04-24.1737-9.27-6.6884-18.748-11.8356-25.893-15.0187-7.145-3.183-11.956-4.4015-15.797-4.7692-3.84-.3677-6.708.1155-9.654 2.8287-2.946 2.7132-5.969 7.6562-7.725 13.8862-1.757 6.2301-2.247 13.7467-1.614 21.6722.633 7.9254 2.39 16.2591 3.636 25.6143 1.246 9.3551 1.981 19.7311 2.042 29.2501.062 9.519-.551 18.179-1.695 25.962-1.144 7.782-2.819 14.686-5.545 23.232s-6.503 18.733-10.471 29.819c-3.968 11.086-8.126 23.072-10.58 31.36-2.454 8.288-3.203 12.879-3.763 17.622-.56 4.744-.93 9.641-1.027 15.912-.097 6.27.078 13.914.253 21.559"/>
  <path fill="#673DB6" d="M319.76 85.5286c-3.924-6.973-10.147-12.2981-10.147-12.2981s2.465 7.7781 6.241 14.4952c1.368 2.4325 2.692 4.9466 3.951 7.5893 3.655 7.67 6.804 16.505 9.505 25.155 2.696 8.636 4.923 17.018 6.907 26.899 1.99 9.91 3.737 21.321 5.04 31.524 1.302 10.19 2.153 19.117 2.599 28.339.447 9.235.486 18.722-.24 27.674-.437 5.39-1.153 10.6-1.985 15.764-.817 5.071.46 10.563.46 10.563s3.134-4.697 3.964-9.85c.843-5.231 1.578-10.569 2.028-16.114.745-9.187.702-18.9.25-28.253-.453-9.366-1.318-18.413-2.63-28.691-1.312-10.264-3.078-21.812-5.092-31.838-2.019-10.055-4.286-18.585-7.023-27.353-2.733-8.753-5.956-17.811-9.737-25.7466-1.309-2.7482-2.681-5.3521-4.091-7.8588Z"/>
  <path fill="#E4D8FD" d="M288.429 328.476c-2.265-6.408-3.816-10.752-5.804-16.332-1.989-5.581-4.415-12.398-6.9-18.32-2.484-5.922-5.026-10.948-9.417-18.401-4.391-7.453-10.63-17.332-18.755-28.088-8.124-10.756-18.133-22.389-27.549-32.454-9.417-10.065-18.241-18.562-26.289-24.956-8.048-6.393-15.319-10.682-23.592-14.768-8.273-4.085-17.546-7.966-26.656-11.071-9.11-3.104-18.057-5.433-26.718-6.679-8.66-1.246-17.0349-1.409-23.0812-.838-6.0462.572-9.7637 1.88-13.2974 3.687-3.5338 1.808-6.8836 4.116-9.3144 6.465-2.4307 2.349-3.9422 4.739-4.2895 7.2-.3472 2.462.4698 4.995 3.2886 9.121 2.8188 4.126 7.6393 9.845 10.9892 15.074 3.35 5.229 5.2291 9.968 6.5773 15.606 1.3481 5.637 2.1652 12.174 2.3286 19.895.1634 7.721-.3268 16.627-.5719 25.41-.2452 8.783-.2452 17.444.2859 26.391.5311 8.946 1.5932 18.179 2.9822 26.268 1.389 8.088 3.1048 15.033 5.4947 21.57 2.3899 6.536 5.4539 12.664 11.0099 19.425 5.556 6.761 13.603 14.155 23.881 20.97 10.278 6.814 22.784 13.049 33.631 17.495 10.847 4.447 20.032 7.104 30.576 9.328 10.544 2.225 22.445 4.016 32.118 5.274 9.674 1.259 17.118 1.985 23.672 2.204 6.553.218 12.215-.071 16.292-.673 4.077-.603 6.569-1.519 9.639-3.24 3.07-1.721 6.718-4.246 9.788-7.279 3.07-3.034 5.562-6.574 7.184-11.023 1.622-4.449 2.373-9.805 2.348-15.608-.025-5.802-.825-12.05-2.716-19.411-1.89-7.361-4.87-15.834-7.135-22.242Z"/>
  <path stroke="#673DB6" stroke-linecap="round" stroke-width="10.3617" d="M281.662 304.452c-4.512-8.887-8.995-17.719-14.37-27.1-5.375-9.382-11.614-19.261-19.739-30.017-8.124-10.756-18.133-22.389-27.549-32.454-9.417-10.065-18.241-18.562-26.289-24.956-8.048-6.393-15.319-10.682-23.592-14.768-8.273-4.085-17.546-7.966-26.656-11.071-9.11-3.104-18.057-5.433-26.718-6.679-8.66-1.246-17.0349-1.409-23.0812-.838-6.0462.572-9.7637 1.88-13.2974 3.687-3.5338 1.808-6.8836 4.116-9.3144 6.465-2.4307 2.349-3.9422 4.739-4.2895 7.2-.3472 2.462.4698 4.995 3.2886 9.121 2.8188 4.126 7.6393 9.845 10.9892 15.074 3.35 5.229 5.2291 9.968 6.5773 15.606 1.3481 5.637 2.1652 12.174 2.3286 19.895.1634 7.721-.3268 16.627-.5719 25.41-.2452 8.783-.2452 17.444.2859 26.391.5311 8.946 1.5932 18.179 2.9822 26.268 1.389 8.088 3.1048 15.033 5.4947 21.57 2.3899 6.536 5.4539 12.664 11.0099 19.425 5.556 6.761 13.603 14.155 23.881 20.97 10.278 6.814 22.784 13.049 33.631 17.495 10.847 4.447 20.033 7.104 25.478 8.655 5.445 1.55 7.149 1.993 13.226 2.875 6.077.881 16.526 2.201 26.04 3.124 9.514.922 18.091 1.447 26.669 1.973"/>
  <path fill="#673DB6" d="M126.38 194.797c-7.507-5.321-16.378-8.461-16.378-8.461s6.398 6.879 13.787 12.117c4.232 2.999 8.48 6.152 12.771 9.595 9.391 7.537 19.019 16.488 27.124 24.864 8.09 8.361 14.657 16.143 20.816 24.208 6.169 8.075 11.934 16.439 17.181 24.533 5.246 8.093 9.966 15.905 14.243 23.237 1.38 2.365 2.713 4.679 4.015 6.96 4.001 7.008 9.891 12.991 9.891 12.991s-1.976-8.165-5.999-15.213c-1.308-2.291-2.648-4.618-4.035-6.996-4.302-7.375-9.06-15.25-14.354-23.417-5.293-8.164-11.129-16.632-17.38-24.816-6.259-8.194-12.929-16.099-21.158-24.603-8.213-8.488-17.986-17.577-27.54-25.243-4.375-3.511-8.697-6.718-12.984-9.756Z"/>
  <path fill="#E4D8FD" d="M315.949 430.713c1.874 4.512 2.854 7.045 3.181 12.438.327 5.392 0 13.644-1.879 23.204s-5.311 20.426-10.703 29.536c-5.393 9.11-12.746 16.464-20.974 23.71-8.228 7.247-17.329 14.387-26.185 20.267-8.855 5.881-17.463 10.503-27.516 14.461-10.053 3.957-21.549 7.25-30.591 10.717-9.042 3.466-15.628 7.106-21.723 12.277-6.095 5.171-11.699 11.872-15.223 15.989-3.525 4.116-4.969 5.647-6.803 6.73-1.835 1.084-4.059 1.719-6.76 1.416-2.701-.304-5.878-1.546-9.07-4.16s-6.399-6.601-9.129-11.512c-2.729-4.91-4.983-10.745-7.236-18.169-2.253-7.424-4.506-16.437-5.373-25.999-.866-9.561-.346-19.672 1.358-29.638 1.704-9.966 4.593-19.787 8.002-28.858 3.408-9.07 7.337-17.39 11.006-24.034 3.668-6.644 7.077-11.612 14.183-18.704 7.107-7.092 17.91-16.307 27.414-23.485 9.504-7.179 17.708-12.32 25.969-16.986 8.262-4.665 16.581-8.853 24.612-11.699 8.031-2.845 15.772-4.347 21.636-4.809 5.864-.463 9.851.115 14.184 1.357 4.333 1.242 9.012 3.149 13.548 5.662 4.535 2.513 8.926 5.633 13.346 9.533 4.419 3.9 8.868 8.579 12.476 14.165 3.608 5.586 6.376 12.078 8.25 16.591Z"/>
  <path stroke="#673DB6" stroke-linecap="round" stroke-width="10.3617" d="M260.479 381.371c-9.227 1.832-18.454 3.664-27.227 6.675-8.774 3.01-17.093 7.199-25.355 11.864-8.261 4.665-16.465 9.807-25.969 16.986-9.504 7.178-20.307 16.393-27.414 23.485-7.106 7.092-10.515 12.06-14.183 18.704-3.669 6.644-7.598 14.963-11.006 24.034-3.409 9.071-6.298 18.892-8.002 28.858-1.704 9.966-2.224 20.076-1.358 29.638.867 9.562 3.12 18.574 5.373 25.998 2.253 7.424 4.507 13.259 7.236 18.17 2.73 4.911 5.937 8.897 9.129 11.512 3.192 2.614 6.369 3.856 9.07 4.159 2.701.304 4.925-.332 6.76-1.415 1.834-1.083 3.278-2.614 6.803-6.731 3.524-4.116 9.128-10.818 15.223-15.989 6.095-5.17 12.681-8.81 21.723-12.276 9.042-3.467 20.538-6.76 30.591-10.718 10.053-3.957 18.661-8.579 27.516-14.46 8.856-5.881 17.957-13.02 23.789-17.74 5.831-4.719 8.392-7.017 12.37-11.786 3.978-4.769 9.372-12.009 13.493-20.436s6.968-18.041 8.444-26.588c1.475-8.547 1.579-16.028 1.683-23.508"/>
  <path fill="#673DB6" d="M181.569 496.97c-4.205 7.111-6.139 15.385-6.139 15.385s5.867-6.124 9.996-13.104c2.179-3.684 4.43-7.304 6.821-10.828 5.416-7.98 11.581-15.517 17.929-22.351 6.355-6.841 12.856-12.942 18.724-17.727 5.844-4.767 11.053-8.22 16.673-11.399.777-.44 1.563-.875 2.356-1.305 7.54-4.095 14.508-9.774 14.508-9.774s-8.871 1.617-16.646 5.835c-.814.442-1.623.89-2.425 1.343-5.82 3.292-11.241 6.887-17.298 11.826-6.034 4.921-12.704 11.184-19.176 18.151-6.477 6.973-12.791 14.689-18.353 22.885-2.456 3.619-4.759 7.323-6.97 11.063Z"/>
  <path fill="#E4D8FD" d="M374.69 405.467c6.975 1.337 14.004 4.434 20.579 9.473 6.575 5.04 12.696 12.021 19.102 20.08 6.406 8.058 13.096 17.192 18.644 25.748 5.547 8.557 9.951 16.535 13.701 24.47 3.749 7.935 6.843 15.826 10.007 26.03 3.164 10.204 6.398 22.721 8.809 34.385 2.411 11.664 4 22.475 5.687 33.806 1.686 11.332 3.47 23.183 4.418 34.197.948 11.013 1.059 21.188.167 28.183-.892 6.996-2.787 10.811-4.85 13.529-2.063 2.717-4.293 4.336-7.304 4.625-3.01.289-6.801-.752-12.878-3.585s-14.44-7.458-26.184-13.25c-11.744-5.792-26.868-12.75-38.885-18.274-12.018-5.523-20.927-9.611-29.876-15.253-8.949-5.641-17.937-12.836-25.743-20.726-7.806-7.89-14.429-16.475-19.869-26.981-5.44-10.506-9.698-22.934-12.339-35.443-2.641-12.51-3.666-25.1-3.864-36.874-.197-11.774.434-22.729 1.499-31.682 1.064-8.953 2.562-15.902 4.218-20.604 1.656-4.701 3.469-7.154 5.328-9.192 1.858-2.038 3.762-3.662 5.801-5.312 2.039-1.651 4.213-3.327 7.196-5.062 2.983-1.734 6.774-3.526 10.621-5.116 3.847-1.59 7.749-2.977 11.959-4.22 4.209-1.243 8.725-2.342 14.443-3.103 5.718-.761 12.638-1.185 19.613.151Z"/>
  <path stroke="#673DB6" stroke-linecap="round" stroke-width="10.1822" d="M404.506 423.512c3.194 3.478 6.387 6.956 11.329 13.263 4.942 6.306 11.632 15.44 17.179 23.997 5.547 8.556 9.952 16.534 13.701 24.469 3.75 7.935 6.844 15.826 10.008 26.031 3.164 10.204 6.397 22.72 8.808 34.384 2.412 11.664 4.001 22.475 5.687 33.806 1.687 11.332 3.471 23.183 4.418 34.197.948 11.013 1.06 21.188.168 28.184-.892 6.995-2.788 10.811-4.851 13.528-2.063 2.717-4.293 4.336-7.303 4.625-3.011.289-6.802-.752-12.879-3.584-6.077-2.833-14.44-7.458-26.184-13.25-11.743-5.792-26.868-12.751-38.885-18.275-12.017-5.523-20.927-9.611-29.876-15.252-8.949-5.642-17.937-12.837-25.743-20.727-7.805-7.89-14.428-16.474-19.868-26.981-5.441-10.506-9.698-22.933-12.34-35.443-2.641-12.509-3.666-25.1-3.863-36.874-.197-11.773.434-22.729 1.81-31.739 1.376-9.009 3.499-16.073 5.621-23.137"/>
  <path fill="#673DB6" d="M409.787 554.06c2.747 7.711 7.041 14.941 7.041 14.941s-.902-8.364-3.67-16.137c-1.132-3.178-2.284-6.313-3.465-9.375-3.085-7.992-6.362-15.452-9.895-23.028-3.533-7.575-7.332-15.293-11.528-23.015-4.196-7.724-8.794-15.464-14.123-23.147-2.967-4.279-6.154-8.531-9.43-12.76-3.929-5.072-9.322-8.945-9.322-8.945s2.596 6.099 6.492 11.129c3.254 4.202 6.4 8.399 9.319 12.609 5.237 7.551 9.768 15.175 13.92 22.817 4.152 7.642 7.918 15.289 11.429 22.819 3.51 7.528 6.754 14.912 9.8 22.805 1.167 3.026 2.308 6.131 3.432 9.287Z"/>
  <path fill="url(#a)" d="M301.463 425.353c32.659 17.759 73.8 6.51 91.889-25.125 18.089-31.635 6.277-71.677-26.382-89.436-32.66-17.759-73.8-6.51-91.89 25.125-18.089 31.635-6.277 71.677 26.383 89.436Z"/>
  <path fill="url(#b)" d="M307.209 426.127c38.667 20.583 87.216 8.402 108.438-27.207 21.222-35.609 7.079-81.161-31.588-101.745-38.666-20.583-87.216-8.402-108.437 27.207-21.222 35.609-7.08 81.162 31.587 101.745Z"/>
  <path fill="url(#c)" d="M333.335 376.383c27.477 24.381 65.539 26.354 85.013 4.406 19.475-21.948 12.988-59.504-14.489-83.885-27.477-24.381-65.539-26.354-85.014-4.406-19.475 21.948-12.987 59.504 14.49 83.885Z"/>
  <path fill="#673DB6" d="M352.038 343.287c.061.112.122.223.185.333 1.668 2.918 3.764 5.387 5.998 7.471 2.006 1.911 4.268 3.628 6.803 4.959 2.148 1.126 4.442 1.881 6.763 2.215 1.693.28 3.542.222 5.354-.29 1.53-.429 2.876-1.382 3.839-2.679 1.024-1.531 1.355-3.18 1.246-4.638-.212-2.335-1.266-4.063-2.247-5.238-3.092-3.767-5.637-5.224-5.637-5.224s1.807 2.394 3.382 6.56c.427 1.203.795 2.66.448 3.741-.195.692-.563 1.34-1.04 1.635-.259.188-.726.245-1.2.248-.755.041-1.628-.229-2.663-.575-1.449-.53-2.854-1.349-4.229-2.365-1.602-1.183-3.071-2.694-4.599-4.41-1.656-1.909-3.16-3.858-4.276-5.883-.042-.075-.083-.151-.125-.226-1.055-1.933-1.798-4.081-2.325-6.483-.567-2.583-.79-4.957-.58-6.583.167-1.285.629-2.003 1.125-2.501.536-.538 1.292-.975 2.296-1.241 1.065-.281 2.384-.377 3.861-.218 1.492.16 3.092.576 4.55 1.143 1.393.542 2.679 1.237 4.152 2.235 1.485 1.006 3.124 2.294 4.882 4.005 1.795 1.745 3.722 3.928 5.523 6.298 1.776 2.338 3.376 4.794 4.839 7.628 1.488 2.881 2.857 6.19 3.917 9.264 1.059 3.075 1.764 5.781 2.144 7.901.359 2.007.407 3.486.295 4.807-.124 1.465-.409 2.727-.836 3.752-.368.882-.935 1.705-1.66 2.426-.725.722-1.669 1.406-2.886 1.929-1.278.549-2.964.99-5.046 1.062-2.121.073-4.712-.23-7.665-.993-2.952-.764-6.197-1.972-9.518-3.495-3.315-1.52-6.609-3.307-9.663-5.306-3.045-1.993-5.869-4.209-8.509-6.666-2.644-2.461-5.121-5.181-7.461-8.145-2.34-2.964-4.423-6.024-6.049-9.486-1.649-3.515-2.861-7.491-3.497-11.19-.627-3.644-.685-7.018-.547-9.994.139-2.978.461-5.292 1.012-7.302.55-2.005 1.334-3.728 2.328-5.184.987-1.445 2.25-2.727 3.834-3.876 1.573-1.14 3.381-2.09 5.619-2.696 2.343-.635 5.282-.936 8.203-.91 2.873.026 5.66.372 8.638.905 2.983.535 5.989 1.226 8.946 2.161 2.952.933 5.835 2.102 8.621 3.633 2.826 1.552 5.633 3.516 8.445 5.645 1.407 1.065 2.764 2.134 4.112 3.263 1.384 1.161 2.736 2.353 4.05 3.578 3.014 2.818 5.789 5.713 8.218 8.795 2.576 3.259 4.742 6.703 6.491 10.227 1.87 3.759 3.216 7.6 4.157 11.297 1.197 4.724 1.735 9.014 1.849 12.839.263 8.406-.684 13.779-.684 13.779s2.25-4.919 3.687-13.57c.655-3.983.927-8.671.433-13.942-.387-4.16-1.273-8.625-2.884-13.157-1.501-4.213-3.576-8.406-6.267-12.398-2.531-3.749-5.49-7.21-8.745-10.398-1.429-1.403-2.914-2.749-4.448-4.036-1.49-1.249-2.97-2.412-4.466-3.545-2.968-2.247-6.2-4.521-9.559-6.367-3.399-1.867-6.846-3.256-10.262-4.336-3.411-1.078-6.812-1.854-10.086-2.441-3.28-.587-6.601-1.015-10.163-1.048-3.514-.031-7.337.324-10.67 1.227-3.439.931-6.222 2.4-8.587 4.116-2.354 1.707-4.375 3.718-6.011 6.115-1.629 2.387-2.806 5.053-3.59 7.913-.783 2.854-1.169 5.878-1.327 9.29-.158 3.414-.102 7.481.669 11.963.762 4.429 2.233 9.264 4.229 13.518 2.021 4.305 4.548 7.969 7.146 11.26 2.599 3.292 5.388 6.361 8.404 9.169 3.02 2.811 6.248 5.343 9.728 7.621 3.47 2.271 7.172 4.277 10.857 5.966 3.679 1.687 7.44 3.104 11.036 4.033 3.595.93 7.095 1.387 10.26 1.278 3.205-.11 5.999-.795 8.33-1.796 2.392-1.027 4.185-2.317 5.717-3.841s2.742-3.216 3.646-5.383c.844-2.026 1.324-4.35 1.505-6.488.194-2.283.088-4.426-.406-7.185-.474-2.647-1.324-5.854-2.499-9.264-1.175-3.41-2.721-7.157-4.434-10.476-1.738-3.365-3.623-6.253-5.682-8.962-2.034-2.676-4.291-5.242-6.424-7.317-2.17-2.111-4.205-3.716-6.126-5.018-1.935-1.31-3.789-2.338-5.959-3.182-2.106-.82-4.492-1.455-6.881-1.712-2.404-.258-4.863-.139-7.164.469-2.361.624-4.56 1.749-6.422 3.616-1.901 1.906-3.281 4.434-3.712 7.772-.386 2.996.04 6.621.716 9.704.67 3.049 1.672 6.045 3.228 8.895Z"/>
  <path stroke="#673DB6" stroke-linecap="round" stroke-width="4.36478" d="M286.835 379.8c.179-5.434.359-10.868 1.216-16.508.858-5.641 2.394-11.487 4.833-17.421 2.439-5.935 5.78-11.956 9.413-16.603 3.632-4.647 7.557-7.921 11.481-11.194M293.94 386.476c.426-4.437.851-8.875 1.8-13.141.949-4.266 2.422-8.36 4.511-12.529 2.088-4.169 4.792-8.411 7.107-11.607 2.314-3.195 4.241-5.342 6.167-7.49M298.772 392.376c1.439-4.3 2.879-8.6 4.901-12.679 2.021-4.078 4.623-7.935 7.255-11.031 2.632-3.096 5.293-5.432 7.954-7.768M306.94 400.579c1.882-3.311 3.763-6.622 6.022-9.73 2.259-3.108 4.894-6.012 8.237-9.232 3.343-3.22 7.393-6.755 11.443-10.291M312.579 405.651c3.655-1.625 7.309-3.251 10.568-4.867 3.259-1.616 6.121-3.222 9.007-5.029 2.887-1.807 5.797-3.813 8.701-6.117 2.903-2.303 5.799-4.903 8.696-7.503M319.574 412.644c4.56-.511 9.121-1.023 13.902-2.48 4.78-1.456 9.781-3.857 14.127-6.253 4.347-2.396 8.039-4.787 11.263-7.328 3.223-2.542 5.978-5.234 8.733-7.926M325.703 420.829c6.135-.139 12.271-.278 18.019-1.238 5.748-.959 11.107-2.739 16.31-5.031 5.202-2.293 10.246-5.098 15.186-8.74 4.939-3.642 9.773-8.122 14.607-12.601"/>
  <defs>
    <radialGradient id="a" cx="0" cy="0" r="1" gradientTransform="matrix(59.1357 32.1555 -32.7536 57.2804 334.216 368.073)" gradientUnits="userSpaceOnUse">
      <stop stop-color="#F0E8FF"/>
      <stop offset=".904564" stop-color="#F2E8FF"/>
      <stop offset="1" stop-color="#F2E8FF" stop-opacity="0"/>
    </radialGradient>
    <radialGradient id="b" cx="0" cy="0" r="1" gradientTransform="matrix(77.2578 41.1259 -38.4251 64.4758 345.634 361.651)" gradientUnits="userSpaceOnUse">
      <stop offset=".174779" stop-color="#DCC0FF"/>
      <stop offset="1" stop-color="#C0CBFF" stop-opacity="0"/>
    </radialGradient>
    <radialGradient id="c" cx="0" cy="0" r="1" gradientTransform="matrix(49.75153526 44.14571014 -35.26222358 39.73998275 368.597 336.643)" gradientUnits="userSpaceOnUse">
      <stop stop-color="#FCFF00" stop-opacity=".711039"/>
      <stop offset=".869469" stop-color="#FFFA00" stop-opacity="0"/>
    </radialGradient>
  </defs>
</svg>
