<?xml version="1.0" encoding="UTF-8"?><svg xmlns="http://www.w3.org/2000/svg" viewBox="0 0 478.83 478.83"><defs><style>.d{fill:#fff;}.e{fill:#9d6ff3;}</style></defs><g id="a"/><g id="b"><g id="c"><g><rect class="d" width="478.83" height="478.83" rx="123.95" ry="123.95"/><rect class="e" x="20.37" y="20.37" width="438.1" height="438.1" rx="111.02" ry="111.02"/><path class="d" d="M342.8,293l44.76,11.3c-9.38,36.76-26.26,64.79-50.64,84.09-24.38,19.3-54.18,28.95-89.4,28.95s-66.1-7.42-88.94-22.26c-22.84-14.84-40.22-36.34-52.14-64.48-11.92-28.15-17.88-58.37-17.88-90.67,0-35.22,6.73-65.94,20.19-92.17,13.46-26.22,32.61-46.14,57.45-59.75,24.84-13.61,52.18-20.42,82.02-20.42,33.83,0,62.29,8.62,85.36,25.84,23.07,17.23,39.14,41.45,48.22,72.67l-44.07,10.38c-7.84-24.61-19.23-42.53-34.14-53.75-14.92-11.23-33.68-16.84-56.29-16.84-25.99,0-47.72,6.23-65.17,18.69-17.46,12.46-29.73,29.18-36.8,50.18-7.08,21-10.61,42.65-10.61,64.94,0,28.76,4.19,53.87,12.57,75.33,8.38,21.46,21.42,37.49,39.1,48.1,17.69,10.61,36.83,15.92,57.45,15.92,25.07,0,46.29-7.23,63.68-21.69,17.38-14.46,29.14-35.91,35.3-64.37Z"/></g></g></g></svg>
