<?xml version="1.0" encoding="UTF-8"?><svg xmlns="http://www.w3.org/2000/svg" viewBox="0 0 450.04 409.09"><defs><style>.d{fill:#e4d8fd;}.e{fill:#fefdfb;}.f{fill:#cab1fb;}.g{fill:#9d6ff3;}</style></defs><g id="a"/><g id="b"><g id="c"><g><path class="e" d="M1.56,287.3C-25.55,137.51,307.41-96.98,415.48,42.84,571.4,320.92,158.24,563.7,1.56,287.3Z"/><path class="g" d="M109.88,357.48C295.02,459.47,507.52,227.91,394,55.6c40.32,119.11-246.54,316.06-349.28,250.76,14.48,19.26,43.98,41.29,65.16,51.13Z"/><path class="d" d="M203.76,94.43c.51-3.48,.44-6.98-.03-10.44-1.39-10.27-5.43-12.63-14.94-8.79-1.85,.74-3.68,1.56-5.43,2.51-15.1,8.16-29.55,17.34-42.83,28.25-7.46,6.12-14.83,12.4-20.85,20-4.26,5.38-3.37,9.51,2.76,11.77,8.55,3.15,17.37,5.56,26.45,6.81,11.26,3.12,22.83,4.17,34.42,4.66,11.33,.48,16.69-4.19,18.7-15.53,2.31-13,2.19-26.1,1.74-39.22Z"/><path class="d" d="M112.13,199.81c.81-.17,1.69-.17,2.41-.52,18.12-8.69,36.73-16.4,54.08-26.64,2.14-1.26,4.34-2.55,6.16-4.2,4.09-3.71,3.16-7.53-2.09-9.15-11.48-3.55-23.31-5.45-35.21-6.68-10.47-1.09-20.91-3.25-31.54-1.88-8.5,.81-15.39,4.9-21.46,10.61-6.09,5.72-11.06,12.43-16.02,19.08-7.48,10.03-14.13,20.61-17,33.06-1.66,7.19,.83,9.75,8.08,8.31,1.14-.23,2.3-.45,3.39-.85,16.74-6.26,33.49-12.51,49.21-21.14Z"/><path class="d" d="M137.93,237.49c-8.54,9.51-17.14,18.96-25.6,28.54-5.83,6.6-11.75,13.16-15.74,21.16-3.81,7.63-2.56,10.45,5.56,12.56,7.35,1.91,14.78,2.08,22.29,1.18,14.62-1.75,28.54-6.09,42.16-11.49,13.04-5.17,21.74-14.3,25.05-28.17,5.05-21.32,6.21-43.06,6.95-64.84,.14-4.22,1.02-9.63-3.56-11.62-4.38-1.9-8.25,1.93-11.32,4.81-16.1,15.14-31.38,31.1-45.79,47.87Z"/><path class="d" d="M99.96,213.3c-14.73,6.97-29.31,14.16-43.03,23.07-11.18,7.26-14.86,17.17-13.06,29.96,2.41,17.09,20.79,27.26,34.2,18.12,16.02-10.92,29.2-25.15,42.66-38.98,.2-.21,.2-.62,.29-.94,1.99-.36,3-2.03,4.21-3.34,8.36-9,16.75-17.97,24.99-27.07,7.9-8.73,15.73-17.55,23.77-26.17,1.63-1.75,3.2-3.66,1.43-6.15-1.61-2.27-3.8-1.57-5.86-.75-23.77,9.52-47.02,20.17-69.6,32.27Z"/><path class="d" d="M210,244.38c-.65,4.26,.58,8.25,2.02,12.13,2.01,5.46,5.64,7.34,11.37,6.29,3.97-.72,7.59-2.38,11.22-4.04,26.99-12.29,50.16-29.91,70.87-50.91,2.55-2.58,4.82-5.53,6.76-8.59,3.88-6.14,2.88-9.86-3.55-13.46-5.55-3.11-11.59-4.92-17.84-6.06-20.31-5.03-40.66-9.91-61.73-10.35-9.6-.2-15.44,4.51-17.08,13.94-3.53,20.23-3.64,40.62-2.05,61.04Z"/><path class="d" d="M343.68,99.11c-23.95,9.58-47.12,20.92-70.53,31.71-10.89,5.02-21.49,10.61-31.73,16.83-2.77,1.68-5.4,3.72-4.55,7.53,.77,3.47,3.95,3.6,6.67,4.24,22.91,5.39,46.22,8.18,69.64,9.7,24.88,1.61,38.08-8.05,49.86-28.58,3.08-1.31,3.68-4.57,5.18-7,6.34-10.26,11.21-21.14,11.59-33.48,.26-8.33-2.86-11.11-10.89-9.53-8.78,1.72-17.12,4.84-25.24,8.58Z"/><path class="d" d="M343.79,36.77c-6.06,.35-13.09,1.64-18.92,6.07-6.08,4.62-12.1,9.43-17.52,14.78-12.2,12.04-24.18,24.32-35.96,36.77-11.21,11.84-22.85,23.31-32.59,36.48-1.17,1.59-2.74,3.21-1.06,5.32,1.51,1.9,3.58,1.54,5.51,.88,2.68-.91,5.34-1.89,7.91-3.05,12.99-5.83,26.12-11.39,38.89-17.67,25.31-12.44,51-24.14,74.96-39.19,12.13-7.62,14.09-18.41,4.7-29.27-6.5-7.53-15.07-10.64-25.93-11.13Z"/><path class="d" d="M297,33.87c-16.66,.46-48.73,10.1-63.4,19.23-7.56,4.71-12.66,11.31-14.64,19.99-4.21,18.46-5.03,37.23-4.34,56.08,.17,4.59,3.4,6.51,7.58,4.55,2.22-1.04,4.25-2.61,6.15-4.2,7.9-6.65,14.72-14.38,21.91-21.75,16.15-16.53,31.31-33.94,46.68-51.16,3.33-3.73,6.38-7.69,8.77-12.1,4.02-7.43,2.5-10.08-6.07-10.64-.66-.04-1.33,0-2.65,0Z"/><path class="f" d="M121.02,244.52c-.09,.32-.08,.73-.29,.94-13.46,13.83-26.64,28.06-42.66,38.98-13.41,9.14-31.8-1.03-34.2-18.12-1.8-12.79,1.89-22.7,13.06-29.96,13.72-8.91,28.3-16.09,43.03-23.07-.05,2.83-.03,5.54,1.6,8.14,5.4,8.62,11.41,16.7,19.46,23.08Z"/><path class="f" d="M191.64,261.26c-3.31,13.87-12.01,23.01-25.05,28.17-13.62,5.4-27.54,9.74-42.16,11.49-7.5,.9-14.93,.73-22.29-1.18-8.12-2.11-9.37-4.93-5.56-12.56,3.99-7.99,9.91-14.55,15.74-21.16,8.46-9.58,17.06-19.03,25.6-28.54-.59,6.75,4.64,8.97,9.16,11.65,13.72,8.15,27.89,14.76,44.55,12.12Z"/><path class="f" d="M148.9,144.52c-9.08-1.25-17.89-3.66-26.45-6.81-6.13-2.26-7.02-6.39-2.76-11.77,6.02-7.6,13.39-13.87,20.85-20,13.28-10.91,27.73-20.08,42.83-28.25,1.75-.95,3.58-1.76,5.43-2.51,9.52-3.83,13.56-1.48,14.94,8.79,.47,3.46,.53,6.96,.03,10.44-2.56-.2-4.9-.76-7.69,.24-15.08,5.44-27.4,14.56-36.99,27.26-5.06,6.69-10.24,13.52-10.19,22.59Z"/><path class="f" d="M105.93,150.73c-5.12,5.85-5.4,12.7-4.48,19.97,.82,6.43,2.15,12.66,4.14,18.86,1.34,4.15,3.28,7.51,6.53,10.24-15.72,8.63-32.47,14.88-49.21,21.14-1.08,.41-2.24,.63-3.39,.85-7.25,1.44-9.74-1.13-8.08-8.31,2.87-12.45,9.51-23.03,17-33.06,4.96-6.65,9.93-13.35,16.02-19.08,6.08-5.71,12.96-9.81,21.46-10.61Z"/><path class="f" d="M210,244.38c5.34,3.15,11.05,1.88,16.46,.78,31.44-6.4,53-24.55,64.27-54.73,1.34-3.58,1.52-7.1,.12-10.68,6.25,1.13,12.29,2.95,17.84,6.06,6.43,3.6,7.44,7.31,3.55,13.46-1.94,3.07-4.22,6.01-6.76,8.59-20.72,21-43.89,38.62-70.87,50.91-3.63,1.65-7.26,3.31-11.22,4.04-5.73,1.05-9.36-.83-11.37-6.29-1.43-3.88-2.66-7.87-2.02-12.13Z"/><path class="f" d="M363.04,140.54c-2.5-4.22-.94-9.04-2.02-13.56-1.8-7.54-5-14.37-8.55-21.13-1.9-3.61-5.43-5.06-8.79-6.75,8.12-3.73,16.46-6.85,25.24-8.58,8.03-1.58,11.15,1.2,10.89,9.53-.38,12.34-5.24,23.22-11.59,33.48-1.5,2.42-2.1,5.69-5.18,7Z"/></g></g></g></svg>
