<?xml version="1.0" standalone="no"?>
<!DOCTYPE svg PUBLIC "-//W3C//DTD SVG 20010904//EN"
 "http://www.w3.org/TR/2001/REC-SVG-20010904/DTD/svg10.dtd">
<svg version="1.0" xmlns="http://www.w3.org/2000/svg"
 width="128.000000pt" height="128.000000pt" viewBox="0 0 128.000000 128.000000"
 preserveAspectRatio="xMidYMid meet">
<metadata>
Created by potrace 1.15, written by Peter Selinger 2001-2017
</metadata>
<g transform="translate(0.000000,128.000000) scale(0.100000,-0.100000)"
fill="#000000" stroke="none">
<path d="M39 1257 l-34 -23 0 -594 0 -594 34 -23 c30 -21 46 -23 147 -23 l114
0 0 369 c0 203 3 376 6 385 4 11 19 16 44 16 22 0 62 13 100 33 60 30 69 32
169 32 97 0 111 -2 164 -29 71 -36 130 -99 165 -174 70 -154 -3 -346 -165
-428 -52 -26 -68 -29 -153 -29 -52 0 -107 3 -122 8 l-28 7 0 -95 0 -95 364 0
c362 0 363 0 397 23 l34 23 0 594 0 594 -34 23 -34 23 -567 0 -567 0 -34 -23z
m763 -217 c35 -11 92 -36 127 -57 65 -39 161 -133 161 -159 0 -33 -29 -21 -91
40 -146 142 -349 191 -533 128 -63 -21 -89 -19 -84 6 4 19 77 48 152 62 71 12
193 3 268 -20z m-57 -94 c28 -7 74 -25 103 -40 60 -30 152 -114 152 -139 0
-33 -23 -28 -68 15 -65 62 -98 83 -170 107 -73 25 -177 28 -248 6 -66 -20 -84
-19 -84 4 0 18 45 42 105 54 44 10 163 6 210 -7z"/>
<path d="M555 686 c-38 -17 -91 -73 -104 -109 -6 -16 -11 -52 -11 -81 0 -112
92 -193 210 -184 116 8 187 91 178 209 -5 65 -21 94 -82 143 -30 25 -47 31
-99 33 -38 2 -73 -2 -92 -11z"/>
</g>
</svg>
