<?xml version="1.0" encoding="UTF-8"?><svg xmlns="http://www.w3.org/2000/svg" viewBox="0 0 605.91 691.61"><defs><style>.d{stroke-width:2px;}.d,.e,.f,.g,.h,.i,.j,.k,.l{stroke:#673db6;}.d,.e,.f,.g,.h,.i,.j,.k,.l,.m{stroke-miterlimit:10;}.d,.g,.l{fill:none;}.n{fill:#e4d8fd;}.e{stroke-width:5.5px;}.e,.h,.i,.j{fill:#cab1fb;}.f{stroke-width:9px;}.f,.k,.o{fill:#9d6ff3;}.p{fill:#673db6;}.g{stroke-width:4px;}.h{stroke-width:5px;}.i{stroke-width:3px;}.j{stroke-width:6px;}.k{stroke-width:8px;}.l{stroke-width:2.5px;}.m{fill:#fff;stroke:#fff;stroke-width:44px;}</style></defs><g id="a"/><g id="b"><g id="c"><g><path class="m" d="M90.25,345.61c-37.7,0-68.25,30.56-68.25,68.25v187.49c0,37.7,30.56,68.25,68.25,68.25h425.41c37.7,0,68.25-30.56,68.25-68.25v-187.49c0-37.7-30.56-68.25-68.25-68.25v.39c37.7,0,68.25-30.56,68.25-68.25V90.25c0-37.7-30.56-68.25-68.25-68.25H90.25c-37.7,0-68.25,30.56-68.25,68.25v187.49c0,37.7,30.56,68.25,68.25,68.25"/><g><rect class="p" x="22" y="21.7" width="561.91" height="324" rx="68.25" ry="68.25"/><rect class="n" x="31.45" y="30.94" width="543.02" height="285.52" rx="59.11" ry="59.11"/><rect class="k" x="116" y="45.35" width="373.91" height="256.7" rx="4.75" ry="4.75"/><rect class="p" x="22" y="345.31" width="561.91" height="324" rx="68.25" ry="68.25" transform="translate(605.91 1014.62) rotate(180)"/><rect class="n" x="31.45" y="355.39" width="543.02" height="303.85" rx="60.97" ry="60.97" transform="translate(605.91 1014.62) rotate(180)"/><rect class="f" x="140.9" y="378.96" width="324.11" height="256.7" rx="4.43" ry="4.43" transform="translate(605.91 1014.62) rotate(180)"/><rect class="o" x="140.9" y="326.04" width="324.11" height="19.76" rx="9.88" ry="9.88" transform="translate(605.91 671.85) rotate(180)"/><circle class="h" cx="522.38" cy="432.83" r="14.56"/><circle class="h" cx="491.19" cy="463.88" r="14.56"/><circle class="h" cx="522.38" cy="494.94" r="14.56"/><circle class="h" cx="552.87" cy="463.88" r="14.56"/><circle class="i" cx="493.35" cy="572.91" r="10.87"/><circle class="i" cx="493.35" cy="610.14" r="10.87"/><circle class="i" cx="491.19" cy="399.83" r="10.87"/><circle class="h" cx="104.03" cy="610.14" r="13.33"/><g><path class="e" d="M94.83,532.58v16.82c0,3.32-2.69,6.01-6.01,6.01h-10.51c-3.32,0-6.01-2.69-6.01-6.01v-16.82h-16.52c-3.32,0-6.01-2.69-6.01-6.01v-10.51c0-3.32,2.69-6.01,6.01-6.01h16.52v-16.82c0-3.32,2.69-6.01,6.01-6.01h10.51c3.32,0,6.01,2.69,6.01,6.01v16.82h16.52c3.32,0,6.01,2.69,6.01,6.01v10.51c0,3.32-2.69,6.01-6.01,6.01h-16.52Z"/><line class="l" x1="83.57" y1="510.05" x2="83.57" y2="495.11"/><line class="l" x1="94.83" y1="521.31" x2="109.77" y2="521.31"/><line class="l" x1="83.57" y1="532.58" x2="83.57" y2="547.51"/><line class="l" x1="72.3" y1="521.31" x2="57.36" y2="521.31"/></g><g><circle class="j" cx="83.57" cy="419.77" r="24.09"/><circle class="d" cx="83.57" cy="419.77" r="37.04"/></g><circle class="g" cx="302.96" cy="335.92" r="5.64"/><circle class="p" cx="343.97" cy="335.92" r="2.39"/></g></g></g></g></svg>