<?xml version="1.0" encoding="UTF-8" standalone="no"?>
<svg
   id="a"
   viewBox="0 0 813 813"
   version="1.1"
   sodipodi:docname="bandwidth.svg"
   inkscape:version="1.2.1 (9c6d41e410, 2022-07-14, custom)"
   xmlns:inkscape="http://www.inkscape.org/namespaces/inkscape"
   xmlns:sodipodi="http://sodipodi.sourceforge.net/DTD/sodipodi-0.dtd"
   xmlns="http://www.w3.org/2000/svg"
   xmlns:svg="http://www.w3.org/2000/svg">
  <sodipodi:namedview
     id="namedview127"
     pagecolor="#505050"
     bordercolor="#eeeeee"
     borderopacity="1"
     inkscape:showpageshadow="0"
     inkscape:pageopacity="0"
     inkscape:pagecheckerboard="0"
     inkscape:deskcolor="#505050"
     showgrid="false"
     inkscape:zoom="1.1611316"
     inkscape:cx="534.39248"
     inkscape:cy="414.25106"
     inkscape:window-width="1920"
     inkscape:window-height="1025"
     inkscape:window-x="0"
     inkscape:window-y="0"
     inkscape:window-maximized="1"
     inkscape:current-layer="a" />
  <defs
     id="defs4">
    <style
       id="style2">.b{fill:#be0e00;}.c{fill:#38254f;}.d{fill:#825ab6;}.e{fill:#673db6;}.f{fill:#030303;}.g{fill:#373c65;}.h{fill:#9d6ff3;}.i{fill:#fefefe;}</style>
  </defs>
  <path
     class="f"
     d="M608.57,158.14c28.72,35.34,53.96,73.18,74.16,114.43-29.97,38.43-71.95,59.26-113.89,82.36,35.86,12.65,69.49,28.27,104.83,39.48,4.73-1.81,9.69-2.39,14.87-3.19,3.45-11.24,6.89-22.52,10.38-33.78,1.79-5.78,3.88-6.98,9.55-5.26,27.05,8.22,54.08,16.49,81.1,24.79,4.99,1.53,5.96,3.76,4.16,9.71-6.76,22.27-13.57,44.53-20.36,66.8-8.2,26.87-16.4,53.76-24.6,80.64-.43,1.42-1.21,2.75-.97,4.03,29.7,6.91,51.09,23.85,60.49,52.85,6.88,21.21,2.98,42.48-4.71,63.41-10.73,29.17-31.74,47.39-58.92,60.3-46.92,22.29-93.63,19.57-140.58,.26-17.86-7.34-34.47-16.5-48.45-30.67-10.84,.97-21.4-2.21-32.19-3.97-22.72-3.68-40.32-16.02-55.2-32.41-25.5-28.11-56.9-33.72-92.32-26.22-22.75,4.82-41.45,16.49-57.46,33-1.2,1.24-2.09,2.47-2.49,4.16-2.62,11.15-9.57,19.61-17.43,27.39-5.94,5.87-14.59,8.51-24.02,3.45-16.09-8.64-33.06-15.66-49.63-23.41-9.81-4.59-19.28-9.79-28.71-15.11-25.59-14.42-20.15-42.66,1.26-54.61,17.5-9.76,35.37-10.26,53.2-.31,2.29,1.28,5.01,1.81,7.25,2.59,1.64-20.4,11.46-37.95,27.77-51.65,15.96-13.42,33.64-23.23,56.19-20.92,2.28-13.24,3.28-26.79,6.35-40.73-18.08,8.61-36.2,11.98-55.34,6.6-19.26-5.41-33.43-16.59-40.84-35.9-14.33,2.79-27.82,.55-40.39-6.43-1.79,.34-2.44,1.82-3.37,2.89-10.16,11.63-20.24,23.33-30.41,34.95-24.41,27.9-61.55,30.52-89.63,6.26-19.61-16.94-39.17-33.93-58.65-51.01-27.83-24.41-30.35-61.71-6.07-89.67,42.45-48.91,85-97.74,127.44-146.64,18.77-21.63,41.85-27.93,69.3-20.04,10.69-16.55,22.12-32.85,34.48-47.88-2-35.67,6.14-68.75,21.46-100.15,7.25-14.86,11.48-16.69,27.75-14.26,23.77,3.55,45.2,13.26,65.54,25.64,1.41,.86,2.74,1.85,3.69,2.49,35.22-7.91,69.98-10.56,104.67-.69,16.55-8.83,34.31-14.01,51.92-19.45,20.01-6.19,40.17-12.12,61.1-14.48,14.72-1.66,18.11,1.11,21.26,15.5,7.45,34.07,7.43,68.2,.97,102.38-1.36,7.17-2.84,14.33-4.45,22.48h0Zm-53.55-46.1l.72,.5,.23-.37-.81-.47-1.49-1.72c-10.46-10.81-22.17-20.11-34.69-28.38-44.16-29.22-91.77-35.26-142.12-20.24-26.51,7.91-49.53,22.48-70.84,39.87-8.45,6.9-16.55,14.16-23.65,22.59,6.36-2.03,12.75-3.55,19.18-4.88,27.34-5.62,50.92,1.06,69.15,22.64,11.01,13.02,16.41,28.9,18.7,45.62,3.01,21.99-2.25,41.75-18.39,57.65-13.95,13.74-31.71,18.1-50.55,19.35-2.39,.16-4.87-.39-7.66,.81,2.71,4.68,5.07,9.25,6.56,14.16,6.86,22.75,2.18,43.03-13.24,60.94-3.72,4.33-7.49,8.62-11.46,13.19,18.81,8,37.06,15.73,56.33,20.55,71.29,17.84,139.58,6.61,204.88-24.04,28.49-13.37,55.15-30.71,80.21-50.08,10.73-8.3,20.66-17.5,30.81-27.29-2.05-.91-3.5-1.64-5.01-2.24-24.46-9.74-49.46-17.83-74.93-24.49-6.03-1.57-11.99-2.46-18.27-1.81-1.39,1.34-2.77,2.78-4.29,4.07-1.65,1.38-3.34,2.78-5.18,3.87-29.44,17.49-59.85,20.46-90.84,4.75-19.37-9.82-33.6-24.75-37.95-46.76-3.14-15.91-.83-31.42,4.75-46.93,10.27-28.55,46.12-62.39,88.16-58.91,10.47,.87,20.13,3.76,29.76,7.38,.65,.22,1.3,.45,1.95,.67h.01Zm154.47,604.33c10.63-2.21,20.69-6.02,30.45-10.7,12.16-5.82,23.67-12.66,33.63-21.87,11.63-10.76,17.36-25.01,22.77-39.32,6.22-16.44,7.03-33.58,2.61-50.44-4.2-15.97-15.68-27.01-28.75-36.38-7.72-5.54-16.2-8.82-25.71-8.69-1.55,2.7-1.2,5.87-3.25,7.97-2.83,1.88-5.61,1.53-8.64,.55-8.22-2.64-16.52-5-24.77-7.56-2.99-.93-5.81-1.07-8.86,1.23,8.15,10.84,14.08,22.87,19.19,35.2,11.15,26.91,15.96,54.77,10.18,83.79-3.31,16.61-8.99,32.25-19.51,45.81-.33,.38-1.09,.55-.66,1.32,.78,.13,1.11-.3,1.31-.92h0Zm-358.67-245c2.92-13.11,4.64-26.14,6.26-39.17,.42-3.37,1.42-6.6,5.61-6.13,4.38,.49,4.85,3.82,4.32,7.5-.5,3.45-.75,6.95-1.35,10.39-5.18,29.3-10.4,58.6-15.65,87.88-.79,4.42-3.5,6.21-7.95,5.14-4.09-.98-8.18-1.64-12.34-.88-20.71,3.79-37.28,14.42-50.42,30.65-6.77,8.37-10.98,17.79-11.32,28.7-.23,7.3,1.55,13.67,7.66,18.52,4.41,3.5,8.34,7.62,12.53,11.41,8.08,7.32,16.2,14.59,24.36,21.93,18.82-20.64,41.84-32.26,68.59-36.83,34.74-5.93,65.65,2.14,92.29,25.5,4.73,4.16,8.95,8.9,13.66,13.07,18.59,16.41,41.42,21.22,65.11,22.99,18.21,1.37,35.53-2.85,52.71-9.95-5.73-15.12-7.92-30.79-11.7-46.26-1.09-.07-2.06-.18-3.03-.17-30.34,.31-57.57-27.32-58.94-58.72-1.48-34.01-1.51-68.09-2.15-102.13-.15-7.97-.58-15.96,.51-23.9,.44-3.26,.96-6.74,5.18-7.35,4.37,1.78,2.78,6.08,4.2,9.52,32.44,8.45,65.06,16.95,97.73,25.46-2.31-23.2,1.97-43.57,22.05-58.05-34.53-14.55-69.84-25.86-103.98-38.59-68.8,28.88-138.55,40.24-211.28,19.87-11.08,18.72-25.3,32.51-48.5,32.91-2.33,8.84-6.21,16.51-11.96,23.18-5.84,6.76-12.96,11.77-21.09,15.28,10.04,31.61,58.36,42.64,88.91,18.25h0Zm-199.8,16.47c3.51-.98,7.56-2.75,11-5.85,10.4-9.37,19.62-19.83,28.7-30.41,29.76-34.69,59.57-69.32,89-104.29,7.39-8.79,16.24-16.41,20.76-27.7,5.8-14.47,4.57-27.68-3.34-40.82-7.91-13.13-20.4-21.78-31.25-31.9-14.06-13.14-29.19-25.17-44.73-36.62-5.05-3.72-10.13-6.56-16.39-7.83-14.21-2.88-26.49,.65-37.6,9.61-7.68,6.19-14.01,13.67-20.38,21.1-36.87,43.03-73.58,86.2-110.62,129.1-6.95,8.05-11.72,16.82-11.34,27.29,.59,16.14,6.03,30.76,18.58,41.5,19.79,16.94,38.74,34.92,60.1,50,14.44,10.18,29.83,13.21,47.5,6.83h.01Zm514.64-223.11c-1.07-2.02-1.93-3.6-2.75-5.2-9.53-18.57-18.65-37.36-31.23-54.18-10.84-14.49-21.59-29.04-32.26-43.66-6.78-9.27-13.82-18.46-22.5-25.87-14.97-12.79-32.15-20.74-52.38-21.8-14.24-.75-28.01-.19-40.22,7.82-20.38,13.36-36.36,30.63-44.13,54.21-6.54,19.88-4.11,38.69,9.21,55.37,7.84,9.81,17.8,17.01,29.56,21.42,16.88,6.34,34.09,8.4,51.68,2.85,13.07-4.12,25.74-8.94,35.49-20.46,34.46,4.77,66.89,16.63,99.52,29.51h.02ZM229.9,190.24c2.29,3.12,5.55,4.31,8.03,6.47,21.17,18.42,42.41,36.77,63.48,55.3,2.56,2.25,5.08,3.33,8.4,3.53,9,.53,17.94,.03,26.68-2.01,17.32-4.05,31.28-12.95,39.19-29.45,6.55-13.67,7.31-27.92,3.85-42.71-4.71-20.12-13.09-37.63-31.98-48.09-10.6-5.88-22.34-8.07-34.19-6.56-12.82,1.63-25.38,5.09-36.82,11.46-5.76,3.21-12.23,5.59-16.62,10.67-11.08,12.83-20.73,26.72-30.01,41.39h0Zm453.35,352.06c-10.97-3.38-20.6-6.34-30.23-9.33-6-1.87-6.74-3.33-4.87-9.49,3.38-11.1,6.76-22.19,10.18-33.38-7.44-5.47-12.94-12.23-17.27-20.22-34.03-8.82-68.05-17.65-102.38-26.54,.58,29.41,1.19,58.23,1.64,87.07,.05,3.23,1.24,5.21,3.78,6.98,9,6.27,18.82,10.77,29.57,12.72,36.67,6.65,72.69,2.7,109.59-7.79h0Zm4.3,9.5c-15.18,3.52-29.84,7.45-45.28,9.66,5.24,8.94,5.94,18.02,5.98,27.09,2.94,2.29,5.53,4.35,7.2,7.68,6.59,13.07,12.59,26.42,18.42,39.82,6.24,14.33,12.56,28.65,17.43,43.54,2.77,8.44,1.01,13.47-6.16,18.58-7.18,5.11-15.3,8-23.85,9.71-11.97,2.4-23.5,1.24-34.18-5.5-1.74,2.98-3.23,5.49-4.78,8.14,21.47,8.17,43.12,11.49,65.52,9.65,2.69-.22,4.54-1.62,6.45-3.35,12.34-11.23,18.51-25.9,22.58-41.48,7.62-29.15,3.41-57.41-7.89-84.87-5.57-13.54-12.55-26.35-21.47-38.67h0ZM490.64,55.98c46.25,19.65,78.16,54.4,109.9,90.65,9.14-40.42,10.03-79.69-.54-119.73-37.85,3.87-72.8,16.25-109.37,29.08h0Zm215.54,430.99c22.45-6.75,36.64-32.33,28.29-55.87-8.43-23.77-33.78-35.95-58.97-26.63-21.91,8.11-35.11,33.2-27.04,56.3,7.58,21.7,31.98,35.2,57.72,26.19h0Zm77.5-101.36c-25.55-7.81-50.62-15.45-75.91-23.17-3.04,10.03-5.92,19.49-8.77,28.88,5.2,1.36,9.81,2.57,14.41,3.77,3.63-10.32,9.75-15.32,18.57-15.22,8.12,.09,14.83,5.2,17.4,13.25,2.85,8.91-.22,15.53-10.85,23.25,8.64,14.12,10.61,29.23,5.66,45.01-4.93,15.68-15.47,26.66-30.13,33.78,6.58,9.91,6.78,17.8,.87,24.58-5.84,6.7-14.78,8.56-22.63,4.7-8.55-4.18-11.16-11.67-8.44-24.52-5.51-1.12-11.02-2.32-16.59-4.77-2.96,9.66-5.86,19.13-8.91,29.08,25.43,7.78,50.47,15.43,75.88,23.2,16.53-54.07,32.9-107.64,49.46-161.81l-.02-.02Zm-499.93,297.26c2.88-.75,4.98-1.22,6.63-2.81,6.61-6.38,12.63-13.11,15.53-22.17,1.04-3.27,.4-5.49-2.03-7.46-15.74-12.74-29.63-27.56-45.92-39.74-15.53-11.62-31.71-15.03-49.95-8.3-12.41,4.58-18.48,13.43-18.26,26.58,.07,4.35,1.62,7.48,5.44,9.89,13.51,8.54,27.83,15.44,42.24,22.26,15.48,7.32,31.38,13.69,46.33,21.76v-.02Zm399.23,3.85c-10.05-30.17-23.79-59.1-37.09-87.09-2.11-1.75-3.61-2.06-5.11-2.05-11.36,.06-22.1,2.34-31.48,9.15-5.88,4.27-6.63,7.14-4.77,14.18,1.9,7.2,3.4,14.51,5.17,21.76,3.51,14.4,8.15,28.44,14.95,41.63,2.42,4.7,5.67,8.88,10.83,11.32,13.36,6.31,34.11,2.97,47.5-8.9h0ZM361.31,56.59c-22.46-12.47-44.46-22.52-70.39-23.29-18.3,28.69-24.46,60.71-27.11,93.99,27.74-29.67,58.27-55.15,97.49-70.7h0Zm273.61,505.59c-21.03,1.84-41.98,1.84-63.19-1.96-1.31,12.33-3.93,23.9-9.59,34.98,10.06,8.84,21.41,11.23,33.73,10.04,11.88-12.91,27.19-16.93,43.85-18.1,.33-8.63-1.19-16.48-4.8-24.96h0Zm-416.52-120.99c17.23,11.92,45.85,5.47,59.16-12.4,13.66-18.35,9.32-43.46-1.84-53.63-19.1,22-38.19,43.99-57.32,66.03Zm64.31-74.15c9.76,10.8,13.69,23.33,13.73,37.22,14.22,.91,29.78-10.93,36.84-26.14-14.3-6-29.44-10.36-41.62-21.36-2.84,3.26-5.74,6.6-8.94,10.28Zm285.83,315.89c14.31,11.8,29.29,19.72,46.16,24.93,2.28-3.72,5.33-6.6,6.48-10.78-6.07-7.43-9.68-16.11-13.03-25.13-13.11,3.77-25.09,9.74-39.62,10.98h0Zm-27.09-135.32c-1.24,16.7,3.3,30.67,15.1,42.63,3.9-10.61,6.46-21.11,6.71-32.32-7.64-2.82-14.84-5.72-21.82-10.31h0Zm152.74-48.07c-5.33,5.06-6.44,9.26-3.92,14.33,2.06,4.16,7.29,6.76,12.14,6.04,5.5-.83,9.67-4.73,10.52-9.88,.85-5.15-1.51-9.34-6.72-11.94-1.93,.4-3.87,.92-5.83,1.16-1.97,.24-3.97,.2-6.18,.3h0Zm39.1-90.11c6.93-2.27,10.3-6.82,9.59-12.45-.67-5.23-5.59-9.55-10.99-9.66-6.27-.12-11.19,4.11-12.67,10.97,5.15,2.95,9.76,6.69,14.07,11.13h0Z"
     id="path6" />
  <path
     class="h"
     d="M350.82,471.36c-30.53,24.39-78.87,13.36-88.91-18.25,8.12-3.51,15.26-8.52,21.09-15.28,5.74-6.66,9.62-14.32,11.96-23.18,23.2-.41,37.42-14.2,48.5-32.91,72.72,20.37,142.49,9.02,211.28-19.87,34.13,12.73,69.45,24.04,103.98,38.59-20.08,14.49-24.36,34.85-22.05,58.05-32.67-8.52-65.29-17.01-97.73-25.46-1.42-3.45,.17-7.73-4.2-9.52-4.23,.61-4.74,4.09-5.18,7.35-1.09,7.94-.65,15.93-.51,23.9,.64,34.05,.67,68.12,2.15,102.13,1.37,31.41,28.59,59.03,58.94,58.72,.97,0,1.93,.11,3.03,.17,3.78,15.46,5.96,31.14,11.7,46.26-17.18,7.1-34.5,11.32-52.71,9.95-23.7-1.78-46.53-6.59-65.11-22.99-4.72-4.17-8.93-8.92-13.66-13.07-26.64-23.36-57.55-31.44-92.29-25.5-26.75,4.57-49.76,16.18-68.59,36.83-8.15-7.33-16.26-14.61-24.36-21.93-4.19-3.79-8.12-7.91-12.53-11.41-6.1-4.85-7.88-11.22-7.66-18.52,.35-10.91,4.55-20.34,11.32-28.7,13.14-16.23,29.71-26.87,50.42-30.65,4.16-.77,8.24-.11,12.34,.88,4.45,1.07,7.16-.72,7.95-5.14,5.25-29.29,10.47-58.58,15.65-87.88,.6-3.43,.85-6.93,1.35-10.39,.53-3.68,.06-7.01-4.32-7.5-4.19-.47-5.19,2.76-5.61,6.13-1.62,13.04-3.34,26.06-6.26,39.17h0Zm109.16-1.19c5.45-1.24,8.3-5.12,10.13-10.38,4.63-13.33,4.75-27.08,4.33-40.91-.21-6.79-5.38-13.36-12.16-14.36-20.26-3.02-40.61-4.79-61.05-2.02-11.87,1.6-17.65,7.18-20.13,18.9-2.27,10.7-1.73,21.4-.39,32.21,1.07,8.72,5.34,13.63,13.77,15.26,3.1,.61,6.17,1.43,9.3,1.76,15.39,1.61,30.82,2.15,46.28,1.38,3.32-.17,6.65-.45,9.94-1.84h0Z"
     id="path8" />
  <path
     class="h"
     d="M553.09,111.37c-9.63-3.63-19.29-6.53-29.76-7.39-42.04-3.48-77.89,30.36-88.16,58.91-5.58,15.51-7.89,31.02-4.75,46.93,4.35,22.01,18.58,36.94,37.95,46.76,30.99,15.71,61.4,12.73,90.84-4.75,1.84-1.1,3.53-2.49,5.18-3.87,1.52-1.27,2.89-2.73,4.29-4.07,6.28-.65,12.24,.24,18.27,1.81,25.48,6.66,50.46,14.75,74.93,24.49,1.51,.6,2.97,1.32,5.01,2.24-10.15,9.8-20.07,18.99-30.81,27.29-25.07,19.38-51.71,36.72-80.21,50.08-65.3,30.65-133.58,41.88-204.88,24.04-19.26-4.82-37.52-12.55-56.33-20.55,3.97-4.56,7.74-8.86,11.46-13.19,15.41-17.92,20.1-38.19,13.24-60.94-1.48-4.92-3.84-9.49-6.56-14.16,2.79-1.2,5.28-.64,7.66-.81,18.85-1.25,36.61-5.61,50.55-19.35,16.14-15.9,21.4-35.66,18.39-57.65-2.29-16.72-7.69-32.59-18.7-45.62-18.23-21.58-41.82-28.26-69.15-22.64-6.42,1.32-12.81,2.84-19.18,4.88,7.1-8.44,15.21-15.7,23.65-22.59,21.3-17.38,44.33-31.95,70.84-39.87,50.35-15.02,97.97-8.97,142.12,20.24,12.51,8.28,24.23,17.57,34.69,28.38-.2,.46-.4,.93-.6,1.39h-.02Zm-90.55,155.11c-3.37,1.5-4.88,4.37-6.72,6.88-2.32,3.17-5.09,5.68-8.95,6.78-9.31,2.67-22.77-1.72-28.85-9.41-4.61-5.85-7.99-5.74-12.46,.4-8.88,12.17-25.5,11.22-32.6-1.96-1.64-3.05-3.66-5-7.09-3.25-3.39,1.73-3.05,4.73-1.83,7.77,2.6,6.49,7.01,11.19,13.61,13.41,.92,2.67,1.67,5.04,2.54,7.38,4.51,12.04,12.45,21.45,22.57,29.12,5.56,4.21,11.63,4.58,17.82,1.41,3.86-1.99,7.3-4.55,10.02-8.04,4.61-5.92,8.71-12.15,11.85-18.98,2-4.34,4.55-7.63,9.61-9.28,6.94-2.27,11.65-7.54,14.11-14.5,1.19-3.37,1.43-6.69-3.62-7.69v-.02Zm-26.65-126.04c6.21-3.47,12.89-7.45,18.44-13.06,4.33-4.37,9.12-8.13,14.22-11.62,7.11-4.87,15.19-8.21,21.71-13.97,7.83-6.9,6.63-19.31-2.32-24.51-3.9-2.27-8.13-2.97-12.49-2.4-21.25,2.78-45.39,18.04-52.59,43.7-1.53,5.48-.98,10.9,.59,16.2,1.64,5.54,6.42,7.76,12.44,5.66h0Zm-41.43-16.07c-1.92-5.21-4.49-9.9-8.03-13.88-11.65-13.09-25.69-20.55-43.68-16.65-4.82,1.05-10.17,2.5-12.55,7.9-2.89,6.54,1.45,13.74,9.88,15.16,14.5,2.44,26.04,9.36,35,20.93,1.71,2.2,3.82,4.21,6.06,5.87,6.86,5.07,13.7,2.15,14.89-6.26,.64-4.55-.28-8.92-1.57-13.05h0Zm21.35,131.66c5.36-3.55,10.13-8.75,13.31-15.31,2.19-4.51,.62-7.44-4.39-8.13-7.43-1.03-14.91-.3-22.32,.33-4.7,.4-6.78,5.1-4.53,9.15,2.77,4.98,6.5,9.17,10.68,13.01,1.9,1.75,3.99,2.28,7.23,.95h0Z"
     id="path10" />
  <path
     class="e"
     d="M151.02,487.84c-17.68,6.39-33.07,3.36-47.5-6.83-21.37-15.07-40.31-33.06-60.1-50-12.55-10.74-18.01-25.37-18.58-41.5-.38-10.48,4.38-19.25,11.34-27.29,37.04-42.88,73.75-86.06,110.62-129.1,6.37-7.43,12.7-14.91,20.38-21.1,11.1-8.94,23.38-12.47,37.6-9.61,6.26,1.27,11.36,4.11,16.39,7.83,15.54,11.46,30.67,23.49,44.73,36.62,10.84,10.12,23.33,18.78,31.25,31.9,7.92,13.14,9.15,26.35,3.34,40.82-4.52,11.28-13.36,18.91-20.76,27.7-29.43,34.97-59.25,69.6-89,104.29-9.08,10.58-18.31,21.05-28.7,30.41-3.44,3.1-7.48,4.87-11,5.85h-.01Zm25.08-240.01c-1.04,1.06-2.39,2.29-3.58,3.66-33.67,38.75-67.29,77.54-101.01,116.24-3.05,3.5-3.13,6.35,.28,9.38,1.25,1.1,2.43,2.28,3.68,3.38,25.46,22.12,50.95,44.21,76.37,66.37,2.01,1.75,3.95,2.99,7.3,2.12,3.29-3.7,6.97-7.75,10.56-11.88,20.16-23.2,40.29-46.42,60.45-69.62,11-12.67,22.07-25.28,33-38.02,3.34-3.9,3.15-6.93-.25-9.9-26.82-23.34-53.68-46.64-80.48-70.01-1.79-1.56-3.62-2.23-6.32-1.73v.02Zm-60.12,175.57c-5.69-3.94-10.57-9.62-17.04-13.04-2.74,2.64-3.69,5.77-6.54,7.14-3.48-1.75-4.99-6.42-10.04-6.58-6.24,4.57-12.5,9.33-13.73,17.65,1.47,4.17,5.51,5.82,7.1,9.5-1.41,2.13-2.77,4.17-4.06,6.09,2.19,6.2,14,15.13,19.32,14.57,1.44-1.77,2.99-3.65,4.7-5.73,3.05,1.84,5.92,4.07,10.21,2.78,3.64-3.67,7.33-7.86,10.01-11.81,.88-5.21-4.22-6.56-4.7-10.31,1.68-3.14,5.99-4.8,4.78-10.26h0Zm-53.69-5.35c8.46-2.03,16.55-12.27,12.59-24.56-3.07-9.54-14.8-14.72-24.47-11.62-9,2.89-16.01,15.41-12.33,24.46,4.32,10.57,13.37,15.45,24.21,11.73h0ZM193.76,213.12c-9.62,3.33-15.07,14.58-11.73,24.2,3.3,9.46,15,15.4,24.22,12.29,10.3-3.48,15.94-14.56,12.56-24.71-3.35-10.08-14.64-15.38-25.06-11.77h0Zm29.47,33.38c-4.17,4.32-5.15,9.19-2.73,12.68,2.56,3.7,7.85,4.95,12.05,2.86,3.85-1.92,5.43-5.75,4.14-10.08-1.66-5.6-4.13-6.63-13.47-5.46h0Zm23.03-2.6c-4.15,1.28-6.84,6.55-5.52,10.84,1.59,5.18,5.84,7.59,10.76,6.12,4.75-1.42,7.67-6.39,6.38-10.89-1.28-4.49-7.02-7.48-11.62-6.07h0Zm14.65,26.37c-1.58-4.41-6.88-6.99-11.29-5.51-4.07,1.37-6.93,7.27-5.52,11.4,1.45,4.24,7.57,6.94,11.9,5.25,4.05-1.57,6.41-6.94,4.9-11.14h0Zm-27.15,12.63c4.95-1.75,7.19-5.93,5.65-10.52-1.66-4.96-6.58-7.28-11.58-5.49-4.19,1.51-6.85,6.79-5.47,10.85,1.43,4.22,6.97,6.74,11.41,5.17h-.01Zm-2.24,107.42c-1.59-4.62-6.42-7.2-10.65-5.69-4.47,1.59-7.02,6.99-5.4,11.41,1.56,4.25,6.92,6.81,11.03,5.25,4.5-1.71,6.62-6.34,5.02-10.96h0Z"
     id="path12" />
  <path
     class="g"
     d="M665.65,264.73c-32.63-12.88-65.06-24.74-99.52-29.51-9.74,11.52-22.42,16.34-35.49,20.46-17.59,5.55-34.8,3.49-51.68-2.85-11.76-4.41-21.72-11.61-29.56-21.42-13.32-16.68-15.75-35.49-9.21-55.37,7.76-23.58,23.75-40.85,44.13-54.21,12.22-8.01,25.98-8.58,40.22-7.82,20.23,1.06,37.42,9.02,52.38,21.8,8.67,7.41,15.72,16.6,22.5,25.87,10.68,14.61,21.43,29.17,32.26,43.66,12.58,16.82,21.7,35.62,31.23,54.18,.83,1.6,1.68,3.18,2.75,5.2h-.02Zm-173.69-69.01c3.69,10.8,14.12,16.65,23.73,13.31,9.68-3.37,14.81-14.71,11.29-24.99-3.25-9.5-14.44-16.03-22.79-13.34-9.86,3.18-15.65,15.01-12.22,25.01h0Z"
     id="path14" />
  <path
     class="g"
     d="M229.9,190.24c9.29-14.67,18.94-28.56,30.01-41.39,4.39-5.09,10.86-7.47,16.62-10.67,11.45-6.37,24.01-9.83,36.82-11.46,11.84-1.51,23.59,.68,34.19,6.56,18.89,10.47,27.27,27.97,31.98,48.09,3.46,14.79,2.69,29.05-3.85,42.71-7.91,16.49-21.87,25.4-39.19,29.45-8.74,2.05-17.68,2.55-26.68,2.01-3.31-.19-5.83-1.28-8.4-3.53-21.07-18.53-42.31-36.87-63.48-55.3-2.48-2.16-5.74-3.34-8.03-6.47h0Zm99.92,20.46c9.27-3.2,14.11-13.11,10.28-22.63-3.98-9.9-11.6-14.5-21.2-11.53-8.5,2.63-14.25,15.47-11.19,23.92,3.06,8.46,13.41,13.26,22.11,10.24Z"
     id="path16" />
  <path
     class="e"
     d="M708.84,715.95c10.53-13.56,16.2-29.19,19.51-45.81,5.79-29.02,.96-56.89-10.18-83.79-5.1-12.33-11.03-24.37-19.19-35.2,3.04-2.29,5.86-2.15,8.86-1.23,8.25,2.54,16.55,4.92,24.77,7.56,3.02,.97,5.8,1.33,8.64-.55,2.05-2.1,1.69-5.26,3.25-7.97,9.52-.13,17.99,3.17,25.71,8.69,13.07,9.37,24.56,20.41,28.75,36.38,4.43,16.86,3.61,33.99-2.61,50.44-5.41,14.31-11.14,28.55-22.77,39.32-9.96,9.22-21.48,16.05-33.63,21.87-9.76,4.68-19.81,8.49-30.45,10.7-.22-.12-.45-.26-.67-.4h0Z"
     id="path18" />
  <path
     class="h"
     d="M687.54,551.82c8.92,12.32,15.89,25.11,21.47,38.67,11.3,27.46,15.51,55.71,7.89,84.87-4.08,15.59-10.25,30.25-22.58,41.48-1.9,1.73-3.76,3.14-6.45,3.35-22.41,1.84-44.05-1.49-65.52-9.65,1.56-2.64,3.04-5.16,4.78-8.14,10.7,6.73,22.22,7.9,34.18,5.5,8.54-1.71,16.66-4.6,23.85-9.71,7.17-5.1,8.92-10.13,6.16-18.58-4.87-14.88-11.2-29.21-17.43-43.54-5.84-13.4-11.83-26.75-18.42-39.82-1.68-3.34-4.27-5.39-7.2-7.68-.05-9.07-.75-18.15-5.98-27.09,15.45-2.21,30.1-6.13,45.28-9.66h0Z"
     id="path20" />
  <path
     class="e"
     d="M490.65,55.99c36.56-12.83,71.52-25.21,109.37-29.08,10.57,40.04,9.68,79.31,.54,119.73-31.74-36.25-63.65-70.99-109.9-90.65h0Z"
     id="path22" />
  <path
     class="g"
     d="M706.17,486.97c-25.73,9.01-50.14-4.49-57.72-26.19-8.06-23.1,5.13-48.2,27.04-56.3,25.2-9.32,50.54,2.86,58.97,26.63,8.35,23.54-5.84,49.13-28.29,55.87h0Z"
     id="path24" />
  <path
     class="b"
     d="M783.67,385.61c-16.56,54.17-32.94,107.74-49.46,161.81-25.4-7.77-50.45-15.43-75.88-23.2,3.05-9.94,5.95-19.42,8.91-29.08,5.56,2.47,11.06,3.66,16.59,4.77-2.73,12.85-.11,20.33,8.44,24.52,7.86,3.85,16.79,1.99,22.63-4.7,5.91-6.77,5.7-14.68-.87-24.58,14.66-7.12,25.21-18.1,30.13-33.78,4.96-15.79,2.98-30.88-5.66-45.01,10.63-7.72,13.7-14.34,10.85-23.25-2.57-8.05-9.28-13.16-17.4-13.25-8.81-.1-14.93,4.9-18.57,15.22-4.6-1.21-9.22-2.41-14.41-3.77,2.85-9.39,5.72-18.85,8.77-28.88,25.29,7.72,50.36,15.37,75.91,23.17l.02,.02Z"
     id="path26" />
  <path
     class="g"
     d="M283.75,682.85c-14.95-8.07-30.85-14.44-46.33-21.76-14.42-6.82-28.73-13.72-42.24-22.26-3.81-2.41-5.36-5.54-5.44-9.89-.22-13.15,5.83-22.01,18.26-26.58,18.24-6.73,34.43-3.32,49.95,8.3,16.29,12.18,30.18,27.01,45.92,39.74,2.44,1.97,3.07,4.19,2.03,7.46-2.9,9.07-8.91,15.79-15.53,22.17-1.64,1.59-3.74,2.06-6.63,2.81v.02Z"
     id="path28" />
  <path
     class="g"
     d="M682.97,686.69c-13.39,11.86-34.14,15.2-47.5,8.9-5.17-2.44-8.4-6.62-10.83-11.32-6.81-13.19-11.44-27.23-14.95-41.63-1.76-7.24-3.28-14.56-5.17-21.76-1.85-7.04-1.11-9.91,4.77-14.18,9.38-6.8,20.13-9.09,31.48-9.15,1.5,0,2.99,.29,5.11,2.05,13.31,27.99,27.04,56.92,37.09,87.09h0Z"
     id="path30" />
  <path
     class="e"
     d="M361.31,56.59c-39.23,15.56-69.75,41.03-97.49,70.7,2.65-33.28,8.81-65.31,27.11-93.99,25.92,.77,47.92,10.82,70.39,23.29h0Z"
     id="path32" />
  <path
     class="e"
     d="M634.92,562.15c3.6,8.47,5.12,16.32,4.8,24.96-16.66,1.17-31.96,5.19-43.85,18.1-12.31,1.19-23.67-1.2-33.73-10.04,5.65-11.08,8.28-22.65,9.59-34.98,21.21,3.8,42.15,3.8,63.19,1.96h0Z"
     id="path34" />
  <path
     class="g"
     d="M218.39,441.17c19.14-22.04,38.23-44.03,57.32-66.03,11.16,10.17,15.5,35.29,1.84,53.63-13.32,17.87-41.93,24.32-59.16,12.4Z"
     id="path36" />
  <path
     class="e"
     d="M568.52,682.92c14.53-1.23,26.51-7.2,39.62-10.98,3.35,9.03,6.96,17.7,13.03,25.13-1.15,4.18-4.2,7.06-6.48,10.78-16.87-5.21-31.85-13.13-46.16-24.93h0Z"
     id="path38" />
  <path
     class="h"
     d="M541.43,547.61c6.97,4.59,14.17,7.49,21.82,10.31-.26,11.19-2.82,21.71-6.71,32.32-11.81-11.96-16.35-25.92-15.1-42.63h0Z"
     id="path40" />
  <path
     class="d"
     d="M553.69,109.98l1.49,1.72-.15,.34c-.65-.22-1.3-.45-1.95-.67,.2-.46,.4-.92,.6-1.39h0Z"
     id="path46" />
  <path
     class="c"
     d="M709.5,716.34c-.21,.62-.55,1.06-1.31,.92-.43-.76,.32-.94,.65-1.33,.22,.14,.44,.27,.66,.4h0Z"
     id="path48" />
  <path
     class="d"
     d="M555.18,111.69l.81,.47-.23,.37c-.24-.17-.49-.34-.72-.5l.15-.34h0Z"
     id="path50" />
  <path
     class="f"
     d="M459.98,470.16c-3.29,1.4-6.63,1.67-9.94,1.84-15.46,.78-30.9,.23-46.28-1.38-3.13-.33-6.2-1.15-9.3-1.76-8.42-1.64-12.69-6.54-13.77-15.26-1.32-10.82-1.87-21.51,.39-32.21,2.49-11.73,8.27-17.3,20.13-18.9,20.45-2.76,40.8-1,61.05,2.02,6.79,1.01,11.96,7.58,12.16,14.36,.42,13.83,.31,27.58-4.33,40.91-1.83,5.26-4.67,9.13-10.13,10.38h0Zm.38-7.56c1.13-2.76,1.81-4.27,2.38-5.82,4.9-13.13,3.84-26.8,3.52-40.37-.07-3-2.29-4.69-5.3-5-3.3-.34-6.61-.64-9.92-.88-15.7-1.13-31.43-2.72-47.16-.76-5.07,.63-10.5,1.43-12.88,7.04-5.92,13.97-4.54,28.04-.84,43.02,23.44,5.77,46.59,6.23,70.18,2.79h0Z"
     id="path52" />
  <path
     class="f"
     d="M462.53,266.47c5.05,1,4.82,4.32,3.62,7.69-2.45,6.96-7.17,12.23-14.11,14.5-5.06,1.66-7.61,4.95-9.61,9.28-3.14,6.83-7.24,13.06-11.85,18.98-2.72,3.5-6.15,6.06-10.02,8.04-6.18,3.18-12.26,2.8-17.82-1.41-10.12-7.66-18.06-17.08-22.57-29.12-.88-2.33-1.62-4.71-2.54-7.38-6.59-2.22-11-6.92-13.61-13.41-1.22-3.04-1.56-6.05,1.83-7.77,3.44-1.74,5.44,.2,7.09,3.25,7.11,13.18,23.72,14.15,32.6,1.96,4.47-6.13,7.85-6.23,12.46-.4,6.07,7.69,19.53,12.08,28.85,9.41,3.86-1.11,6.62-3.61,8.95-6.78,1.84-2.51,3.35-5.38,6.72-6.88v.02Zm-73.57,22.89c3.71,10.81,10.35,18.27,18.04,25,3.86,3.38,7.72,3.35,11.64,.12,7.64-6.31,11.96-14.79,16.09-23.93-8.73-1.93-16.37-5.25-22.82-11.12-6.06,7.11-13.43,10.29-22.94,9.94h0Z"
     id="path54" />
  <path
     class="f"
     d="M435.88,140.43c-6.03,2.11-10.8-.12-12.44-5.66-1.57-5.3-2.13-10.73-.59-16.2,7.2-25.66,31.33-40.92,52.59-43.7,4.37-.57,8.59,.14,12.49,2.4,8.95,5.2,10.14,17.61,2.32,24.51-6.52,5.76-14.6,9.1-21.71,13.97-5.1,3.49-9.89,7.25-14.22,11.62-5.56,5.6-12.24,9.59-18.44,13.06h0Zm50.78-51.72c-3.52-4.11-5.85-5.18-11.38-4.2-24.12,4.25-38.06,19.85-45.1,39.64-1.09,3.05-.98,6.26,2.3,8.66,4.62-.61,8.1-3.32,11.05-6.79,10.7-12.56,23.57-22.24,38.57-29.11,3.32-1.53,5.43-3.79,4.56-8.21h0Z"
     id="path56" />
  <path
     class="f"
     d="M394.44,124.35c1.3,4.13,2.22,8.5,1.57,13.05-1.2,8.41-8.03,11.34-14.89,6.26-2.24-1.66-4.35-3.66-6.06-5.87-8.95-11.57-20.49-18.48-35-20.93-8.43-1.42-12.77-8.62-9.88-15.16,2.38-5.4,7.74-6.85,12.55-7.9,18-3.9,32.04,3.55,43.68,16.65,3.54,3.98,6.11,8.67,8.03,13.88h0Zm-56.18-18.38c.74,.73,1.03,1.23,1.44,1.38,1.56,.53,3.15,.99,4.75,1.4,12.47,3.2,23.78,8.36,32.02,18.81,2.15,2.73,4.51,5.29,6.9,7.81,1.18,1.24,2.19,3,4.38,2.64,1.47-5.94,.28-11.71-4.48-18.69-8.63-12.64-20.2-19.96-36.05-18.69-3.55,.28-7.25,1.02-8.97,5.34h.01Z"
     id="path58" />
  <path
     class="f"
     d="M415.8,256.03c-3.24,1.33-5.33,.79-7.23-.95-4.19-3.84-7.91-8.03-10.68-13.01-2.26-4.05-.18-8.75,4.53-9.15,7.41-.63,14.89-1.36,22.32-.33,5.01,.7,6.58,3.63,4.39,8.13-3.18,6.55-7.95,11.76-13.31,15.31h0Z"
     id="path60" />
  <path
     class="f"
     d="M176.1,247.84c2.69-.5,4.52,.17,6.32,1.73,26.8,23.37,53.66,46.66,80.48,70.01,3.4,2.96,3.59,6,.25,9.9-10.93,12.73-22,25.34-33,38.02-20.15,23.21-40.28,46.42-60.45,69.62-3.59,4.13-7.26,8.18-10.56,11.88-3.36,.87-5.3-.37-7.3-2.12-25.43-22.16-50.91-44.26-76.37-66.37-1.25-1.09-2.43-2.27-3.68-3.38-3.43-3.04-3.34-5.88-.28-9.38,33.73-38.7,67.35-77.49,101.01-116.24,1.19-1.37,2.54-2.6,3.58-3.66v-.02Zm2.73,11.84c-32.76,37.68-65.07,74.85-97.69,112.38,25.14,21.83,49.88,43.33,75.09,65.22,32.8-37.74,65.01-74.79,97.63-112.3-24.99-21.75-49.64-43.2-75.02-65.29h0Z"
     id="path62" />
  <path
     class="f"
     d="M115.97,423.41c1.21,5.46-3.1,7.12-4.78,10.26,.49,3.75,5.58,5.1,4.7,10.31-2.68,3.95-6.36,8.15-10.01,11.81-4.29,1.3-7.16-.94-10.21-2.78-1.71,2.08-3.25,3.98-4.7,5.73-5.33,.55-17.14-8.39-19.32-14.57,1.27-1.92,2.64-3.97,4.06-6.09-1.59-3.67-5.63-5.33-7.1-9.5,1.23-8.32,7.49-13.08,13.73-17.65,5.05,.16,6.56,4.84,10.04,6.58,2.85-1.37,3.8-4.5,6.54-7.14,6.48,3.42,11.35,9.1,17.04,13.04h0Zm-7.41,2.11c-2.91-2.45-5.64-4.73-8.26-6.94-3.07,2.03-3.93,6.07-7.93,6.26-3.64-1.81-6.26-5.26-10.23-6.7-2.22,2.71-4.3,5.24-6.28,7.68,2.88,3.92,9.02,4.9,8.47,10.82-1.61,2.68-4.43,3.98-5.43,6.83l8.94,7.79c3.67-.92,4.24-5.62,8.6-5.51,1.72,1.64,3.59,3.42,5.73,5.45,2.65-3.47,5.93-6.01,7.73-9.65-2.47-2.76-7.23-3.24-6.74-8.35,1.68-2.39,3.48-4.94,5.42-7.69h-.02Z"
     id="path64" />
  <path
     class="f"
     d="M62.28,418.05c-10.84,3.72-19.89-1.16-24.21-11.73-3.69-9.04,3.33-21.57,12.33-24.46,9.67-3.11,21.39,2.08,24.47,11.62,3.96,12.3-4.13,22.52-12.59,24.56h0Zm5.61-21.28c-2.31-6.68-9.38-10.1-16.12-7.79-6.48,2.21-9.91,9.23-7.7,15.7,2.24,6.51,9.47,9.94,16.19,7.67,6.65-2.25,9.93-8.94,7.63-15.58Z"
     id="path66" />
  <path
     class="f"
     d="M193.76,213.12c10.42-3.61,21.7,1.7,25.06,11.77,3.38,10.14-2.26,21.23-12.56,24.71-9.22,3.11-20.93-2.83-24.22-12.29-3.35-9.61,2.1-20.86,11.73-24.2h0Zm-6.06,22.54c2.22,6.55,9.25,9.76,16.23,7.43,6.39-2.14,10.16-9.31,8.19-15.55-1.98-6.28-9.28-9.99-15.61-7.94-6.92,2.24-11,9.68-8.82,16.07h0Z"
     id="path68" />
  <path
     class="f"
     d="M223.22,246.52c9.34-1.17,11.82-.14,13.47,5.46,1.28,4.33-.3,8.17-4.14,10.08-4.2,2.09-9.49,.83-12.05-2.86-2.43-3.49-1.44-8.35,2.73-12.68h0Zm4.43,2.45c-2.56,1.77-4.8,3.48-3.51,6.92,.83,2.24,2.7,2.84,4.83,2.49,2.15-.35,3.69-1.65,3.82-3.94,.16-3.22-1.9-4.68-5.14-5.49h0Z"
     id="path70" />
  <path
     class="f"
     d="M246.25,243.92c4.6-1.41,10.34,1.58,11.62,6.07,1.28,4.5-1.64,9.47-6.38,10.89-4.93,1.47-9.16-.94-10.76-6.12-1.32-4.28,1.37-9.56,5.52-10.84h0Zm7.31,6.95c-1.09-2.13-2.79-3.76-5.7-2.74-2.7,.95-3.96,2.98-3.09,5.78,.91,2.93,3.4,3.52,5.96,2.74,2.49-.76,3.48-2.8,2.83-5.79h0Z"
     id="path72" />
  <path
     class="f"
     d="M260.91,270.28c1.51,4.2-.86,9.56-4.9,11.14-4.33,1.68-10.46-1.02-11.9-5.25-1.41-4.12,1.46-10.02,5.52-11.4,4.41-1.49,9.71,1.1,11.29,5.51h0Zm-10.34-.75c-2.32,1.06-3.69,3.01-2.68,5.78,.99,2.74,3.28,3.59,5.99,2.69,2.85-.95,3.77-3.23,2.86-5.88s-3.04-3.74-6.18-2.58h0Z"
     id="path74" />
  <path
     class="f"
     d="M233.76,282.92c-4.44,1.57-9.98-.94-11.41-5.17-1.38-4.06,1.3-9.35,5.47-10.85,5-1.79,9.92,.54,11.58,5.49,1.55,4.59-.7,8.78-5.65,10.52h.01Zm-4.25-12.43c-2.53,1.25-3.88,3.41-3.08,6.03,.85,2.8,3.24,3.55,6,2.59,2.6-.9,3.71-2.96,2.94-5.44-.83-2.65-2.94-3.83-5.84-3.18h0Z"
     id="path76" />
  <path
     class="f"
     d="M231.51,390.34c1.59,4.62-.52,9.26-5.02,10.96-4.11,1.55-9.47-1-11.03-5.25-1.62-4.42,.92-9.82,5.4-11.41,4.22-1.51,9.06,1.08,10.65,5.69h0Zm-6.34,7.32c2.55-1.33,3.93-3.35,2.97-6.11-.93-2.68-3.23-3.97-5.95-3.07-2.89,.96-4.15,3.26-3.07,6.31,1.03,2.94,3.43,3.24,6.06,2.86h0Z"
     id="path78" />
  <path
     class="f"
     d="M491.96,195.7c-3.42-9.99,2.37-21.82,12.22-25.01,8.36-2.7,19.53,3.84,22.79,13.34,3.52,10.27-1.61,21.61-11.29,24.99-9.61,3.34-20.03-2.52-23.73-13.31h0Z"
     id="path80" />
  <path
     class="f"
     d="M329.82,210.71c-8.7,3.01-19.05-1.78-22.11-10.24-3.05-8.44,2.7-21.28,11.19-23.92,9.59-2.98,17.22,1.62,21.2,11.53,3.83,9.52-1.02,19.42-10.28,22.63Z"
     id="path82" />
  <path
     class="e"
     d="M460.36,462.6c-23.6,3.44-46.74,2.99-70.18-2.79-3.7-14.97-5.07-29.05,.84-43.02,2.37-5.61,7.8-6.4,12.88-7.04,15.73-1.95,31.45-.37,47.16,.76,3.31,.24,6.61,.54,9.92,.88,3.01,.32,5.23,2,5.3,5,.33,13.57,1.39,27.24-3.52,40.37-.58,1.55-1.25,3.06-2.38,5.82h0Zm-24.36-19.01c1.89-2.35,4.5-2.79,7.11-3.27,5.94-1.09,10.69-5.76,11.67-11.43,.82-4.66-1.89-9.43-7.14-12.63-3.28-1.99-6.88-2.35-10.57-2.05-5.41,.42-6.72,3.1-3.82,8.18,4.11,1.77,11.14-2.31,12.8,5.4-2.61,6.55-8.61,2.84-12.57,4.47-3.78,5.53-3.13,9.02,2.53,11.34h0Zm-32.79-25.88c-.64,7.77-5.31,15.94-.54,24.5,4.56-1.54,8.5-13.25,8.32-22.2-.05-2.38-1.27-3.59-3.32-4.45-1.3,.07-2.55,.38-4.45,2.16h0Zm29.28,39.53c2.83,1.18,5.51,1.47,7.26-1.68,1.11-2,.43-3.98-1.19-5.33-1.86-1.56-4.14-1.41-5.94,.07-2.54,2.1-2.14,4.54-.13,6.94h0Zm-30.36-.47c2.96,.16,5.19-.7,5.68-3.7,.35-2.09-.45-3.98-2.53-4.93-2.55-1.16-4.47-.31-5.82,2.12-.14,2.43,.42,4.56,2.66,6.52h0Z"
     id="path84" />
  <path
     class="b"
     d="M388.96,289.37c9.52,.35,16.9-2.84,22.94-9.94,6.45,5.87,14.08,9.17,22.82,11.12-4.12,9.14-8.44,17.62-16.09,23.93-3.92,3.23-7.79,3.26-11.64-.12-7.69-6.72-14.33-14.19-18.04-25h0Z"
     id="path86" />
  <path
     class="i"
     d="M486.65,88.71c.87,4.43-1.25,6.69-4.56,8.21-14.99,6.87-27.86,16.55-38.57,29.11-2.95,3.47-6.43,6.18-11.05,6.79-3.27-2.41-3.38-5.63-2.3-8.66,7.04-19.79,20.99-35.39,45.1-39.64,5.52-.97,7.86,.1,11.38,4.2h0Z"
     id="path88" />
  <path
     class="i"
     d="M338.27,105.96c1.71-4.33,5.42-5.06,8.97-5.34,15.84-1.27,27.41,6.05,36.05,18.69,4.77,6.99,5.94,12.75,4.48,18.69-2.19,.36-3.2-1.39-4.38-2.64-2.39-2.52-4.76-5.09-6.9-7.81-8.24-10.45-19.55-15.61-32.02-18.81-1.6-.41-3.2-.87-4.75-1.4-.42-.14-.7-.65-1.44-1.38h-.01Z"
     id="path90" />
  <path
     class="g"
     d="M178.83,259.66c25.38,22.09,50.03,43.54,75.02,65.29-32.61,37.51-64.82,74.57-97.63,112.3-25.2-21.89-49.96-43.39-75.09-65.22,32.62-37.52,64.93-74.7,97.69-112.38h0Zm-12.09,108.83c11.3-4.83,16.89-14.11,15.1-24.51-1.51-8.85-8.9-16.15-17.41-16.71-9.89-.66-21.07,5.66-23.96,18.33-6.83,2.24-7.64,5.69-2.47,10.5,1.22,1.14,2.41,2.28,3.58,3.48,11.37,11.72,25.06,20.8,36.71,32.2,1.84,1.8,4.17,2.25,6.35,.55,2.38-1.88,2.31-4.36,.81-6.7-.96-1.51-2.24-2.89-3.59-4.08-4.84-4.28-9.76-8.45-15.1-13.04h-.02Zm8.26-52.08c2.33-4.5-.6-5.91-2.89-7.21-8.9-5.07-26.92-2.03-33.91,5.61-1.86,2.03-2.95,4.15,.88,6.56,10.72-8.4,22.75-11.91,35.93-4.95h-.01Zm-32.66,12.21c5.75-1.41,10.36-4.48,15.78-5.41,5.34-.93,10.67,2.33,15.96-.06-1.88-5.7-7.72-7.24-18.65-5.37-8.65,1.49-13.19,4.9-13.08,10.84h0Z"
     id="path92" />
  <path
     class="i"
     d="M108.56,425.53c-1.94,2.75-3.73,5.29-5.42,7.69-.49,5.11,4.26,5.59,6.74,8.35-1.8,3.65-5.07,6.18-7.73,9.65-2.14-2.03-4-3.82-5.73-5.45-4.36-.11-4.92,4.59-8.6,5.51l-8.94-7.79c1.01-2.84,3.84-4.16,5.43-6.83,.55-5.92-5.58-6.91-8.47-10.82,1.99-2.43,4.07-4.96,6.28-7.68,3.97,1.45,6.59,4.89,10.23,6.7,4.01-.18,4.87-4.24,7.93-6.26,2.62,2.21,5.35,4.49,8.26,6.94h.02Z"
     id="path94" />
  <path
     class="i"
     d="M67.89,396.76c2.29,6.63-.98,13.34-7.63,15.58-6.73,2.27-13.95-1.15-16.19-7.67-2.23-6.47,1.22-13.48,7.7-15.7,6.75-2.3,13.81,1.1,16.12,7.79Z"
     id="path96" />
  <path
     class="i"
     d="M187.68,235.65c-2.17-6.39,1.91-13.83,8.82-16.07,6.33-2.05,13.62,1.67,15.61,7.94,1.97,6.25-1.8,13.42-8.19,15.55-6.98,2.33-14-.88-16.23-7.43h0Z"
     id="path98" />
  <path
     class="i"
     d="M227.65,248.94c3.24,.81,5.3,2.27,5.14,5.49-.11,2.28-1.66,3.59-3.82,3.94-2.12,.34-3.99-.25-4.83-2.49-1.29-3.44,.95-5.15,3.51-6.92h0Z"
     id="path100" />
  <path
     class="i"
     d="M253.57,250.86c.64,2.97-.35,5.02-2.83,5.79-2.55,.78-5.04,.19-5.96-2.74-.87-2.8,.39-4.84,3.09-5.78,2.92-1.02,4.61,.61,5.7,2.74h0Z"
     id="path102" />
  <path
     class="i"
     d="M250.56,269.53c3.13-1.15,5.25-.12,6.18,2.58s-.01,4.93-2.86,5.88c-2.71,.9-5.01,.05-5.99-2.69-1.01-2.77,.36-4.73,2.68-5.78h0Z"
     id="path104" />
  <path
     class="i"
     d="M229.51,270.48c2.91-.65,5.03,.53,5.84,3.18,.77,2.48-.34,4.54-2.94,5.44-2.76,.95-5.15,.21-6-2.59-.79-2.63,.55-4.78,3.08-6.03h0Z"
     id="path106" />
  <path
     class="i"
     d="M225.18,397.66c-2.63,.38-5.03,.08-6.06-2.86-1.07-3.06,.17-5.36,3.07-6.31,2.73-.91,5.02,.39,5.95,3.07,.96,2.77-.42,4.78-2.97,6.11h0Z"
     id="path108" />
  <path
     class="b"
     d="M436.01,443.57c-5.66-2.32-6.31-5.8-2.53-11.34,3.97-1.64,9.97,2.08,12.57-4.47-1.66-7.71-8.69-3.62-12.8-5.4-2.89-5.09-1.58-7.75,3.82-8.18,3.7-.29,7.3,.06,10.57,2.05,5.25,3.2,7.96,7.97,7.14,12.63-.99,5.67-5.74,10.34-11.67,11.43-2.62,.48-5.22,.92-7.11,3.27h0Z"
     id="path110" />
  <path
     class="b"
     d="M403.2,417.68c1.91-1.78,3.15-2.08,4.45-2.16,2.05,.86,3.27,2.07,3.32,4.45,.18,8.95-3.76,20.66-8.32,22.2-4.77-8.56-.1-16.73,.54-24.5h0Z"
     id="path112" />
  <path
     class="b"
     d="M432.49,457.22c-2.01-2.4-2.42-4.84,.13-6.94,1.79-1.49,4.07-1.62,5.94-.07,1.62,1.36,2.31,3.33,1.19,5.33-1.75,3.15-4.43,2.87-7.26,1.68h0Z"
     id="path114" />
  <path
     class="b"
     d="M402.13,456.74c-2.24-1.96-2.8-4.09-2.66-6.52,1.35-2.43,3.26-3.27,5.82-2.12,2.09,.95,2.88,2.85,2.53,4.93-.51,3.01-2.72,3.87-5.68,3.7h0Z"
     id="path116" />
  <path
     class="i"
     d="M166.75,368.51c5.34,4.59,10.26,8.77,15.1,13.04,1.35,1.19,2.63,2.56,3.59,4.08,1.49,2.34,1.57,4.82-.81,6.7-2.17,1.71-4.51,1.25-6.35-.55-11.65-11.41-25.34-20.48-36.71-32.2-1.16-1.19-2.36-2.34-3.58-3.48-5.17-4.81-4.36-8.25,2.47-10.5,2.88-12.68,14.06-18.98,23.96-18.33,8.51,.56,15.9,7.87,17.41,16.71,1.79,10.41-3.81,19.68-15.1,24.51h.02Zm-5.97-8.95c8.31-2.18,11.97-6.46,11.31-13.23-.47-4.74-4.66-9.05-8.99-9.22-4.93-.19-11.3,4.37-12.19,8.73-1.1,5.38,2.79,10.79,9.88,13.72Z"
     id="path118" />
  <path
     class="i"
     d="M175,316.42c-13.17-6.95-25.19-3.45-35.93,4.95-3.83-2.42-2.75-4.53-.88-6.56,7-7.63,25.01-10.67,33.91-5.61,2.3,1.3,5.22,2.71,2.89,7.21h.01Z"
     id="path120" />
  <path
     class="i"
     d="M142.34,328.64c-.11-5.94,4.44-9.35,13.08-10.84,10.94-1.87,16.78-.33,18.65,5.37-5.29,2.39-10.63-.87-15.96,.06-5.42,.94-10.02,4.01-15.78,5.41h0Z"
     id="path122" />
  <path
     class="g"
     d="M160.77,359.54c-7.08-2.93-10.97-8.34-9.88-13.72,.9-4.37,7.26-8.92,12.19-8.73,4.33,.17,8.53,4.48,8.99,9.22,.66,6.77-2.99,11.06-11.31,13.23Z"
     id="path124" />
</svg>
