<?xml version="1.0" encoding="utf-8"?>
<!-- Generator: Adobe Illustrator 22.1.0, SVG Export Plug-In . SVG Version: 6.00 Build 0)  -->
<svg version="1.1" id="Layer_1" xmlns="http://www.w3.org/2000/svg" xmlns:xlink="http://www.w3.org/1999/xlink" x="0px" y="0px"
	 viewBox="0 0 25 25" style="enable-background:new 0 0 25 25;" xml:space="preserve">
<style type="text/css">
	.st0{fill:#673DB6;}
	.st1{fill:#333960;}
	.st2{fill:#FFFFFF;}
</style>
<g>
	<path class="st0" d="M7,23.5c-3,0-5.5-2.5-5.5-5.5V7C1.5,4,4,1.5,7,1.5h11c3,0,5.5,2.5,5.5,5.5v11c0,3-2.5,5.5-5.5,5.5H7z"/>
	<path class="st1" d="M18,2c2.8,0,5,2.3,5,5v11c0,2.8-2.3,5-5,5H7c-2.8,0-5-2.3-5-5V7c0-2.8,2.3-5,5-5H18 M18,1H7C3.7,1,1,3.7,1,7
		v11c0,3.3,2.7,6,6,6h11c3.3,0,6-2.7,6-6V7C24,3.7,21.3,1,18,1L18,1z"/>
</g>
<path class="st2" d="M5.4,12.1h14.3c0.5,0,0.8,0.4,0.8,0.8v0c0,0.5-0.4,0.8-0.8,0.8H5.4c-0.5,0-0.8-0.4-0.8-0.8v0
	C4.5,12.5,4.9,12.1,5.4,12.1z"/>
<path class="st2" d="M5.4,7h14.3c0.5,0,0.8,0.4,0.8,0.8v0c0,0.5-0.4,0.8-0.8,0.8H5.4c-0.5,0-0.8-0.4-0.8-0.8v0C4.5,7.4,4.9,7,5.4,7z
	"/>
<path class="st2" d="M5.4,17.1h14.3c0.5,0,0.8,0.4,0.8,0.8v0c0,0.5-0.4,0.8-0.8,0.8H5.4c-0.5,0-0.8-0.4-0.8-0.8v0
	C4.5,17.5,4.9,17.1,5.4,17.1z"/>
</svg>
