<?xml version="1.0" encoding="utf-8"?>
<svg viewBox="28.713 149.985 234.949 228.016" width="234.949" height="228.016" xmlns="http://www.w3.org/2000/svg">
  <g transform="matrix(1, 0, 0, 1, -355.570745, 80.100473)">
    <path class="st1" d="M586,130c0,0.4,0.1,0.8,0.1,1.1c0.1,0.9,0.8,1.4,1.6,1c0.9-0.4,1.1,0,1.2,0.7c0.1,0.7,0.4,0.9,1.1,0.6 c0.2-0.1,0.5-0.1,0.5,0c0.4,1.2,1.8,1.5,2.3,2.6c0.1,0.3,0.4,0.6,0.6,0.9c0.2,0.3,0.5,3.2,0.4,3.6c-0.3,0.7-0.6,1.4,0,2.1 c0.2,0.2-0.3,2.1-0.6,2.2c-1,0.2-1,1.3-1.7,1.8c-0.1,0.1-0.2,0.5-0.1,0.5c0.9,0.5,0.5,1,0.2,1.6c-0.2,0.5,0.3,0.7,0.7,0.6 c0.8-0.2,1.1,0.1,1.2,0.9c0.1,0.8,0.9,1.1,1.3,1.8c0.2,0.5,0.2,0.8,0,1.2c0.7,0.1,1.6-0.2,1.4,1c1.3,0.7,1.1,2.5,2.4,3.5 c0.9,0.7,1.8,1.8,1.6,3.3c0,0.3,0.1,0.3,0.3,0.5c1.2,0.6,1.4,1.4,0.8,2.7c1.2,0.4,2.2,1.9,2.1,3.2c0,0.2-0.1,0.4,0.1,0.5 c1.5,0.7,1.6,2.2,2.1,3.5c0.4,0.9,0.6,1.9,1.2,2.7c0.2,0.3,0.4,0.6,0.3,1c-0.1,0.3-0.1,0.6,0.3,0.7c0.2,0,0.4,0.3,0.4,0.3 c-0.6,1.1,0.7,1.5,0.8,2.3c0,0.2,0.2,0.4,0.1,0.6c-0.4,0.4-0.4,0.7,0.3,0.7c0.1,0,0.1,0.1,0.2,0.1c0.2,0.1,0.4,0.4,0.3,0.5 c-0.6,1,1.3,1.5,0.5,2.6c-0.1,0.1-0.1,0.2-0.2,0.3c1.3,0.3,0.3,1.6,0.9,2.3c0.8,0.9,0.4,2.2-0.7,2.7c-0.3,0.2-0.4,0.2-0.3,0.6 c0,0.1,0.1,0.4,0,0.4c-1.5,0.8-1.2,2.7-2.3,3.8c-0.4,0.4-0.7,1-1.4,1.1c-0.1,0-0.3,0.1-0.2,0.2c0.1,1.7-1.7,2.1-2.4,3.2 c-0.9,1.3-2.2,2.8-3.9,3.4c-0.4,0.1-0.4,0.8-0.9,1c-0.4,0.2-0.7,0.4-1.1,0.4c-0.6,0-0.9,0.1-0.9,0.8c-0.1,0.8-1,1.1-1.8,1.2 c-0.1,0-0.2,0-0.3-0.1c-0.2,1.1-1.4,1-1.9,1.6c-0.3,0.3-0.6,0.5-1,0.7c-0.8,0.3-1.4,0.8-2,1.2c-0.6,0.5-1.3,1.3-2.3,1.2 c-0.1,0-0.3,0-0.3,0.1c-0.5,1.1-1.8,1.2-2.5,2c-0.5,0.5-1,0.4-1.5,0.7c-0.6,0.4-1.3,0.7-2,1.2c-1.3,0.9-2.8,1.3-4.1,2.3 c-0.8,0.6-1.9,1-2.9,1.6c-1.2,0.8-2.6,1.3-3.9,2.1c-0.9,0.6-1.9,0.5-2.8,0.9c-0.6,0.3-1.2,0.4-1.4,1.1c0,0.2-3.4,1.9-3.5,1.8 c-1-0.7-1.3,0.1-1.9,0.7c-1,1-2.2,1.8-3.7,2c-0.7,0.1-1.3,0.5-2.1,0.4c-0.3,0-0.4,0.1-0.4,0.4c0.2,0.9-0.5,1.2-1.1,1.5 c-0.8,0.3-1.8,0.3-2.3,0.7c-1,0.8-2.3,0.7-3.2,1.5c-0.4,0.4-0.7,0.7-1.3,0.8c-0.8,0.1,0,1.1-0.7,1.5c1.2,0,1.9,0.3,1.5,1.5 c0,0.2-0.1,0.3,0.1,0.4c1.4,0.5,1.5,2.1,2.4,3c1.3,1.2,1.8,2.9,3,4.1c0.1,0.1,0.3,0.3,0.3,0.4c-0.3,1.2,0.9,1.5,1.4,2.2 c1,1.3,2.2,2.5,2.5,4.2c0,0.3,0.3,0.7,0.8,0.8c-0.1-1.3,0.8-1.9,1.7-2.4c0.6-0.3,0.8-0.6,0.7-1.2c-0.2-0.7,0-1.2,0.9-1.1 c0.8,0,0.8-0.6,0.8-1.2c0-1.4,0.3-1.7,1.8-1.8c-0.2-0.6-0.2-0.9,0.5-1.2c0.5-0.2,0.5-1,1.1-1.4c1.4-0.9,2.6-2,4-3.1 c0,0,0.1-0.1,0.1-0.1c1.6,0.4,1.9-1.6,3.3-1.7c0.2,0,0.4-0.1,0.5-0.1c0.7,0.2,1-0.2,1.4-0.6c0.5-0.5,1.2-1,2.1-0.8 c0.1,0,0.3,0,0.4,0.1c0.2-1.2,1.4-0.6,2-1.1c0.3-0.3,0.9-0.6,1.5-0.2c0.1,0.1,0.4,0.1,0.4,0.1c0.8-1.2,2-0.3,3-0.7 c0.5-0.2,1.3-0.7,1.9,0.1c0.1,0.1,1-0.3,1.5-0.3c1.2,0,2.5-0.3,3.6,0.2c0.8,0.4,1.9,0.2,2.5,1.1c0,0,0.2,0.1,0.2,0 c0.6-0.4,1.2-0.6,1.6,0.2c0.9-0.5,1.6,0.5,2.4,0.5c0.1,0,0.3,0,0.3,0c0.9,1.5,2.6,1.1,3.8,1.7c0.6,0.2,0.6,0.8,0.8,1.3 c0.3,0.7,0.6,1.2,1.5,0.7c0.8-0.4,1.4-0.1,2,0.6c0.8,1,2,1.6,3.2,2.2c0.2,0.1,0.6,0.2,0.6,0.3c0,1.5,1.5,1.8,2.3,2.7 c0.3,0.3,0.4,0.6,0.6,0.9c0.3,0.7,0,1.6,1.3,1.8c0.6,0.1,1,1.5,0.8,2.5c-0.1,0.4-0.1,0.6,0.4,0.7c0.9,0.2,1.1,1.1,1.1,1.8 c0,0.5,0.1,0.8,0.4,1.2c0.7,0.8,0.8,1.6-0.2,2.4c0.9,0.3,1.7,0.5,1.4,1.8c-0.1,0.5,0.3,1.3,0.5,2c0.2,0.8-0.1,1.7,0.5,2.5 c0.2,0.3,0,0.5-0.3,0.7c-1,0.6-0.6,1.2,0.1,1.8c0.5,0.4,0.8,0.8,0.2,1.2c-0.9,0.5-0.2,1.1,0,1.4c0.3,0.6,0.4,1-0.2,1.3 c-0.3,0.2-0.3,0.4-0.1,0.6c0.7,0.7,0.6,1.5,0.3,2.3c-0.2,0.5,0.4,1.1,0.1,1.7c-0.5,1.1,0.2,2.3-0.3,3.5c-0.3,0.8-0.2,2-0.1,3.1 c0.1,0.7-0.1,1.2-0.3,1.8c-0.5,1.8-1.3,3.6-1.5,5.5c-0.2,1.6-1,2.9-1.4,4.4c-0.2,0.8-0.3,1.4-1,1.8c0,0-0.1,0.1,0,0.2 c0.1,1.1,0,2-1.5,1.8c-0.3,0-0.1,0.4-0.1,0.5c0.4,0.8,0.3,1.5-0.6,1.8c-0.2,0.1-0.4,0.2-0.3,0.4c0.6,0.8,0.3,1.9,0.8,2.8 c-1.9,0-3.7,0-5.6,0c-0.2-0.2-0.5-0.4-0.6-0.7c-0.3-2.3-1.9-4-3.1-5.8c-0.7-1.1-1.6-2.2-2.4-3.2c-1.2-1.4-2.7-2.3-3.9-3.5 c-1.8-1.7-4.3-1.9-6.2-3.4c-0.8-0.6-1.9-0.7-2.9-0.7c-1.3-0.1-2.5-0.2-3.8-0.5c-0.9-0.2-1.8,0.1-2.7,0.1c-1.2,0-2.4,0.5-3.6-0.1 c-0.4-0.2-0.7,0.2-1,0.4c-0.3,0.1-0.7,0.2-0.9,0.4c-1.9,0.4-3.7,1.1-5.4,1.9c-2,1-3.7,2.3-5.6,3.4c-0.6,0.4-1,0.9-1.4,1.5 c-0.5,0.8-1.1,1.5-2,2c-0.9,0.5-1.2,1.5-1.7,2.3c-0.9,1.5-2,3.1-2.3,4.9c-0.1,0.5-0.5,0.9-1,1c-1.4,0-2.8,0-4.2,0 c-0.6,0-1-0.4-0.8-0.8c0.5-1.2-0.4-1.9-0.8-2.9c-0.4-1.1-0.9-2-2-2.6c-0.6-0.3-0.5-1-0.4-1.7c-0.5,0.1-0.8,0.2-0.7,0.8 c0.2,1-0.3,2-0.5,2.9c-0.2,0.7-0.2,1.3-0.4,2.1c-0.7,1.8-0.9,2.1-2.7,2.1c-0.4,0-0.8,0-1.2,0c0-1.5,0.3-3,0.1-4.4 c-0.3-2.5,0.4-5,0.1-7.4c-0.3-1.8,0-3.7-0.4-5.5c0-0.1,0-0.2,0-0.3c0.4-2.8-0.6-5.5-1-8.2c-0.1-0.5-0.2-0.9,0.1-1.3 c0.4-0.6,0.4-1.1-0.3-1.5c-0.4-0.3-0.7-0.7-0.6-1.1c0.3-1.4-0.6-2.4-0.8-3.7c-0.2-1-0.6-2-0.5-3c0.1-0.3-0.1-0.6-0.3-0.8 c-0.5-0.3-0.7-0.9-0.7-1.4c0-2-1.4-3.7-1.4-5.7c-0.9-1-0.3-2.6-1.5-3.5c-0.6-0.4-0.4-1.4-0.8-2.1c0,0,0-0.1,0-0.1 c0-0.3,2.3-2.7,2.5-2.7c0.8,0,1.3,0.3,1.7,1.1c1.2,2.1,2,4.5,3.3,6.6c0.1,0.1,0.2,0.2,0.1,0.3c-0.4,2,1.3,3.5,1.5,5.3 c0.2,2.2,1.6,4.2,1.6,6.6c0,0.7,0.5,1.5,0.7,2.2c0.1,0.5,0.3,1,0,1.5c-0.1,0.2-0.2,0.3,0,0.5c1,1.1,1,2.4,0.7,3.7 c-0.1,0.2-0.1,0.4,0,0.7c0.8,2.1,0.6,4.4,0.8,6.6c0,0.2-0.1,0.4,0.1,0.5c1,1,1.3,2.5,2.4,3.3c0.1,0.1,0.2,0.1,0.2,0.2 c0.4,1.4,1.8,2.1,2.1,3.5c0.2,0.8,1.1,1.1,1.5,1.8c0.2,0.3,0.6,0.1,0.8-0.3c0.9-1.5,2.2-2.6,3.1-4c0.9-1.4,2.4-2.5,3.8-3.5 c0.7-0.5,1.4-1.2,2.1-1.7c1.9-1.4,4.1-2.3,6.3-3.3c0.3-0.2,0.7-0.3,1-0.5c0.7-0.5,0.8-1,0.1-1.4c-0.6-0.4-0.9-0.9-1.1-1.5 c-0.1-0.3-0.3-0.6-0.6-0.7c-0.5-0.2-0.8-0.7-0.9-1.2c-0.1-0.5-0.5-0.8-0.9-1.1c-0.8-0.6-1.4-1.4-1.5-2.4c0-0.2-0.1-0.5-0.3-0.6 c-1.3-0.6-1.7-2.2-2.7-3c-1.2-1.1-1.9-2.4-2.8-3.7c-0.5-0.7-1.4-1.1-1.9-1.9c-0.3-0.6-0.8-1-0.7-1.7c0-0.3-0.1-0.6-0.4-0.8 c-1.2-0.8-2.1-1.8-2.9-3c-0.9-1.5-2.1-2.8-3.1-4.3c-0.9-1.3-1.7-2.5-2.7-3.6c-0.1-0.1,0,0-0.1-0.1c-0.6-2.2-2.7-3.4-3.5-5.5 c-0.9-2.2-2.9-3.8-3.9-6c-0.1-0.3-0.4-0.4-0.7-0.2c-0.4,0.2-0.9,0.3-1.2,0.6c-0.2,0.2-0.5,0.5-0.7,0.5c-1.4-0.1-2.3,1-3.5,1.3 c-1.3,0.3-2.6,0.5-3.9,0.7c-1,0.2-1.9,0.8-3,0.5c-0.1,0,0-0.1-0.1,0c-2.5,1.6-5.4,1.1-8.1,1.6c-1.5,0.3-2.9,0.3-4.3,0 c-0.7-0.1-1.4,0.1-2.1,0.2c-1,0.2-2,0.4-3,0.1c-1.6-0.4-3.2,0.3-4.8,0c-2.4-0.4-4.9,0.5-7.2-0.3c-1.2-0.4-2.4,0.3-3.6,0.1 c-0.6-0.1-1.2,0-1.8-0.2c-1.2-0.4-2.4-0.2-3.6-0.3c-1.2-0.1-2.3-0.6-3.5-0.5c-0.3,0-0.6-0.2-0.8-0.4c-0.3-0.4-0.7-0.5-1.2-0.4 c-0.2,0.1-0.5,0.1-0.7,0c-2.2-0.8-4.7-0.7-6.8-1.7c-0.8-0.4-1.5-1-2.5-0.9c-0.3,0-0.5-0.4-0.9-0.5c-0.2,0.9,0.5,1.5,0.8,2.2 c0.7,1.6,0.9,3.3,1.3,4.9c0.3,1.2,0.8,2.3,0.8,3.5c0,0.2,0.1,0.3,0.3,0.4c1,0.4,1,1.4,0.9,2.1c-0.2,1.1-0.2,2.3-0.5,3.4 c-0.1,0.4-0.2,0.9-0.4,1.2c-1,1.4-1.3,3-1.9,4.6c-0.7,1.8-1.2,3.8-2.6,5.3c-0.3,0.3-0.3,0.7-0.3,1.1c-0.1,2.1-1,4.1-1.2,6.2 c-0.2,1.9-1,3.7-0.7,5.7c0.1,1-0.1,2-0.3,3c-0.2,1-0.6,2.1-0.3,3.2c0.3,1.1,0,2.2,0,3.3c-0.2,2.6-0.2,5.1-0.2,7.7 c0,1.5-0.2,3.1,0.3,4.7c0.2,0.5,0.3,1.1-0.1,1.6c-1.3,0-2.5,0-3.8,0c-0.7,0-0.9-0.3-0.5-0.9c0.3-0.3,0.3-0.5,0-0.8 c-0.5-0.8-0.7-1.6-0.4-2.5c0.2-0.6,0-1.4-0.1-2c-0.1-0.7-0.3-1.4,0.4-2c0.3-0.2,0.1-0.5-0.1-0.6c-0.3-0.2-0.5-0.7-0.4-0.9 c0.8-1.1-0.2-2.2,0.2-3.3c0.4-1.1,0.2-2.3,0-3.5c-0.1-0.3,0.2-0.7,0.3-1.1c0.2-0.4,0.3-0.9-0.1-1.2c-0.4-0.4-1-0.3-1.4,0 c-0.6,0.5-1.1,0.5-1.5-0.1c-0.3-0.4-0.5,0-0.7,0.1c-0.7,0.5-1.4,0.7-1.8-0.4c-0.2-0.5-0.5-0.5-0.9-0.3c-1.1,0.4-2.8-0.9-2.5-2.1 c0.1-0.5-0.1-0.7-0.5-0.7c-0.7-0.1-1.2-0.4-1.7-1c-0.5-0.6-1.4-0.6-2.1-0.2c-1.1,0.6-2.2,0.4-3.2,0.3c-0.4,0-0.8-0.3-1.2,0.2 c-0.1,0.2-0.4,0.3-0.6,0.2c-1.5-0.6-3.2-0.2-4.8-0.6c-0.9-0.2-1.7-0.6-2.5-0.8c-1.5-0.3-2.8-0.8-4.1-1.5c-1-0.5-1.9-1-2.9-1.6 c-1.3-0.7-2.5-1.7-3.6-2.7c-1.2-1.2-2.5-2.4-3.3-4c-0.2-0.3-0.3-0.5-0.6-0.7c-0.6-0.3-1.2-0.9-1.1-1.5c0.3-1.4-0.9-2.1-1.3-3.1 c-0.5-1.2-1.5-2.3-1.6-3.6c-0.1-1-0.4-2.2-0.7-3c-0.4-1,0.5-2.1-0.5-2.9c-0.5-0.4,0.5-0.7,0.3-1.3c-0.6-1.5,0-3,0-4.4 c0-1.4,0.8-2.5,0.7-3.9c-0.1-0.9,0.7-1.8,0.9-2.7c0.2-0.7,0.2-1.2,1.1-1.2c0.2,0,0.4-0.2,0.4-0.5c-0.3-1.4,0.5-2.3,1.1-3.4 c0.4-0.7,0.9-1.6,1.4-2.2c0.9-1.2,1.8-2.7,3.3-3.4c0.5-0.2,0.9-0.6,1.1-1.1c0.1-0.2,0.2-0.4,0.4-0.5c1.8-0.8,3.3-2.2,5.2-2.9 c0.5-0.2,0.7-0.6,1-1.1c1-1.5-0.5-3.2,0.4-4.6c-0.6-0.8-1.3-1.6-2.3-2c-1.3-0.5-2.4-1.2-3.5-2c-0.4-0.3-1.2,0-1.4-0.7 c-1,0.3-1.3-1-2.3-1c-0.3,0-1.1-0.3-1.2-1.1c0-0.1-0.1-0.3-0.1-0.3c-1,0.2-1.4-0.9-2.3-0.9c-0.7,0-0.9-0.9-1.5-1 c-0.7-0.1-1.4-0.2-2.1-0.3c-2.7-0.4-4.6-2.1-6.4-4.1c-2-2.3-4.2-4.5-6.1-6.9c-0.8-1-1.6-2.2-2.7-3.1c-0.5-0.5-0.8-1.3-1.1-1.9 c-1.4-2.5-3.2-4.8-4.5-7.4c-1.4-2.5-2.9-5-4.3-7.5c-1.1-2-1.8-4.2-3-6c-2-2.8-3.2-5.9-4.4-9c-1.3-3.3-2.8-6.7-3.3-10.3 c-0.3-2.2,0-4.5,0.7-6.6c1.1-3.3,1.9-6.6,3.5-9.8c1.2-2.4,2.1-4.9,3.3-7.3c0.6-1.4,1.3-2.8,2.4-3.9c0.9-1,1.5-2.1,1.9-3.4 c0.6-1.9,1.8-3.4,2.6-5.1c0.7-1.7,2.2-2.9,3.2-4.5c0.4-0.6,0.6-1.3,0.9-1.9c0.5-1,1.1-2,1.9-2.8c0.5-0.4,0.8-0.9,1.1-1.4 c1.2-2.1,2.8-3.9,4.3-5.8c1.4-1.6,3-3,4.3-4.6c1.4-1.7,3.3-2.2,5.2-2.7c2.3-0.6,4.7-1.1,7.1-1.6c3.1-0.6,6.3-0.8,9.4-1.1 c4.5-0.4,8.9-0.2,13.4-0.4c0.9-0.1,2.2,0.3,2.8-1c1.5,0.1,2.5-1.5,4.1-1.3c0.7,0.1,1.2-0.6,1.9-0.8c0.9-0.4,1.8-0.3,2.6-0.5 c0.4-0.1,0.9,0,1.2-0.5c0.3-0.4,0.7-0.2,1,0.1c0.3,0.3,0.7,0.5,0.9,0.1c0.5-1.3,1.7-1,2.6-1.1c1.1-0.2,1.9-0.5,2.4-1.7 c0.4-0.8,1.4-1.5,1.9-2.2c0.7-1.1,1.6-1.3,2.6-1.5c0.4-0.1,0.2-0.3,0.2-0.5c-0.2-0.8,0.2-1.3,1-1.3c0.7,0,0.6-0.8,1.3-0.9 c1.3-0.2,2.8-0.5,3.7-1.4c1.2-1.1,2.7-0.6,3.9-1.4c0.2-0.1,0.4-0.2,0.5,0c0.7,0.8,1.3,0.2,1.9-0.2c0.1,0,0.2-0.1,0.2-0.1 c1.1,0.8,2.1-1,3.2-0.1c0.2,0.2,0.4-0.1,0.6-0.2c1.6-0.5,3.1-0.6,4.7-0.3c0.3,0.1,0.4,0.1,0.6-0.1c0.3-0.3,0.7-0.3,1,0 c0.1,0.1,0.1,0.2,0.2,0.1c1.3-0.6,2.7,0,4-0.4c1.2-0.3,2.4,0.2,3.7-0.3c0.2-0.1,1,0.9,1.9,0.6c0.1,0,0.3,0.4,0.5,0.7 c0.2-0.7,0.6-1,1.2-0.6c0.3,0.2,0.5,0,0.6-0.3c0.1-0.2,0.3-0.6,0.6-0.5c1.1,0.5,2.3,0.3,3.5,0.3c0.7,0,1.3,0.6,2,0 c0.2-0.2,0.4,0,0.6,0c0.6,0.2,1.4,0.1,1.9,0.2c1.4,0.2,2.7,0,4,0c1.1,0,2,0.9,3.2,0.4c0.6-0.3,1.5,0.7,1.7,0.6 c0.8-0.7,1.2,0.1,1.8,0.3c0.2,0.1,0.4,0.4,0.6,0.2c0.8-1.1,1.7-0.1,2.5,0c1.6,0.2,3.1,0.8,4.4,2c0.1,0,0.2,0.1,0.2,0.1 c0.8-0.7,1.6,0,1.9,0.4c0.6,0.8,2.5,0.6,2,2.4c-0.1,0.4,0.4,0.3,0.6,0.3c1.4,0,2.1,1.1,2.7,1.9c0.6,0.8,1.4,1.4,1.8,2.4 c0.5,1.3,2.1,1,3.2,1.2c0.5,0.1,1,0.2,1.3,0.7c0.2,0.5,0.5,0.6,1,0.2c0.4-0.4,0.8-0.5,1.2,0c0.5,0.5,1.2,0.3,1.8,0.4 c1.1,0.2,2.1,0.4,3,1.1c0.6,0.4,1.6,0,2.2,0.6c0.9,0.9,2.6,0.3,3.1,1.8c0,0.1,0.2,0.2,0.3,0.2c1.6-0.2,2.5,0.8,3.5,1.7 c0.1,0.1,0.3,0.1,0.4,0.2c2,0.5,3.6,1.8,5.2,3c0.7,0.5,1.4,0.9,1.9,1.7c0.3,0.4,1.4,0.4,2,0.9c0.9,0.7,1.6,1.6,2.8,2 c0.1,0,0.2,0.2,0.2,0.2c-0.2,1,0.7,1.1,1.1,1.6c0.3,0.3,0.5,0.6,0.9,0.4c0.1-0.1,0.5,0,0.5,0.1c0.1,1.5,2.1,1.2,2.5,2.6 c0.1,0.4,0.2,0.7,0.1,1.2c1-0.1,1.4,0.4,2,1.1c0.7,0.8,1.7,1.5,2.4,2.4c0.6,0.7,1.3,1.3,1.3,2.3c0,0.2,0.1,0.5,0.3,0.6 c0.9,0.4,0.9,1.3,1.2,2c0.4,1.2,1.2,2.3,1.1,3.7c-0.1,0.7,0.1,0.7-0.8,1.7c0.8,0.7,0.9,1.9,0.7,3.2c-0.2,1.2-0.8,2.3-1.1,3.4 c-0.2,0.6,0.3,1.4-0.7,1.6c-0.2,0,0.1,0.3,0.2,0.4c0.1,0.3,0.2,0.6,0,0.7c-1.3,0.6-1.5,1.8-1.6,3.1C587,130,586.4,129.7,586,130z" style="fill: rgb(1, 1, 1);"/>
    <path class="st2" d="M468.8,297.7c-0.3-1.1-0.1-2.3-0.6-3.4c-0.2-0.4,0.6-0.7,0.4-1.4c-0.7-1.6,0.1-3.4-0.1-5 c-0.1-0.9,0.1-1.9-0.1-2.9c-0.2-0.8,0.1-1.9,0.2-2.8c0.1-0.5,0.2-1.1,0-1.4c-0.8-1.1,0.6-2.2-0.1-3.3c0.9-0.7,0.6-1.8,0.7-2.6 c0-0.9,0.3-1.9-0.2-2.8c-0.1-0.3-0.1-0.5,0.2-0.7c0.6-0.6,0.9-1.3,0.4-2.1c-0.1-0.1-0.1-0.2,0-0.4c1-1.3,0.7-3,1.3-4.5 c0.3-1,0.3-1.9,0.4-2.9c0-0.2,0.1-0.4,0.2-0.5c1.8-1.9,2.3-4.3,3.1-6.7c0.3-0.8,0.4-1.9,1.2-2.6c0.5-0.4,0.6-1.3,0.6-2 c0.1-1.2,0.5-2.3,0.4-3.6c-0.1-0.8-0.3-1.5-1.5-1c0.7-0.6,0.4-1.4,0.2-1.9c-0.6-1.7-0.9-3.6-1.3-5.4c-0.3-1.2-0.8-2.2-1.3-3.3 c-0.1-0.2-0.2-0.5-0.3-0.7c-0.2-0.4,0.3-0.4,0.5-0.7c0.2-0.2,0.3,0.1,0.4,0.2c0.8,0.9,1.2,0.9,2.3,0.1c-0.3,1.7,1.2,1.4,2,1.7 c1.2,0.5,2.6,0.7,4,0.7c0.4,0,0.6,0.3,0.9,0.4c1.1,0.4,2.3,0.3,3.5,0.9c1.2,0.6,2.8,0.9,4.1,0.7c1.3-0.1,2.4,0.4,3.6,0.4 c0.8,0,1.7,0.2,2.5-0.2c1-0.4,2-0.1,3,0.2c1.3,0.4,2.6,0.2,3.9-0.1c0.1,0,0.4-0.2,0.4-0.1c1.2,1.1,2.7-0.1,4,0.6c0,0,0.1,0,0.1,0 c2.2-1,4.6,0.5,6.8-0.6c0.4-0.2,0.9,0,1.3,0c1.8,0.3,3.5,0.3,5.2-0.4c0.5-0.2,1,0.2,1.6,0.2c1.1,0,2-0.6,3-0.5 c0.6,0.1,1.4,0,1.7-0.8c0.1-0.2,0.6-0.4,0.7-0.4c1.3,1,2.3-0.5,3.6-0.4c1.5,0.1,3-0.7,4.5-1c0.8-0.2,0.6-0.8,0.7-1.3 c1.1,0.8,1.3,0.8,2.3-0.3c0.4-0.5,1.3-0.2,1.7-0.8c0-0.1,0.4,0.1,0.4,0.3c0.4,1.3,1.2,2.4,1.9,3.4c0.7,1,1.6,1.8,2.1,2.9 c0.4,1,0.8,2.2,1.6,2.7c1.2,0.8,1.5,2.1,2.2,3.2c0.6,1,1.6,1.9,2.1,3c0.3,0.6,0.6,1.6,1.4,1.9c0.7,0.3,0.2,1.3,1.1,1.4 c-0.1,1.1,1.3,1.1,1.4,2.3c0,0.7,1.2,1.3,1.9,1.7c0.7,0.4,1.2,0.7,0.9,1.7c-0.2,0.8,0.7,1.5,1.3,2c1,0.8,1.6,1.7,2.2,2.7 c0.4,0.7,0.8,1.5,1.7,1.6c0.3,0,0.3,0.2,0.2,0.5c-0.1,0.3,0.1,0.5,0.3,0.8c0.4,0.6,1.3,0.8,1.2,1.7c1.4,0.1,1.2,1.3,1.7,2.1 c0.3,0.7,0.8,1.5,1.7,1.7c0.2,0,0.4,0.2,0.4,0.4c-0.1,1,0.4,1.5,1.3,1.9c0.3,0.1,0.3,0.5,0.3,0.8c0,0.5,0.3,1,0.8,1.1 c0.7,0.1,0.7,0.5,0.8,1.1c0.1,0.7-0.4,0.7-0.8,0.9c-2,0.9-3.8,1.9-5.8,2.8c-1.1,0.4-1.9,1.5-2.8,2.2c-1.6,1.1-3,2.6-4.5,3.8 c-0.5,0.4-0.5,1.1-0.9,1.6c-0.8,1-1.9,1.8-2.5,3.1c-0.4,0.8-1,0.3-1.2-0.1c-0.3-0.5-0.5-0.9-1.1-1.1c-0.5-0.2-0.1-1-0.5-1.4 c-0.7-0.8-1.2-1.9-1.8-2.6c-0.7-0.8-1.1-1.7-1.8-2.5c-0.4-0.5-0.7-1-1.1-1.5c-0.3-0.4,0.4-1,0.1-1.6c-0.1-0.3,0-0.7-0.3-0.9 c-0.3-0.2-0.3-0.3,0-0.5c0.4-0.4,0.3-0.8,0-1.2c-0.4-0.7,0.2-1.5-0.3-2.3c-0.7-1,0.1-2.1-0.2-3.2c-0.2-0.8-0.3-1.5-1.6-1.6 c1.4-0.5,1.2-1.4,0.8-2.1c-0.3-0.6,0.1-1.6-0.9-2c-0.1-0.1,0.4-1.1,0.1-1.8c-0.7-1.9-1.2-3.9-1.7-5.9c-0.2-0.6,0-2.1-1.3-2.3 c-0.1,0-0.3-0.6-0.2-0.7c0.8-1,0.1-1.8-0.5-2.4c-0.6-0.7-0.5-1.5-0.8-2.2c-0.6-1.2-1.6-2.1-1.8-3.5c-0.2-0.9-0.9-0.9-1.4-1 c-0.5-0.1-0.7,0.5-0.8,0.9c-0.1,0.5-0.4,0.7-0.8,0.9c-0.5,0.2-1.3,0.6-0.3,1.2c0.2,0.1,0.2,0.3,0.2,0.5c0,0.1-0.1,0.4,0,0.4 c1.2,0.9,1.2,2.4,1.7,3.5c0.1,0.1,0.3,0.3,0.3,0.3c-0.7,1,0.6,1.8,0.4,2.7c0,0.1-0.1,0.3,0,0.3c1.5,0.8,0.2,2.5,1,3.3 c1.5,1.6,0.7,3.8,1.6,5.4c0.5,0.9,1,1.7,0.6,2.8c-0.2,0.6,0.1,1.1,0.8,1.3c0.7,0.3,0.7,1.1,0.4,1.4c-1,0.9-0.2,1.8-0.1,2.6 c0.1,1.2,0.7,2.3,0.5,3.5c0,0.1-0.1,0.4,0,0.4c1.1,0.8,0.2,1.8,0.4,2.6c0.4,2.1,0,4.2,0.4,6.3c0.2,1.1,0.1,2.4,0,3.6 c-0.2,1.3-0.4,2.5,0.1,3.8c0.2,0.4-0.2,1.1-0.2,1.7c0,0.8-0.3,1.5,0.1,2.3c0.2,0.5-0.2,0.5-0.4,0.7c-0.9,0-1.7,0-2.6,0 c-23.4,0-46.7,0-70.1,0C469.5,297.8,469.2,297.7,468.8,297.7z" style="fill: rgb(157, 111, 243);"/>
    <path class="st3" d="M576.4,280.2c0.5-0.6,0.9-1,1.9-0.4c0.7,0.4,1.8,0.1,2.7,0c2-0.4,3.8,0,5.8,0.3c0.4,0.1,0.7,0.1,1.1,0.1 c0.9,0,1.9,0.1,2.7,0.6c1.5,0.9,2.9,1.7,4.6,2.2c0.5,0.2,1.1,0.3,1.3,1c0,0.1,0.3,0.3,0.4,0.3c1.1,0.4,1.9,1,2.5,2 c0.1,0.2,0.4,0.2,0.6,0.2c0.3,0,0.7,0.1,0.8,0.4c0.3,1.5,1.6,2.3,2.4,3.5c0.9,1.3,1.7,2.6,2.3,4c0.2,0.4,0.4,0.8,0.7,1 c0.6,0.3,0.8,0.7,0.5,1.4c-0.3,0.5,0.4,0.7,0.3,1.1c-0.3,0-0.5,0-0.8,0c-16.4,0-32.7,0-49.1,0c-0.2,0-0.5,0-0.7,0 c0.9-0.8,0.9-2,1.3-3c0.3-0.6,0.4-1.3,1-1.7c0.7-0.5,0.6-1.3,1-1.9c0.7-0.9,1.5-1.6,2.2-2.5c1.3-1.7,2.8-3.2,4.6-4.2 c1.6-0.9,3.1-2,4.9-2.7c1.4-0.5,2.8-1,4.3-1.3C575.9,280.2,576.2,280.4,576.4,280.2z" style="fill: rgb(39, 45, 80);"/>
    <path class="st4" d="M586,130c0.3-0.4,0.9-0.1,1.3-0.5C587,130.2,586.5,130.1,586,130z" style="fill: rgb(136, 133, 133);"/>
    <path class="st5" d="M564.8,142.5c-1.2-0.3-2.1-1.3-3.5-1c-0.4,0.1-0.5-0.3-0.7-0.5c-0.4-0.4-0.7-0.7-1.3-0.3 c-0.4,0.3-0.5,0-0.7-0.2c-0.4-0.5-1-0.8-1.6-0.3c-0.4,0.3-0.6,0.2-0.8-0.2c-0.2-0.5-0.7-0.6-1-0.6c-0.9,0.1-1.7-0.5-2.5-0.5 c-1.7,0-3.3-0.8-5-0.6c-1.1,0.1-2.2-0.5-3.2-0.3c-1.7,0.3-3.4-0.5-5.1,0.1c-0.3,0.1-0.5,0.3-0.8,0.4c-0.2,0.1-0.3,0.4-0.6,0.2 c-1.4-1-2.7-0.3-4.1,0c-0.7,0.1-1.5-0.1-2.1,0.3c-1.1,0.7-2.3,0.7-3.4,1.2c-0.7,0.3-1.7,0.5-2.1,1c-0.6,0.7-1.3,0.9-2,1.2 c-0.9,0.5-1.9,1-2.5,2c-0.2,0.3-1.1,0.6-1.7,1c-0.7,0.5-1.5,0.9-1.6,1.9c-0.1,0.4-0.4,0.5-0.6,0.7c-0.2,0.2-0.7,0.3-0.7,0.5 c-0.2,1-0.7,1.7-1.1,2.5c-0.2,0.5-0.6,1.1-0.9,1.6c-0.7,1.3-0.5,2.9-1.4,4.1c-0.3,0.3-0.4,0.8,0,1.1c0.2,0.2,0.1,0.4,0,0.6 c-0.4,0.5-0.8,1-0.2,1.8c0.3,0.3-0.6,0.6-0.5,1.2c0.1,0.8,0.7,1.5,0.1,2.3c1.2,0.9,0.7,1.8,0,2.8c-0.2,0.3-0.1,1.4,0.1,1.9 c0.4,1-0.1,2.4,1.2,3.1c0.1,0,0.1,0.2,0.1,0.3c-0.8,1-0.3,1.7,0.4,2.5c0.1,0.1,0.1,0.4,0.1,0.5c-0.2,0.9,0,1.5,1,1.9 c0.7,0.3,0.9,1.1,0.8,1.8c0,1.4,0.5,2.4,1.6,3.3c0.7,0.6,1.9,1.2,1.5,2.5c0,0.1,0.1,0.4,0.2,0.5c0.9,0.5,1.2,1.8,2.2,2.1 c0.2,0.1,0.4,0.3,0.5,0.6c0.3,0.9,0.8,1.7,1.9,1.5c0.1,0,0.2,0,0.2,0c0.1,1.3,1.3,1.4,2,1.9c0.9,0.7,1.9,1.4,3.2,1 c0.2-0.1,0.4-0.1,0.5,0.1c0.8,1.1,2.2,1,3.3,1.6c0.9,0.5,1.9,0.6,2.8,0.8c1.2,0.2,2.3,0.7,3.5,0.9c0.7,0.2,0.8-0.5,1.2-0.8 c0.6,0.8,1.2,1.8,2.5,1c0.9,1.1,2.1,0.1,3.2,0.4c0.7,0.2,1.9,0.8,2.8-0.2c0.2-0.3,1.2-0.2,1.7-0.1c0.9,0.1,1.5-0.6,2.4-0.6 c0.3,0,0.7-0.1,0.8-0.3c0.6-0.7,1.2-1.3,2.3-0.9c0.1,0,0.3,0,0.3-0.1c0.6-1.2,2-0.9,2.8-1.8c0.1-0.1,0.3-0.2,0.4-0.3 c0.3-1.4,1.7-1.5,2.5-2.2c0.4-0.4,1-0.8,0.9-1.5c0-0.3,0.1-0.4,0.4-0.4c0.4,0,0.7-0.1,0.8-0.6c0-0.3,0.3-0.4,0.5-0.3 c1,0.5,2.2,0.3,3.1,0.1c0.8-0.2,1.9,0.8,2.5-0.4c0,0,0.3,0,0.4,0.1c1.3,0.6,2.6,1,3.7-0.4c0.2-0.3,0.4-0.3,0.6,0 c0.5,0.7,1.2,0.8,1.9,0.8c2.4,0,4.9,0.1,7.3-0.1c1.5-0.1,2.9,0.2,4.4,0.2c1.1,0,2.3,0.2,3.3-0.2c0.7-0.2,1.2,0.2,1.9,0.2 c1.2,0,2.2,0,3.2-0.7c0.4-0.3,0.6,0.1,0.9,0.3c1.5,0.7,1.9,0.7,3.1-0.5c0.4-0.4,2.8-0.3,2.8,0.1c0,0.7,0.2,1.4,0.2,2.1 c0,0.8-0.7,1.2-1.5,1.1c-0.3,0-0.8,0.2-0.8,0.5c-0.2,0.9-1.4,1.2-1.3,2.2c0,0.1-0.2,0.4-0.2,0.4c-1,0-1.3,1.1-2,1.4 c-0.4,0.2-0.6,0.5-0.8,0.8c-0.4,0.6-0.5,1.5-1.6,1.2c-0.3-0.1-0.4,0.4-0.5,0.7c-0.6,0.9-1.6,1.5-2.5,2.1c-0.6,0.4-1.2,0.9-2,1.1 c-0.8,0.2-1.1,0.9-1.5,1.4c-1,0.9-2.7,0.7-3.4,2.2c-0.1,0.3-1.3,0.2-1.6,0.9c-0.4,0.9-0.9,1.6-2,0.8c-0.9,0.7-2.2,0.9-2.9,1.9 c-0.1,0.1,0,0.4-0.3,0.4c-2.6,0.2-4.4,2.2-6.6,3.3c-2,0.9-4,1.8-5.9,2.9c-0.3,0.2-0.6,0.3-0.7,0.7c-0.1,0.3-0.3,0.6-0.5,0.5 c-1.2-0.3-1.3,0.7-1.6,1.5c-0.9-1.1-1.8-0.1-2.4,0.2c-1.5,0.7-3.1,1.6-4.5,2.4c-0.7,0.4-1.3,0.9-2.2,0.9c-0.3,0-0.5,0.2-0.5,0.5 c0,0.4-0.2,0.5-0.6,0.6c-1,0.1-1.1,0.3-1,1.5c-1.6-1-2.8-0.1-4.1,0.6c-0.5,0.2-0.8,0.7-1.4,0.7c-0.1,0-0.3,0.1-0.4,0.2 c-1.2,1-1.3,0.8-2.7,1.4c-0.8,0.3-1.6,0.6-2.4,1c-0.5,0.3-0.1,0.9-0.3,1.4c-1.5-0.7-2.6-0.3-3.6,1c-0.1,0.2-0.3,0.5-0.7,0.3 c-1.3-0.6-1.6-0.4-2.2,0.8c-0.1,0.1,0,0.3-0.3,0.3c-1.2-1.4-2.3,0-3.5,0.2c-1.7,0.4-3.3,1.4-5,1.4c-1.2,0-1.9,0.3-2.6,1.2 c-0.5-1.2-1.4-0.9-2.2-0.8c-1.5,0.3-3,0.8-4.5,0.5c-0.5-0.1-0.7,0.5-1.3,0.6c-1.6,0.3-3.1-0.3-4.7-0.2c-1.1,0.1-2.1,1.1-3.2,0 c-0.5,0.8-1.7-0.2-2.1,0.8c0,0.1-0.3,0.1-0.3,0.1c-0.4-1-1.5-0.2-2.1-0.8c-0.3-0.3-0.7-0.1-1,0.2c-0.4,0.4-0.9,0.5-1.2,0.1 c-0.8-1-1.7-0.4-2.6-0.3c-1.4,0.1-2.9,0.6-4.2-0.4c-0.5-0.4-0.8,0.1-1.3,0c-1.4-0.1-2.7-0.5-4-0.7c-0.7-0.1-1.6-0.4-1.8,0.8 c-0.4-0.4-0.8-0.8-1.1-1.1c-0.2-0.2-0.5-0.4-0.7-0.3c-1.3,0.6-2.4-0.3-3.5-0.6c-1.6-0.4-3.2-0.8-4.7-1.5c-0.1-0.1-0.4,0-0.5,0.1 c-0.7,1-1,0.1-1.3-0.3c-0.5-0.7-1-1.2-1.8-0.4c-0.4,0.4-0.7,0-0.8-0.2c-0.3-0.8-1.2-0.9-1.8-1.3c-0.6-0.3-1.2,0.1-1.8,0.4 c0.3-1.4-0.6-1.5-1.6-1.9c-0.9-0.4-2.3-0.3-2.8-1c-0.9-1.2-2.3-1.5-3.3-2.5c-0.3-0.3-0.3-0.6-0.3-0.9c-0.2-2.5-0.1-5.1-0.1-7.6 c0-1.4,0.2-2.9-0.2-4.3c-0.2-0.9,0.3-1,0.9-0.9c1.9,0.1,3.7,0,5.5-0.3c1.8-0.3,3.7-0.6,5.5-1c2.5-0.7,5-1,7.4-1.9 c1.2-0.4,2.2-1,3-1.9c1.9-2,4-4,5.7-6.2c1.2-1.6,2.6-3,3.5-4.9c0.4-0.8,1.2-1.4,1.8-2.2c1-1.2,1.2-2.8,2.1-4 c0.3-0.5,0.6-0.9,1.1-1.3c1.1-0.9,1.5-2.3,2.2-3.5c1.5-2.2,2.1-4.9,3.6-7.1c0.7-1.1,1.6-2.1,2.2-3.2c0.8-1.6,1.6-3.2,2.3-4.8 c1.1-2.3,2.1-4.7,3-7.2c1.2-3.4,2.4-6.7,2.9-10.3c0.1-0.4,0-0.7,0.6-0.9c0.5-0.1,1.3-0.5,1-1.5c-0.1-0.4,0.3-0.7,0.5-0.8 c1.4-0.9,2.2-2.5,3.7-3.3c1.3-0.7,2.4-1.7,3.9-2c0.1,0,0.3,0,0.3-0.1c0.7-1.6,2.8-0.9,3.7-2.3c2.1-0.1,2.2-2,3-3.3 c0.3-0.5,0.4-1.1-0.1-1.6c-0.1-0.1-0.2-0.2-0.2-0.4c0.1-1.7-0.1-2.5-2.1-3.5c-1-0.5-1.9-1.1-3.1-0.9c-1.9,0.3-3.9,0.4-5.7,1.2 c-1.4,0.6-3,1-4.3,1.9c-0.6,0.4-1.7,0.8-2.2,1.3c-0.8,0.7-1.8,1.2-2.4,2.4c-0.9-2-1.7-3.8-2.5-5.6c-0.3-0.7-0.6-1.5-1.2-2.1 c-0.5-0.5-0.9-1-1-1.7c-0.1-0.5-1.1-1.7,0.7-1c0.1,0,0.3-0.1,0.4-0.1c0.7-0.5,1.3-0.4,2,0.1c0.5,0.4,1,0.6,1.5,0.1 c0.1-0.1,0.3-0.1,0.4-0.1c1.2,0.9,2.8,0.5,4.1,0.8c1.6,0.4,3.3,0,4.9,0.6c0.1,0,0.2,0.1,0.3,0.1c1.1-0.6,2.1-0.4,3,0.4 c0.8-0.7,1.7,0.6,2.6-0.1c0.5-0.4,1.5,0.1,1.8,0.4c1,1,2.3,0.5,3.4,0.9c0.6,0.2,1.3,0,1.8,0.5c0.2,0.1,0.5,0.1,0.6-0.1 c0.5-0.6,1-0.6,1.4,0.1c0.2,0.2,0.5,0.4,0.7,0.1c0.8-1.1,1.2,0,1.5,0.3c0.5,0.5,0.9,0.5,1.4,0.1c0.4-0.3,0.6-0.3,1.1,0.1 c0.8,0.7,1.7,1.2,2.9,0.9c0.8-0.3,1.3,0.6,2.1,0.7c1,0.1,1.9,0.8,2.9,0.2c0.3-0.2,0.4,0.1,0.5,0.3c0.5,0.7,1.1,0.8,1.7,0.1 c0.6-0.6,0.8-0.4,1,0.3c0.1,0.4,0.3,0.8,0.8,0.7c0.9-0.2,1.7,0.5,2.7,0.4c0.1,0,0.3,0.1,0.4,0.1c2,0.8,4,1.7,6.2,2 c0.2,0,0.3,0.2,0.4,0.3c0.4,0.4,1.1,0.8,1.6,0.6c1-0.4,1.2,0.3,1.5,0.8c0.1,0,0.2,0.1,0.2,0.1c0.3,1.6,0.8,3.2,0.5,4.9 C565.4,142.2,565.3,142.5,564.8,142.5z" style="fill: rgb(157, 111, 243);"/>
    <path class="st6" d="M467.5,94.4c1.7-1.7,3.3-1,5-0.1c0.6,0.3,1.2-0.4,2-0.1c1.4,0.5,2.9,0.6,4.4,1.1c1.3,0.4,2.2,1.5,3,2.4 c1.2,1.3,2.3,2.9,3.5,4.3c1.5,1.7,2.8,3.6,4.4,5.2c-0.1,1.3,1.9,1.7,1.5,3.1c1.2,0.5,0.7,2.3,2.1,2.6c0.5,0.1,0.8,0.8,0.5,1.3 c-0.3,0.6,0,0.6,0.5,0.9c1,0.5,1.3,1.6,1.8,2.5c0.3,0.5,0.4,1,0.8,1.4c0.5,0.5,0.9,1.1,0.7,1.8c0,0.2-0.2,0.4,0.2,0.5 c1.2,0.3,1.4,1.3,1.2,2.3c-0.1,0.7,0,0.8,0.6,0.9c0.5,0.1,1,0.4,1.2,1.1c0.5,1.6,1.6,3,1.8,4.8c0,0,0,0.1,0,0.1 c1.6,0.3,0.7,2.4,2.1,3c0.7,0.3,0.5,1.3,0.8,1.9c0.5,0.9,1.5,1.6,1.3,2.8c-0.2,1.4,0.6,2.2,1.4,3.2c0.9,1.1,0.9,2.8,1.5,4.2 c0.9,2.2,0.3,4.2-0.3,6.3c-0.5,2-1.4,3.8-1.9,5.7c-0.2,0.8-0.2,2.2-1.5,2.7c-0.6,0.2-0.6,1.2-0.6,1.6c-0.1,1.1-1.1,1.7-1.3,2.8 c-0.1,0.7-0.2,2.1-1.5,2.5c-0.3,0.1-0.1,0.5-0.2,0.7c-0.5,1-0.9,2.2-1.6,3c-0.4,0.6-1,0.9-1.1,1.7c0,0.9-0.7,1.3-1.4,1.6 c-0.7,0.3-0.9,0.6-0.6,1.3c0.4,0.9,0,2.1-0.9,2.5c-0.5,0.2-0.7,0.3-0.5,0.9c0.2,0.7,0,1.2-0.8,1.2c-0.6,0-0.5,0.3-0.4,0.7 c0.1,0.8-0.1,1.4-1,1.5c-0.7,0.1-0.9,0.5-0.8,1.1c0,0.2,0,0.6-0.1,0.6c-0.9,0.7-1.2,1.7-1.3,2.7c-0.2,1-1.2,1.4-1.8,2.2 c-0.5,0.7-1.2,1.2-1.4,2.1c-0.2,0.8-0.7,1.5-1.7,1.4c-0.5,0-0.8,0.4-0.5,1.1c0.2,0.5,0,1-0.4,1.4c-0.4,0.3-0.6,0.8-1,1.1 c-1.6,1.7-3,3.6-4.7,5.2c-0.6,0.5-1.3,0.3-1.9,0.5c-2.2,0.7-4.6,1-6.9,1.4c-1.4,0.3-2.9,0.3-4.4,0.8c-0.9,0.3-1.9,0.2-2.9,0.3 c-0.4,0.1-0.9-0.1-1.3,0.2c-0.1,0.1-0.4,0.1-0.4,0c-0.9-1.2-1.6-0.3-2.6,0c-0.9,0.2-2,0.3-3.1,0.2c-1.2,0-2.4,0-3.5-0.6 c-0.1,0-0.2,0-0.2,0c-0.7,1.2-1.9,0.1-2.8,0.6c-0.6,0.3-0.8-0.5-1.5-0.5c-0.9,0.1-1.9,1.3-2.9,0.1c0-0.1-0.7,0.6-1.1,0.5 c-1.1-0.3-2.1,0-3.2,0c-1.4,0-2.8,0.3-4.3,0c-0.5-0.1-1.1,0-1.6-0.5c-0.1-0.1-0.2-0.4-0.4-0.2c-1.2,1.1-2.5-0.1-3.7,0.1 c-0.5,0.1-0.7-0.6-0.9-1.1c-1.5,1.5-3.1,0.8-4.7,0.1c-0.2-0.1-0.4-0.3-0.5-0.2c-1.6,0.7-3-0.4-4.5-0.5c-2.4-0.2-3.9-1.9-5.2-3.6 c-1.2-1.5-2.3-3.2-3.6-4.5c-1.3-1.3-2.3-2.8-3.4-4.1c-0.7-0.8-1.5-1.7-1.9-3c-0.3-0.9-0.5-2.3-1.9-2.7c-0.8-0.3-0.9-1.1-0.3-1.9 c-1.6-0.5-2.3-1.8-2.6-3.3c-0.1-0.6-0.7-0.7-0.9-1.1c-0.4-1.2-1.4-2.2-1.8-3.3c-0.5-1.1-0.5-2.2-1.8-2.9c-0.7-0.3-0.6-1.5-1-2.2 c-0.5-0.9-1.1-1.8-1.1-2.8c0-0.1,0-0.3-0.1-0.3c-1.8-0.3-0.7-2.6-2.2-3.2c-0.3-0.1-0.4-1.6-1-2.1c-0.7-0.7-1.1-1.4-1.2-2.3 c0-0.4-0.1-0.8,0-1.2c0.1-0.3,0.1-0.6-0.1-0.7c-1.8-1-1.7-3-2.5-4.6c-1.1-2.4-0.9-4.8,0-7.3c0.7-1.9,1.3-3.8,1.9-5.7 c0.3-1,0.4-2.5,1.8-2.9c0.6-0.2,0.4-0.7,0.5-1c0.6-1.6,1.7-2.9,1.9-4.7c0-0.2,0.2-0.4,0.4-0.5c0.6-0.2,0.8-0.6,0.7-1.2 c-0.1-0.3,0-0.6,0.4-0.7c0.6-0.2,0.6-0.6,0.5-1.2c-0.1-0.5,0.1-0.8,0.6-1c0.8-0.3,1.2-1,1.3-1.8c0-0.8,0.6-1.2,1.2-1.4 c0.9-0.3,1-0.7,0.7-1.5c-0.4-0.9,0.1-2,1-2.4c0.5-0.2,0.6-0.3,0.4-0.8c-0.3-0.8,0-1.4,0.9-1.3c0.5,0,0.4-0.2,0.3-0.5 c-0.2-1,0.2-1.7,1.3-1.7c0.5,0,0.6-0.3,0.5-0.6c-0.1-0.8,0.2-1.3,0.8-1.8c0.2-0.2,0.6-0.5,0.5-0.7c-0.3-1.7,1.1-2.5,2-3.6 c0.5-0.6,1-1,1.2-1.9c0.2-0.7,0.6-1.6,1.8-1.6c0.5,0,0.8-0.4,0.6-1.1c-0.2-0.6,0.1-1,0.5-1.5c1-1.2,2.2-2.3,3.2-3.6 c0.9-1.2,1.8-2.6,3.4-3c1.8-0.4,3.5-0.8,5.3-1.1c1.9-0.4,3.9-0.4,5.8-0.9c1.8-0.5,3.5-0.3,5.3-0.8c0.3-0.1,0.6,0,0.8,0.2 c0.5,0.7,1,0.6,1.6,0c0.7-0.8,1.8-0.4,2.6-0.5c1.4-0.2,2.9-0.1,4.3,0.4c0.2,0.1,0.5,0.2,0.5,0.1c0.8-1.1,1.9-0.2,2.8-0.5 c0.6-0.2,1.3,0.5,2.1,0.2c0.7-0.3,1.6-1,2.3,0.1c0,0,0.3-0.2,0.4-0.3c0.2-0.1,0.5-0.4,0.7-0.3c1.1,0.4,2.2,0,3.2,0.1 c1.4,0.1,2.7-0.3,4.1,0.1c0.5,0.2,1.2,0,1.7,0.5c0.1,0.1,0.3,0.2,0.4,0.1c1.2-0.9,2.4,0.1,3.6-0.1C467.4,93,467.3,93.8,467.5,94.4z " style="fill: rgb(241, 103, 103);"/>
    <path class="st3" d="M582.3,160.3c0.6,1.3,2.1,2.1,3.3,1.8c0.2,1.5,1.8,2.9,3.4,3.1c0.5,0,0.7,0.4,0.8,0.8c0.2,0.8,0.4,1.7,1.6,1.3 c0.5-0.2,0.6,0.4,0.6,0.7c0,0.9,0.7,1.5,1.4,1.6c0.8,0.1,1.1,0.6,1.4,1.2c0.3,0.2,0.6,0.5,0.9,0.7c0.1,0.1,0.2,0.3,0.3,0.3 c0.9-0.2,1.7-0.3,2.4,0.5c0.1,0.1,0.2,0.1,0.3,0c0.6-0.3,1-1.2,1.6,0c0.3,0.6,1.2,0.8,1,1.7c0,0.2,0.1,0.4,0.2,0.6 c1.1,1.6,1.4,3.6,2.4,5.3c0.6,1,0.4,2.4,1.3,3.3c-0.4,0.1-0.7,0-0.9-0.1c-1-0.7-2-1-3.1-0.3c-0.2,0.1-0.4,0.1-0.5,0 c-0.5-0.8-1.4-0.3-2-0.5c-1-0.3-2,0.6-3-0.2c-0.3-0.3-1.2-0.2-1.8-0.1c-1,0.2-2,1.3-3.1-0.1c-0.3-0.4-1.1,0-1.5,0.4 c-0.2,0.2-0.5,0.2-0.7,0c-1.9-0.7-3.8-0.2-5.7-0.5c-0.3,0-0.5,0.2-0.8,0.4c-0.3,0.3-0.8,0.4-1,0.1c-0.6-1.1-1.5-0.7-2.2-0.5 c-0.9,0.3-1.8,0.1-2.6,0c-2.3-0.3-4.5,0.2-6.7,0c-0.3,0-0.5,0.2-0.7,0.4c-0.3,0.4-0.7,0.3-1,0c-0.7-0.7-1.3-0.6-1.8,0.3 c-0.2,0.4-0.5,0.5-0.9,0c-0.1-0.1-0.2-0.2-0.4-0.2c-0.8-0.3-3.9,1.7-4,2.6c0,0.5-0.1,0.7-0.6,0.6c-0.8-0.1-1.2,0.7-1.5,1.2 c-1.2,1.5-2.9,2.2-4.4,3.2c-0.3,0.2-0.9,0.2-1,0.8c-0.1,0.5-0.4,0-0.6,0c-1.2-0.5-2.3-0.8-3.3,0.5c-0.1,0.1-0.3,0.2-0.5,0.2 c-0.7-0.1-1.1,0.3-1.3,1c-0.8-1-2.5-1.3-3.5-0.8c-0.1,0.1-0.3,0.2-0.4,0.1c-2-1.5-4.6-1-6.8-2c-1-0.4-2.1-0.5-3.2-0.5 c-0.6,0-0.9-0.1-1.2-0.5c-0.9-1.2-2.4-1.6-3.6-2.3c-1-0.5-1.6-1.4-2.5-2c-0.9-0.7-1.6-1.7-2.5-2.5c-0.6-0.5-1.1-1.1-1.7-1.6 c-0.1-0.1-0.2-0.2-0.2-0.2c0.4-2.1-1.4-3.4-1.9-5.2c-0.5-1.7-1.1-3.3-1.3-5.1c-0.1-1.1-0.4-2.2-0.2-3.3c0.2-1.2-0.8-1.9-0.9-2.9 c0-0.6,0.1-0.9,0.5-1.2c0.8-0.7,0.8-1.5,0.2-2.3c-0.2-0.3-0.2-0.5,0-0.6c0.6-0.4,0.7-1.1,0.8-1.8c0.4-2.6,1.6-4.8,3.2-6.8 c0.5-0.6,1.2-1.1,1.8-1.7c0.3-0.2,0.5-0.4,0.7-0.7c0.5-0.8,1.6-0.9,2-1.9c0-0.1,0.4-0.1,0.6-0.1c0.7-0.1,1.3-0.3,1.6-1.1 c0.2-0.6,0.6-0.9,1.3-0.6c0.7,0.3,1.4,0,2-0.3c0.7-0.4,1.5-0.3,2.2-0.6c0.1,0,0.3,0.1,0.3,0c0.8-1.2,2.1-0.1,3-0.6 c1.3-0.6,2.7,0.2,3.9-0.2c1.2-0.4,2.3,0.5,3.3-0.2c0.1-0.1,0.3,0.1,0.5,0.2c0.2,0.1,0.5,0.4,0.6,0.3c1.9-0.9,3.6,0.6,5.4,0.7 c2.6,0.2,5.2,1,7.7,1.9c0.7,0.3,1.8,1.1,2.7-0.4c-0.1,1.3,0.5,1.7,1.4,2c0.4,0.2,0.8,0.4,1.2,0.7c0.2,0.1,0.4,0.1,0.7,0.2 c0.7,1.1,0.9,2.3,0.6,3.6c-0.1,0.6,0.1,1.3,0.1,2c0,0.9,0.2,1.7-0.1,2.6c-0.2,0.6,0,1.2,0.4,1.7c0.3,0.4,0.3,0.7,0.2,1.2 c-0.2,0.8,0.3,1.9,0.9,2.1c0.7,0.3,1.8,0.1,2.2-0.7c0.9-1.4,1.5-2.8,0.5-4.4c-0.4-0.6-0.5-1.3,0-1.8c0.6-0.6,0.5-1.2,0.5-1.9 c0-0.7-0.3-1.3,0.1-2c0.2,0,0.3,0,0.4,0.2c0.6,1.4,1.9,2,3.2,2.6c0.2,0.1,0.4,0.2,0.5,0.4c0.7,1,1.7,1.7,2.8,2.2 c0.4,1.1,0.1,2.3,0.2,3.4c0,0.2-0.1,0.5,0,0.8c0.5,0.8,0.5,1.5-0.1,2.2c-0.1,0.2-0.2,0.4-0.1,0.6c0.5,1.9-0.3,3.8-0.1,5.8 c0.1,1.3,0.4,2.4,1.4,3.3c0.3,0.2,0.5,0.4,0.9,0.3c0.8-0.3,1.8-2,1.8-2.9c0.1-1.6,0.8-3.1,0.1-4.7c-0.2-0.6,0.5-1.4,0.4-2.3 c0-0.6,0-1.1-0.3-1.6C581.6,160.8,581.6,160.3,582.3,160.3z" style="fill: rgb(39, 45, 80);"/>
    <path class="st3" d="M425.5,254.4c0-1.4-0.1-2.8-1.3-3.7c-0.4-0.3-0.1-0.5,0.1-0.8c0.2-0.3,0.7-0.5,0.4-0.8c-0.9-1.3,0-2.5,0-3.7 c-0.1-1.3,0.2-2.5,0.4-3.8c0.1-0.8,0.7-1.5,0.1-2.3c0,0,0-0.2,0.1-0.2c0.9-0.2,0.8-1.1,1-1.7c0.2-0.6,0.5-1.1,1-1.5 c0.3-0.2,0.7-0.5,0.5-1c-0.1-0.3,0-0.5,0.3-0.7c0.9-0.5,1.4-1.4,2-2.2c0.9-1.3,1.9-2.3,3.1-3.3c1.2-1,2.6-1.7,3.8-2.6 c0.8-0.6,1.9-0.9,2.9-1.2c2.1-0.8,4.3-1,6.6-1c1.2,0,2.5-0.2,3.7-0.1c1.9,0.3,3.7,0.9,5.3,1.9c0.7,0.4,1.5,0.7,2.2,1 c0.8,0.4,1.5,1,2.5,1.2c2.5,0.6,4.1,2.7,5.7,4.5c1,1.2,1.8,2.8,2.5,4.3c0.9,2,1.6,4,2.4,6c0,0.1,0.1,0.2,0.1,0.2 c-1,1.7,0.4,3.3,0.2,5c-0.3,2-0.8,3.9-1.3,5.8c-0.4,1.4-1.3,2.7-1.6,4.1c-0.4,1.5-1.8,2.2-2.2,3.4c-0.6,1.8-2.2,2.7-3.4,3.7 c-1.4,1.1-2.8,2.6-4.8,3c-0.8,0.2-1.3,1-2.1,1c-1.9,0-3.5,1.1-5.5,1.1c-1.1,0-2.2,0.1-3.1-0.2c-0.9-0.3-1.8,0.1-2.6,0.1 c-1.2,0-1.8-1-2.9-1.1c-1.7-0.1-3.1-1.2-4.6-1.8c-2.5-1.1-4.4-3.1-6.2-5.1c-0.3-0.3-0.7-0.2-1-0.4c-0.8-0.6-1.2-1.4-1.3-2.4 c-0.1-0.5-0.1-1-0.8-1.1c-0.6-0.1-0.6-0.9-0.7-1.1C426.3,256,425.7,255.3,425.5,254.4z" style="fill: rgb(39, 45, 80);"/>
    <path class="st7" d="M554.4,90.3c-0.4,0.6-0.9,0.8-1.7,0.8c-1.3,0.1-2.5,0.9-3.7,1.4c-0.9,0.4-1.6,1.3-2.7,1.4 c-0.6,0-1,0.3-1.2,0.9c-0.2,0.5-0.3,0.9-1.1,0.7c-0.6-0.2-1.3,0.3-1.6,0.8c-0.7,1.1-1.9,1.4-2.9,1.9c-1.5,0.8-2.7,1.8-4.1,2.6 c-1.2,0.6-2.3,1.4-3.5,2.1c-0.6,0.4-1,0.8-1.1,1.3c-0.1,0.8-0.5,1.1-1.2,1c-0.6-0.1-0.9,0.3-0.7,0.7c0.3,0.9-0.3,1.1-0.9,1.2 c-0.5,0.2-1,0.2-1.1,1c0,0.3-0.3,0.4-0.5,0.2c-0.5-0.4-1.1,0.2-1.4,0.1c-0.9-0.3-1.8,0.4-2.5-0.3c-0.5-0.4-1-0.2-1.5-0.2 c-1,0-2.2-0.6-3,0.6c-0.1,0.1-0.2,0.1-0.3,0.2c-0.6-1-1.7-0.4-2.5-0.9c-1.1-0.6-2.4-0.2-3.6-0.2c-1.6,0-3.1,0.3-4.6,0.4 c-0.2,0-0.6,0-0.7-0.2c-0.7-0.7-1.2-0.7-1.8,0.2c-0.2,0.4-0.5,0.1-0.7-0.1c-0.2-0.3-0.5-0.7-0.8-0.4c-0.9,0.7-1.7,0.3-2.6,0.1 c-1.3-0.3-2.7-0.1-4,0.3c-0.4,0.1-0.5,0.2-0.7-0.2c-1.1-2.6-3.3-4.6-4.9-6.9c-1.8-2.4-4-4.5-6-6.8c-2-2.2-4.3-3.5-7.3-3.8 c-2-0.2-3.9-0.9-5.9-1.3c-1.7-0.3-3.4-0.3-5.2-0.8c0.4-0.2,0.7-0.7,1.3-0.4c0.2,0.1,0.5,0,0.6-0.2c0.5-1.3,1.7-1.3,2.7-1.8 c0.5-0.3,1.1-0.5,1.4-1.2c0.4-1.1,1.8-1.5,2.4-2.5c0.1-0.2,0.4-0.4,0.4-0.5c-0.4-1.3,1-1.4,1.4-2.1c0.1-0.1,0.2-0.2,0.4-0.1 c1.2,0.4,1.9-0.5,2.5-1.3c0.4-0.5,0.8-0.8,1.3-0.6c0.8,0.3,1.5-0.1,2.2-0.3c1.1-0.3,2.2-0.4,3.3-0.6c1.3-0.2,2.8,0.3,3.8-0.9 c0.1-0.1,0.2-0.2,0.4,0c0.6,1,1.5,0.4,2.2,0.3c0.4,0,0.8-0.1,1.1-0.1c1.2,0.3,2.2-0.1,3.1-0.7c0.2-0.1,0.4-0.2,0.5,0 c0.5,1.1,1.2,0.4,1.9,0.4c1.6-0.1,3.3-0.1,4.9-0.1c0.4,0,0.8,0,0.8-0.4c0.2-1.6,1.7-0.2,2.2-0.9c0.1,0.1,0.2,0.1,0.2,0.2 c0.1,1.5,1.2,1,2,1.1c1.2,0.1,2.4,0,3.7,0c0.4,0,0.8,0.1,1.1,0.3c0.2,0.1,0.4,0.2,0.5,0c0.6-1.3,1.4-0.3,2-0.1 c0.6,0.2,1.1,0.4,1.8,0.3c0.8-0.1,1.6,0.1,2.4,0.2c0.5,0.1,0.9,0.2,1.2-0.4c0.1-0.3,0.3-0.3,0.5-0.1c0.9,1.2,2.3,0.6,3.5,0.9 c1.3,0.3,2.6,0.2,3.9,0.7c0.5,0.3,1.2,0.5,1.9,0.2c0.4-0.2,1-0.1,1.1,0.3c0.3,0.9,1.2,1,1.7,1.5c0.1,0.1,0.4,0.3,0.5,0.2 c1-0.5,1.4,0.6,2.1,0.8c0.1,0,0.3,0.3,0.3,0.4c-0.3,1.5,1,2.1,1.8,2.8c0.4,0.3,0.8,0.7,0.9,1c0.2,0.8,0.9,1,1.5,1.3 c1,0.5,2,0.6,2.7,1.7c0.3,0.5,1.4,0.5,2.1,0.6c0.6,0.1,1.1,0.2,1.8,0c0.6-0.2,1.1,0.6,1.8,0.6c0.6,0.1,1.4-0.5,1.6,0 c0.4,0.7,0.9,0.6,1.4,0.8c0.4,0.1,0.8,0.4,1.2,0.5C554.4,90.1,554.5,90.2,554.4,90.3C554.4,90.3,554.4,90.3,554.4,90.3z" style="fill: rgb(251, 44, 196);"/>
    <path class="st8" d="M612.4,279.7c0-0.4,0-0.8-0.5-1c-1.1-0.6-1.8-1.4-1.8-2.7c0-0.5-0.5-0.5-0.8-0.6c-0.7-0.2-1.6-0.3-1-1.4 c0.1-0.3,0-0.7-0.3-0.8c-1.2-0.5-1.4-2-2.3-2.5c-1.2-0.7-1.4-2.1-2.6-2.7c-1-0.5-1.5-1.9-2.5-2.8c-0.6-0.5-1.4-0.4-1.8-1.1 c-1.1-1.9-3-3.1-4.5-4.6c-0.4-0.5-0.9-0.6-1.5-0.6c-0.7,0-1.1-0.2-1.2-1c-0.1-1.2-1.3-1.4-2.1-2.1c-0.6-0.5-1.2-1.3-2.2-1.2 c-0.1-1.2-1.2-1.4-2-1.9c-1-0.6-1.9-1.3-2.8-2c-0.3-0.3-0.7-0.9-1.4-0.4c-0.1,0.1-0.2,0-0.2-0.1c-0.5-1.3-1.4-1.7-2.7-1.4 c-0.2,0-0.3,0-0.4-0.2c-0.1-0.9-0.9-1.1-1.5-1.2c-1.7-0.4-2.5-2.3-4.3-2.4c-0.5-1.2-2-1.3-2.7-2.3c-0.1-0.2-0.4-0.3-0.6-0.5 c0.5-0.8,1.4-1.3,2.1-1.8c0.5-0.4,1.2-0.6,1.2-1.5c0-0.6,0.6-0.3,0.8-0.3c1,0.3,1.7-0.3,2.4-0.7c1.1-0.7,2.1-1.7,3.5-1.5 c0.1,0,0.3,0,0.3-0.1c0.9-1.2,2.3-0.5,3.4-0.8c1.2-0.3,2.4-0.8,3.6-0.5c0.3,0.1,0.5-0.1,0.7-0.3c0.4-0.3,0.8-0.4,1,0.1 c0.3,0.5,0.9,0.6,1.3,0.6c1.4-0.1,2.8,0.2,4.1,0.7c0.2,0.1,0.4,0,0.6-0.1c0.9-0.5,1.6-0.8,1.9,0.7c0.1,0.7,1.3,0.8,2.1,0.9 c0.8,0.1,1.6,0.1,2,1c0.1,0.3,0.4,0.3,0.6,0.4c0.8,0.3,1.6,0.4,2.1,1.2c0,0.1,0.2,0.2,0.3,0.2c1.6,0,2.2,1.4,3.1,2.4 c0.3,0.3,0.8,0.1,1,0.4c0.6,0.6,1.7,0.9,1.4,2.1c-0.1,0.3,0.1,0.5,0.4,0.6c0.6,0.2,0.9,0.6,0.6,1.2c0,0.1,0,0.4,0.1,0.4 c1.3,0.4,0.5,1.7,1.1,2.4c0.6,0.7,0.9,1.6,1,2.6c0.1,0.6,0.4,1.1,0.6,1.7c0.4,1.6,0.8,3.1,0.9,4.7c0,0.6,0.6,1,0.5,1.7 c0,0.5,0.2,0.9-0.2,1.4c-0.3,0.4-0.1,0.9,0.4,1.2c0.3,0.2,0.7,0.3,1.2,0.6c-1.5,0.4-1.6,1.2-1.3,2.3c0.2,0.8,0.3,1.6-0.1,2.3 c-0.4,0.9,0.8,1.1,0.8,1.7c0,0.6-1.3,0.6-0.9,1.4c0.6,1.2,0.1,2.2-0.1,3.4c-0.2,1.1-1,2.1-0.2,3.4c0.2,0.3-0.6,0.8-0.4,1.3 C612.7,279.9,612.5,279.9,612.4,279.7z" style="fill: rgb(57, 39, 80);"/>
    <path class="st7" d="M564.8,131.8c-0.9-1.1-2-1.5-3.4-1.5c-0.2,0-0.3,0.2-0.4-0.1c-0.4-1.1-1.3-0.6-2-0.5c-0.3,0.1-0.7,0.4-0.8-0.1 c-0.3-1.2-1.4-1-2.2-1.2c-0.9-0.2-1.9,0-2.6-0.8c-0.2-0.2-0.6-0.1-0.9-0.1c-0.4,0-0.8,0.1-1.2-0.2c-1.1-0.8-2.5-1-3.9-1.1 c-1.6,0-2.9-0.7-4.4-1c-0.4-0.1-0.9-0.3-1.4,0c-0.4,0.2-1.3-0.2-1.5-0.4c-0.8-0.7-1.8-0.3-2.6-0.5c-1.6-0.3-3-1.4-4.8-0.9 c-0.5,0.1-1.1-0.4-1.7-0.6c-0.5-0.2-1-0.3-1.5,0.1c-1.2,1-1.7,1.2-2.5,0c-0.8-1.2-1.9-0.8-2.8-1c-1.1-0.3-2.3-0.5-3.3-0.5 c-1.5,0-2.9-0.9-4.4-0.3c-0.5,0.2-0.9-0.3-1.4-0.4c-1.2-0.2-2.5-0.2-3.7-0.4c-1-0.2-2,0.5-3.1,0.1c-0.2-0.1-0.5,0-0.8-0.2 c-0.3-0.2-0.8-0.3-1-0.1c-0.5,0.8-1.1,0.1-1.6,0.2c-1.6,0.2-2.2-1-2.8-2c-0.9-1.7-1.9-3.3-2.9-4.9c-0.3-0.5-0.5-0.9,0.4-0.9 c0.8-0.1,1.6-0.5,2.4-0.2c0.3,0.1,0.6-0.1,0.9-0.2c0.6-0.1,1.2-0.5,1.9,0.1c0.3,0.2,0.8,0.2,1.2,0.1c1.7-0.4,3.3-0.6,5.1-0.1 c1,0.3,2.2,0.4,3.5,0.2c1-0.1,2.4-1,3.4,0.2c0,0.1,0.3,0.1,0.3,0c1.1-1,2.4,0.6,3.5-0.4c1.2,0.8,2.6,0.2,3.9,0.6 c0.1,0,0.2,0.1,0.3,0.1c1.9-0.3,3.7,0.7,5.6,0.3c0.4-0.1,0.9,0.1,1.2,0.2c1.4,0.7,3,1,4.4,0.9c1.1,0,1.7,0.6,2.5,0.8 c0.8,0.2,1.7,0.9,2.6,0c0.2-0.2,0.3,0.1,0.4,0.2c0.7,1.3,2,1.3,3.2,1.6c0.8,0.2,1.5,0.4,2.2,0.8c0.5,0.3,1.1,0.4,1.7,0.5 c0.9,0.1,1.8,0.6,2.6,1c0.3,0.2,0.5,0.3,0.9,0.3c1,0,1.7,0.5,2.6,0.9c0.8,0.4,1.5,0.8,2.3,0.4c0.1-0.1,0.5,0,0.5,0 c0.4,0.7,0.7,1.4,1.7,0.7c0.3,1.4,1.4,0.9,2.3,1.2c0.6,0.2,0.9,0.8,1.5,0c0.1-0.2,0.4,0.1,0.4,0.4c0.3,0.9,1.4,1.8,2.3,1.7 c0.6,0,1.1,0.1,1.2,0.7c0.2,0.7,0.9,0.5,1.3,0.7c0.8,0.4,1.5,1.2,2.5,1.1c0.2,0,0.6,0.1,0.8,0.2c0.6,0.6,1.1,1.5,2.2,1.3 c0.1,1.1,1.4,0.6,1.8,1.4c0.1,0.2,0.6,0.3,0.9,0.4c0.2,0.1,0.4,0.2,0.3,0.4c-0.4,2-0.1,4.1-0.4,6.2c0,0.1-0.1,0.1-0.1,0.2 c-0.4,0.3-0.7,0-1-0.2c-1.4-1.2-3.3-1.6-4.9-2.5c-0.5-0.3-1,0.2-1.4-0.2c-0.3-0.3-0.4-0.7-0.5-1c-0.1-0.6-0.3-1.1-0.6-1.6 c-0.3-0.5-0.6-1-0.6-1.7c0-0.7-0.5-1.1-0.9-1.5c-0.2-0.3-0.5-0.3-0.7,0c-0.4,0.7-1.1,1.3-1.3,2.2 C565.5,131.3,565.4,131.8,564.8,131.8z" style="fill: rgb(251, 44, 196);"/>
    <path class="st2" d="M563.1,256.9c0.3-1.2-0.1-1.9-1.2-2.2c-0.2-0.1-0.4,0-0.4-0.3c-0.1-0.6-0.5-1-0.9-1.4 c-0.4-0.4-0.5-0.9,0.2-1.3c0.5-0.2,0.6-0.9,0.9-1c1.1-0.7,0.7-2.1,1.8-2.8c0.1,0,0.1-0.2,0.2-0.3c0.5-1.3,1-1.5,2.3-0.9 c1.2,0.5,2.4,1,3.2,2.2c0.2,0.4,0.7,0.5,1,0.3c0.7-0.5,0.9,0,1.1,0.5c0.2,0.5,0.6,1.1,1.1,0.9c1.3-0.4,1.9,0.6,2.7,1.1 c0.8,0.4,1.5,1.1,2.2,1.7c0.2,0.2,0.5,0.2,0.7,0.1c1-0.5,1.5,0.1,1.8,0.9c0.2,0.9,0.7,1.2,1.5,1.2c0.1,0,0.4,0,0.4,0.1 c0.7,1.7,2.7,1.9,3.7,3.3c0,0,0.1,0.1,0.1,0.1c2.3,0.8,3.7,2.9,5.6,4.3c0.7,0.5,1.5,1.2,2.2,1.8c0.8,0.6,1.4,1.6,2.1,1.8 c1.2,0.4,2,0.6,1.7,2c0,0.1,0.2,0.3,0.4,0.3c1.1,0.2,1.7,1.3,2.3,2c0.6,0.7,1.8,1.3,1.9,2.4c0.1,0.9,0.9,0.6,1.5,0.7 c-0.2,0.9-0.1,1.5,1,1.5c0.1,0,0.4,0.2,0.4,0.2c-0.4,1,0.9,1.3,0.9,2.1c0,0.4,0.4,0.4,0.7,0.4c0.7,0,1,0.4,1.1,0.9 c0.4,2,1.8,3,3.3,4c0.6,0.4,0.9,0.9,0.7,1.7c-0.2,1.3-1.5,2-1.5,3.4c0,0.3-0.5,0.4-0.8,0.5c-0.3,0.1-0.4-0.1-0.5-0.4 c-1.6-2.4-3.3-4.7-5.6-6.4c-0.2-0.2-0.4-0.4-0.7-0.3c-0.4,0.1-0.7,0.1-0.7-0.5c0-0.1-0.1-0.4-0.2-0.4c-1.3-0.2-1.7-1.8-3.1-1.8 c-0.3,0-0.5-0.1-0.7-0.3c-0.5-0.6-1.1-0.9-1.9-1.2c-0.7-0.3-1.4-0.9-2.3-1c-2.1-0.1-3.8-2-6-1.6c-0.6-0.8-1.6-0.1-2.3-0.7 c-0.4-0.4-1.5-0.1-2.3,0.1c-0.6,0.2-1.4-0.6-1.9,0.3c-0.1-0.1-0.3-0.1-0.3-0.2c-0.6-0.7-1.2-0.4-1.8-0.1c-0.8,0.4-2.1-0.3-2.1-1.1 c0-0.6-0.7-0.6-0.9-1.1c-0.5-1.5-1.7-2.8-2.6-4c-0.8-1-1.1-2.3-2.2-3c-0.4-0.3-0.6-1.1-1.4-1.1c-0.3,0-0.6-0.4-0.5-0.8 c0.1-1.3-0.5-2-1.6-2.4c-0.2-0.1-0.4-0.1-0.4-0.3c0.1-0.9-0.2-1.5-1.2-1.7c-0.4-0.1,0-0.8-0.3-0.9c-0.7-0.2-1-0.6-1.2-1.4 C564.1,256.6,563.5,257,563.1,256.9z" style="fill: rgb(157, 111, 243);"/>
    <path class="st8" d="M563.7,99.9c-0.3,0.5,0.2,0.8,0.4,1.2c0.1,0.3,0.5,0.5,0.6,0.8c0.1,1.1,0.7,1.5,1.7,1.5 c-1,1.8,0.2,3.2,0.8,4.6c0.4,0.9,1,1.6,1.6,2.5c0.3,0.5,0.3,1.1,0.5,1.6c0.3,0.9,0.4,1.9,0.7,2.7c0.3,1.1,0.6,2.3,1.2,3.3 c0.8,1.4,1.4,3,2.6,4.1c0.2,0.1,0.3,0.3,0.3,0.5l0,0c-1-0.3-2-0.4-2.8-1.1c-0.4-0.3-0.8-0.5-1.2-0.5c-0.7,0-1.4,0.1-1.5-0.8 c0-0.1-0.2-0.2-0.3-0.2c-1.4,0.4-2.4-0.7-3.6-1.1c-0.8-0.2-1.4-1.3-2.6-0.7c0,0-0.2-0.1-0.2-0.2c-0.8-1.3-1.9-1.7-3.3-1.2 c-0.2,0.1-0.3,0-0.4-0.1c-0.6-1.4-2.2-1.1-3.2-1.8c-0.8-0.5-1.7-0.1-2.3-0.8c-0.6-0.7-1.7-0.6-2.5-0.8c-1.1-0.3-2.2-0.6-3.3-1.1 c-0.7-0.3-1.7-0.9-2.7-0.4c-0.3,0.1-0.4-0.1-0.6-0.2c-0.9-0.4-1.6-1.4-2.8-0.9c-0.6,0.2-1-0.3-1.5-0.5c-1.5-0.6-3.2-0.7-4.7-1.2 c-0.3-0.1-0.5-0.1-0.7,0.1c-0.2,0.2-0.4,0.4-0.6,0.1c-0.2-0.3-0.3-0.5,0-0.8c0.2-0.3,0.4-0.7,0.9-0.8c1.4-0.2,2.2-1.5,3.2-2.1 c0.8-0.5,1.3-1.6,2.5-1.5c0.5-1.5,2.6-0.9,3.3-2.5c0.1-0.4,1.2-0.6,1.8-0.9c0.1-0.1,0.4,0,0.4-0.1c0.7-1.5,2.2-1.5,3.4-2.1 c0.1,0,0.1-0.1,0.2-0.1c0.4-0.5,0.6-1.2,1.7-0.9c0.3,0.1,1.4-0.7,1.6-1.4c0.4-1.1,1.3-1,1.8-0.7c1,0.5,1.9,0,2.7-0.2 c2.8-0.6,5.4,0.6,6.2,3.4c0.1,0.4,0.2,0.8,0.7,0.9C563.6,99.6,563.8,99.7,563.7,99.9z" style="fill: rgb(57, 39, 80);"/>
    <path class="st7" d="M575,123.2c0.3-0.1,0.6,0.1,0.8-0.3c0.4-1.3,1-2.5,0.6-4c-0.1-0.3-0.2-0.6-0.4-0.8c-0.7-0.6-1.2-1.1-0.5-2.1 c0.3-0.5-0.2-1.2-0.6-1.7c-0.1-0.1-0.5-0.3-0.5-0.3c0.7-1.4-1.1-1.8-1.1-3c0-1.7-0.8-3.3-1.5-4.8c-0.3-0.5-0.2-1.2-0.7-1.7 c-0.3-0.4-0.5-0.9-1-0.9c-0.4,0-0.4-0.3-0.3-0.6c0.3-1.8-0.1-2-1.3-3c-0.6-0.5-0.5-1.8-0.6-2.8c0-0.1,0.6-0.3,0.9-0.3 c0.4,0,0.3,0.4,0.4,0.7c0.2,1.1,1.3,0.9,2,1.5c0.4,0.4,1,0.9,1.7,0.9c0.1,0,0.2,0.1,0.2,0.1c0.2,1.5,1.7,1.3,2.5,2 c0.2,0.2,0.4,0.3,0.4,0.6c0,0.1,0,0.3,0.1,0.4c1.5-0.5,1.1,1.8,2.3,1.6c0.1,0,0.3,0,0.3,0.1c0,1.2,1.3,1.3,1.8,2 c0.7,0.8,1.2,1.7,1.9,2.5c0.5,0.5,0.6,1.3,1.5,1.4c0,0,0.1,0,0.1,0c-0.3,1.2,1,1.7,1.1,2.8c0.1,0.9-0.2,1.8,0.8,2.6 c0.5,0.4,0.2,1.6-0.1,2.3c-0.6,1.8-1,3.7-1.2,5.6c0,0.3,0,0.6-0.3,0.8c-0.7,0.4-1,1-1.2,1.8c-0.1,0.4-0.9,0.6-0.9,1.3 c0,0.1-0.2,0.1-0.4,0c-1.4-0.6-2.5-1.6-3.7-2.5c-0.5-0.4-1.2-0.7-1.7-0.9c-0.8-0.2-1.1-0.7-1.5-1.1 C574.9,123.3,574.9,123.2,575,123.2z" style="fill: rgb(251, 44, 196);"/>
    <path class="st9" d="M577.3,137.3c0.2-0.9-0.1-1.8,0-2.7c0.2-1-0.3-2.1,0.4-3.1c0.2-0.3,0-0.6-0.1-0.9c0.5-0.3,0.7-0.8,0.9-1.3 c0.3-0.6,0.8-0.9,1.3-0.2c0.4,0.6,1.2,1.1,0.9,2c0,0.1,0,0.3,0,0.3c1.3,0.4,1,1.7,1.6,2.5c0.3,1.8,0.6,3.5,0.4,5.4 c0,0.5-0.1,0.9-0.2,1.3c0.2,0.5,0.5,1.1-0.2,1.5c-0.1,0.1-0.2,0.2-0.1,0.4c1.3,1.4,0.3,3.2,0.7,4.7c0.1,0.9,0.5,1.9-0.2,2.8 c-0.1,0.2,0,0.4,0.1,0.6c0.1,0.2,0.3,0.5,0.2,0.6c-0.7,1.3,0.3,2.7-0.1,4c-0.3,0.7-1.3,1.4-0.3,2.3c-0.6,0.8-0.3,1.7-0.1,2.6 c0,0.1-0.2,0.2-0.3,0.3c-0.3,0.2-0.6,0.4-0.3,0.8c0.8,1.1,0.6,2.2,0.2,3.3c-0.2,0.6-0.5,1.2,0.1,1.9c0.4,0.5,0.3,1.2,0,1.8 c-0.3,0.6-0.7,1.2-0.4,1.8c0.4,1-0.2,1.5-0.8,2.1c-0.3,0.2-0.5,0.4-0.7,0.8c-0.2,0.6-1.2,0.6-1.6,0.2c-0.9-0.8-1.6-1.8-1.5-3 c0-0.9,0-1.9-0.1-2.7c-0.1-1,0.8-1.7,0.2-2.7c-0.3-0.5-0.7-1.8,0.5-2.4c0.1,0,0.1-0.3,0.1-0.4c-0.4-0.8-0.3-1.6-0.4-2.5 c-0.1-0.9,0.2-1.8,0-2.7c-0.5-1.1-0.3-2.2-0.2-3.3c0.1-1.1,0.1-2.1-0.1-3.1c0.6-1,0.1-2,0.1-3c0-1.5-0.2-3-0.1-4.5 c0.4-1.5,0.3-3,0.1-4.5C577.3,137.8,577.3,137.5,577.3,137.3z" style="fill: rgb(32, 73, 218);"/>
    <path class="st10" d="M442.5,209.4c1-0.2,2.1,0.3,3.2,0.2c3.9-0.2,7.7-0.3,11.6-0.3c1,0,1.2,0.4,1.1,1.2c-0.1,2.1-0.3,4.2-0.1,6.3 c0.1,1.1-0.4,2.1-0.2,3.2c0,0.2-0.1,0.5-0.4,0.4c-1-0.3-2.2,0.2-3-0.8c-0.1-0.1-0.4-0.2-0.5-0.2c-1,0.9-2.3,0.4-3.1,0 c-1-0.5-1.9-0.4-2.9-0.4c-1.4,0.1-2.9-0.1-4.3,0.3c-0.7,0.2-1.7-0.3-2.3,0.6c-0.1,0.2-0.7-0.3-0.8-0.5c-0.1-0.7-0.3-1.4-0.2-2 c0.1-1,0-2-0.1-3c-0.1-1.1,0.2-2.2-0.2-3.2c-0.1-0.2,0-0.4-0.1-0.5c-0.6-1.1-0.3-1.4,0.9-1.4C441.6,209.4,442,209.4,442.5,209.4z" style="fill: rgb(238, 225, 151);"/>
    <path class="st9" d="M564.8,131.8c0.2-0.2,0.5-0.4,0.5-0.8c0-1.1,0.9-1.8,1.3-2.7c0.1-0.3,0.4-0.5,0.8-0.2c0.6,0.5,1.4,1.1,1.4,1.9 c0,0.8,0.3,1.5,0.8,2.1c0.4,0.4,0.2,0.9,0.3,1.4c-0.1,0.5,0.2,0.9,0.3,1.3c-0.1,1.2,0.1,2.3,0.3,3.4c0,0.4,0.3,0.8,0.1,1.2 c-0.6,0.8-0.6,1.8-0.3,2.4c0.5,0.9,0.2,1.9,0.5,2.8c0.1,0.3-0.1,0.6-0.3,0.8c-0.4,0.2-0.8,0.6-0.4,1c1.3,1.3,0.5,2.8,0.6,4.2 c0,0.1,0,0.3,0,0.4c0,0.6,0.1,1.1,0.1,1.7c0,0.8,0.4,1.7-0.6,2.3c-0.6,0.4-0.2,1.3,0.1,1.5c1,0.8,0.5,1.8,0.5,2.6 c-0.1,0.8-0.5,1.6-1.1,2.3c-0.5,0.6-2.2,1.1-2.5,0.7c-0.6-0.7-1.6-1.4-1-2.5c0.4-0.8-0.4-1.1-0.5-1.7c-0.3-1.1,0.4-2,0-3 c-0.2-0.7,0.2-1.5-0.1-2.2c-0.3-0.6,0.1-1.2,0.1-1.9c0-0.8-0.6-1.5-0.4-2.3c1.5-1,0.7-2.4,0.4-3.5c-0.2-0.8,0.2-1.9-0.8-2.4 c0.5-0.6,0.8-1.4,0.5-2c-0.5-1-0.3-2.1-0.4-3.1c0-0.2-0.1-0.3-0.2-0.5c-0.2-1,0.9-1.8,0.2-2.9C564.6,133.4,564.8,132.5,564.8,131.8 z" style="fill: rgb(32, 73, 218);"/>
    <path class="st5" d="M583,155c-0.4-0.6,0.2-1.6-0.7-2.1c0.8-1.1,0.1-2.3,0.2-3.4c0.1-0.8,0.5-1.4-0.1-2.2c-0.2-0.2,0.2-0.3,0.4-0.4 c1.2,0.8,2.3,1.8,3.4,2.8c0.8,0.7,1.8,1.4,2.9,1.8c0.4,0.1,0.6,0.2,0.5,0.7c-0.3,0.7-0.1,1,0.5,1.5c0.5,0.4,0.6,1.4,1.1,1.9 c0.9,0.8,1,2.3,2.4,2.7c-0.1,1.3,0.9,1.8,1.7,2.5c0.2,0.2,0,0.4-0.1,0.6c-0.1,0.3-0.1,0.7,0.2,1c1,0.8,1.1,2.1,1.7,3.1l-0.1,0 c-0.8-0.2-1.3-1.2-2.3-1.1c-0.1,0-0.2-0.2-0.3-0.3c-0.9-1.3-2-2.2-3.5-2.7c-0.4-0.1-0.5-0.4-0.6-0.7c-0.2-0.6-0.6-1.2-1.1-1.4 c-1.7-0.9-2.8-2.5-4.5-3.4C584.1,155.6,583.6,155.2,583,155z" style="fill: rgb(157, 111, 243);"/>
    <path class="st11" d="M527.9,134c0,1.1-0.9,1.6-1.7,2c-1.6,0.8-3.1,1.6-4.7,2.4c-2.3,1.2-4.5,2.8-6.4,4.6c-0.1,0.1-0.3,0.3-0.3,0.4 c-0.1,0.4,0.1,1-0.5,0.9c-0.4,0-0.4-0.7-0.5-1c-0.4-1.1-0.5-2.3-1.1-3.4c-0.3-0.6,0.2-1.2,0.5-1.6c0.5-0.9,1.1-1.7,2.1-2.4 c1.1-0.8,2.4-0.9,3.4-1.8c0.5-0.5,1.5-0.8,2.1-0.8c1.2,0,2-0.9,3.2-0.7c0.7,0.1,1.5-0.5,2.4-0.2C527.3,132.6,527.9,133.1,527.9,134 z" style="fill: rgb(255, 255, 254);"/>
    <path class="st7" d="M582.5,140.5c-0.3-0.8-0.3-1.8-0.1-2.5c0.3-1.3-0.4-2.4-0.3-3.6c0-0.2-0.1-0.4,0.2-0.5 c0.4,0.2,0.9,0.3,1.1,0.7c0.3,0.4,0.6,0.5,1.2,0.4c0.6-0.1,1.4-0.2,1.4,0.9c0,0.5,0.3,1,0.8,1.1c0.5,0.1,0.5,0.6,0.7,0.7 c1,0.4,1.2,1.6,2.1,2c0.2,0.1,0.3,0.3,0.2,0.5c-0.4,0.9-0.1,2-1.1,2.7c-0.1,0.1-0.2,0.2-0.3,0.4c-0.2,0.4,0.1,1.1-0.3,1.1 c-0.6-0.1-1.3-0.4-1.6-1c-0.2-0.3-0.5-0.6-0.8-0.7c-1-0.5-1.9-1-2.6-1.9C583,140.4,582.7,140.5,582.5,140.5z" style="fill: rgb(251, 44, 196);"/>
    <path class="st12" d="M458.3,272.5c0.7-0.8,1.5-1.1,2.4-1.4c1.6-0.7,3.2-1.5,4.3-2.9c0.2-0.3,0.6-0.4,0.9-0.2 c0.4,0.3,0.1,0.6-0.1,0.9c-0.8,1.2-0.7,2.5-0.5,3.8c0.1,0.8-0.7,1.1-0.9,1c-0.6-0.3-1.1,0.1-1.6,0.2c-0.5,0.1-1.1,0.4-1.5,0.2 C460.3,273.8,459.3,273.3,458.3,272.5z" style="fill: rgb(127, 91, 166);"/>
    <path class="st13" d="M575,123.2c0,0.1,0,0.1,0,0.2c-0.7,0.3-1,0.1-1.1-0.7c0,0,0,0,0,0C574.3,122.7,574.7,122.9,575,123.2z" style="fill: rgb(190, 185, 187);"/>
    <path class="st14" d="M598,166.5c0.3,0.2,0.7,0.5,1,0.7C598.3,167.4,598.1,167.1,598,166.5z" style="fill: rgb(93, 90, 90);"/>
    <path class="st15" d="M564.6,148.2c-0.5-0.1-0.9-0.2-1.2-0.7C564,147.5,564.3,147.7,564.6,148.2z" style="fill: rgb(20, 22, 37);"/>
    <path class="st16" d="M596.9,165.5C596.9,165.5,597,165.5,596.9,165.5c0.4,0.1,0.5,0.2,0.5,0.5c0,0.2-0.2,0.2-0.3,0.1 C596.8,166,596.8,165.8,596.9,165.5z" style="fill: rgb(148, 144, 147);"/>
    <path class="st17" d="M612.4,279.7c0.1,0,0.3,0,0.4,0c0.1,0.2,0.5,0.2,0.5,0.6c0,0.1-0.1,0.2-0.2,0.2 C612.7,280.4,612.5,280.1,612.4,279.7z" style="fill: rgb(164, 161, 161);"/>
    <path class="st18" d="M588.7,182.4c0.2,0,0.5,0,0.7,0c0,0.2,0,0.5-0.1,0.5C588.9,182.9,588.8,182.6,588.7,182.4z" style="fill: rgb(29, 30, 39);"/>
    <path class="st19" d="M595.7,171.4c-0.4,0-0.7-0.3-0.9-0.7C595.3,170.8,595.6,171,595.7,171.4z" style="fill: rgb(19, 21, 36);"/>
    <path class="st20" d="M563.7,99.9c-0.1-0.1-0.2-0.3-0.2-0.4c0.2,0,0.4-0.3,0.6-0.1C564.2,99.7,563.9,99.8,563.7,99.9z" style="fill: rgb(33, 29, 37);"/>
    <path class="st21" d="M554.4,90.3c0-0.1,0-0.2,0-0.2c0.2-0.1,0.4-0.2,0.6,0c0.1,0.1,0,0.2,0,0.3C554.8,90.3,554.6,90.3,554.4,90.3z " style="fill: rgb(104, 101, 101);"/>
    <path class="st22" d="M437,209.6c-0.1,0.1-0.2,0.2-0.3,0.2c-0.1,0-0.3-0.1-0.4-0.2c-0.1-0.2,0-0.2,0.2-0.2 C436.7,209.4,436.9,209.4,437,209.6z" style="fill: rgb(106, 74, 142);"/>
    <path class="st23" d="M576.4,280.2c-0.1,0.3-0.4,0.2-0.7,0.2C575.8,279.9,576.1,280.1,576.4,280.2z" style="fill: rgb(27, 30, 48);"/>
    <path class="st24" d="M525,148.4c0,0.4-0.3,0.7-0.7,0.7C524.4,148.8,524.6,148.6,525,148.4z" style="fill: rgb(22, 24, 41);"/>
    <path class="st1" d="M493,240.9c0.9-0.3,1.9,0.1,2.7-0.1c0.6-0.1,1,0,1.4,0.4c0.2,0.2,0.4,0.3,0.5,0c0.4-0.5,0.7-0.6,1.1,0 c0,0.1,0.2,0.1,0.3,0.1c1-1,2.1-0.3,3.2-0.4c0.6-0.1,1.2-0.4,1.6,0.3c0.1,0.1,0.2,0.1,0.4,0c1.1-0.7,2.3-0.6,3.4-0.2 c0.1,0,0.3,0,0.4,0c1,0,2-0.5,2.9,0.2c0.2,0.2,0.7,0,1,0c2.4-0.3,4.7-0.5,7.2-0.2c1,0.1,2.2,0.1,3.2-0.1c0.7-0.1,1.4-0.1,2.1,0.1 c1,0.2,1.3,1,1.4,1.9c0.2,0.8,0.6,1.5,0.8,2.3c0.5,2,1.1,4,1.5,6c0.3,2,1,3.9,1.1,5.9c0.1,1.6,0.5,3.2,0.7,4.9 c0,0.5-0.3,0.8-0.2,1.2c0,0.4-0.2,0.8,0.3,1.1c0.3,0.2,0.3,0.5,0.3,0.8c-0.1,1.1,0.3,2.2-0.3,3.2c-0.2,0.4,0.1,0.8,0.2,1.2 c0.2,1.8,0.2,3.5,0,5.3c-0.1,0.8,0.4,1.7,0.1,2.6c-0.1,0.2-0.1,0.5-0.2,0.7c-0.4,0.9-1.5,1.2-2.2,0.6c-0.4-0.3-0.5-0.3-0.8,0 c-0.5,0.5-1.1,0.5-1.9,0.4c-0.7-0.1-1.5,0.3-2.3,0.1c-0.7-0.1-1.4,0.4-2.1-0.1c-0.2-0.1-0.3,0-0.4,0c-0.8,0.2-1.6,0.7-2.4,0 c-0.3-0.2-0.7,0.4-1.2,0.3c-1.6-0.1-3.1-0.1-4.7-0.1c-1.4-0.1-2.8-0.3-4.2-0.4c-0.6,0-1.1,0.5-1.9,0.5c-2.4-0.1-4.8,0.3-7.1,0 c-1.5-0.2-2.9,0.3-4.4-0.1c-0.7-0.2-1.6,0.4-2.3-0.4c0,0-0.2,0-0.2,0c-1.1,1.4-2.7,0.6-4,0.8c-0.9,0.1-1.8,0.2-2.8,0 c-1-0.3-1.1-1.2-1.6-1.7c-0.3-0.3-0.2-0.9,0.5-1.2c0.2-0.1,0.3-0.7,0.3-1.1c-0.1-1.2,0-2.4-0.2-3.6c-0.3-2.3,0.2-4.6,0.4-6.9 c0.2-1.6,0.1-3.3,0.5-4.9c0.3-1.3,0-2.7,0.9-3.8c0.4-0.5-0.5-0.8-0.2-1.4c0.5-1.1,0.4-2.3,0.7-3.4c0.3-1.5,0.6-3,1.1-4.4 c0.5-1.4,0.8-2.9,1.2-4.3c0.3-1,0.5-1.9,1.8-1.9C491.3,241.3,492.2,241.1,493,240.9z" style="fill: rgb(1, 1, 1);"/>
    <path class="st1" d="M516.9,209.6c-0.6-0.2-1.5,0-2.3-0.2c-0.5-0.2-1.2,0.1-1.2,0.5c0.1,1.6-1,2.7-1.5,4c-0.4,1.1-1,2.1-1.4,3.2 c-0.2,0.4-0.4,0.8-0.8,0.9c-0.5,0.2-0.9,0.4-0.9,1.1c0,0.3-0.3,0.3-0.5,0.5c-1,0.7-2.2,0.6-3.4,0.7c-0.6,0-1,0-1.4-0.6 c-0.3-0.5-1-0.9-1.5-1.2c-1-0.7-1.7-1.6-1.9-2.7c-0.2-0.7-0.8-0.5-1.1-1.1c-0.5-1.5-1.6-2.7-2.2-4.2c-0.5-1.3-1.5-0.9-2.4-1 c-1.2-0.2-2.5-0.2-3.2-1.5c-0.4-0.7-1.2-1.1-1.7-1.8c-0.7-1.1-0.5-2.8,0.7-3.4c0.6-0.3,1.6,0.4,1.9,1c0.5,0.7,0.7,1.6,1.6,2 c1.1,0.6,2,0.6,3.2,0.2c1.8-0.6,3.4-1.2,4.6-2.6c0.6-0.7,1.5-0.8,2-1.7c0.2-0.4,1.3-0.6,1.9-0.4c1.1,0.3,2.2,0.8,3,1.8 c0.6,0.7,1.6,1,2.4,1.6c0.9,0.8,2.2,0.8,3.1,1.6c0.4,0.4,1-0.1,1.5,0c2.4,0.6,3.6-1.2,5-2.6c0.7-0.6,0.8-2.1,2.3-1.7 c0.2,0.1,0.2-0.4,0.4-0.6c0.4-0.6,1-0.7,1.6-0.5c0.6,0.2,0.3,0.7,0.2,1.2c-0.8,3.8-3.4,6-6.8,7.4c-0.1,0.1-0.3,0.1-0.4,0.1 C517.5,209.7,517.3,209.6,516.9,209.6z" style="fill: rgb(1, 1, 1);"/>
    <path class="st1" d="M500.4,189.8c1,0.4,2.3-0.5,3.2,0.5c0.8-0.7,1.8,0.6,2.5-0.4c0,0,0.1-0.1,0.2,0c2,0.5,4,0,5.9,0.7 c1,0.4,1.8,1.3,1.9,2.3c0.1,1-0.4,2-1.5,2.4c-0.4,0.2-0.6,0.4-0.8,0.8c-0.1,0.2-0.2,0.5-0.5,0.6c-1.2,0.3-2.1,1.4-3.4,1.7 c-0.3,0.1-0.5,0.1-0.7-0.1c-0.1-0.1-0.2-0.3-0.4-0.1c-0.7,0.9-1.5,0.2-2.2,0.3c-1.9,0.2-3.2-0.8-4.5-1.7c-0.9-0.6-2.2-1.1-2.5-2.5 c-0.1-0.4-0.7-0.4-1.1-0.4c-0.3,0-0.7-0.2-0.5-0.5c0.4-0.6,0.4-1.3,0.5-2c0-0.4,0.4-0.4,0.6-0.5c0.9-0.3,2-0.1,2.6-1 C500,189.8,500.2,189.9,500.4,189.8z" style="fill: rgb(1, 1, 1);"/>
    <path class="st25" d="M400.6,136.5c0.3-1.5,1.2-2.8,1.9-3.9c0.7-1.2,1.2-2.8,2.5-3.7c0.4-0.3,0.2-1,0.4-1.4 c0.8-1.3,1.2-2.7,2.3-3.8c0.7-0.7,1.1-1.9,1.5-2.9c0.5-1,1.1-2,1.7-2.8c1.1-1.5,1.6-3.2,2.4-4.8c0.5-1,1.2-1.8,1.3-3 c0-0.3,0.3-0.6,0.6-0.7c0.6-0.3,1-0.9,1.1-1.6c0.2-1,1.1-1.8,1-2.9c1.2-0.2,0.7-1.9,1.8-2.2c0.4-0.1,0.6-1.1,0.7-1.7 c0-0.5,0.3-0.8,0.8-0.9c2-0.4,4.1-0.1,6.1,0.1c0.6,0.1,1.1,0.1,1.7,0c2.4-0.3,4.8,0,7.2,0c2.2,0,4.4-0.3,6.6,0.2c0.1,0,0.2,0,0.3,0 c3.9-0.7,7.8-0.4,11.7-0.4c3.6,0.1,7.2-0.4,10.8-0.1c1.6,0.1,3.3,0,4.8-0.3c1.7-0.3,3.3-0.2,5-0.3c2.2-0.2,3.4,1.3,4.2,3.2 c0.8,1.5,1.3,3,2.2,4.4c0.2,0.3,0.2,0.7,0.3,1.1c1,1.4,2,2.7,2.9,4.2c1.2,1.9,1.9,4.1,3.3,5.9c1.1,1.6,2.1,3.3,3.1,4.9 c1.3,2.1,2.4,4.3,3.5,6.5c0.4,0.8,0.9,1.7,1.4,2.3c0.9,1,1.4,2.3,2.3,3.2c0.5,0.6,0.3,1.4,0.8,2c0.4,0.6,0.7,1.3,1.5,1.6 c0.2,0.1,0.3,0.3,0.3,0.6c0,0.4,0.1,0.8,0.3,0.9c1.1,0.5,1.4,1.5,1.7,2.4c0.1,0.2,0.2,0.4,0.4,0.4c0.6,0,0.9,0.5,1,1 c0.3,1.1,1,2.1,1.2,3.2c0.3,1.2,0.3,2.4-0.7,3.4c-0.6,0.7-1.5,1.1-1.8,2.1c-0.1,0.2-0.1,0.5-0.2,0.7c-0.2,0.4-0.3,0.8-0.8,1.1 c-0.7,0.3-1,1-1.2,1.7c-0.1,0.2-0.2,0.4-0.3,0.7c-0.3,0.4-0.6,0.8-0.7,1.4l0,0c-0.2,0.4-0.3,1-0.7,1.4l0,0 c-0.3,0.3-0.6,0.6-0.9,0.9c-0.2,0.4,0,0.9-0.4,1.2c-0.3,0.6-0.6,1.2-1.1,1.6c-0.6,1.8-1.5,3.4-2.8,4.9c-0.8,1-1.3,2.4-1.8,3.6 c-0.5,1.2-1,2.4-2,3.3c-0.3,0.2-0.3,0.5-0.4,0.8c-0.4,0.5-0.8,1-0.8,1.6c0,0.5-0.5,0.5-0.8,0.8c-1,1.8-1.2,4-2.9,5.5 c-0.3,0.2-0.2,0.6-0.2,0.8c0.1,0.5-0.1,0.8-0.6,0.9c-0.6,0.8-1.4,1.6-1.4,2.8c0.1,0.8-0.7,1.1-1,1.7c-0.7,1.5-1.6,2.9-2.6,4.3 c-0.7,0.9-1.8,1.4-2.7,1.6c-1.2,0.3-2.3,0.9-3.6,0.8c-1.9-0.2-3.8,0.1-5.7-0.1c-1.4-0.2-2.8,0.1-4.2,0.1c-3.4,0-6.7-0.3-10.1-0.1 c-3.6,0.1-7.1,0-10.7,0.1c-1.9,0.1-3.8,0.2-5.7,0.2c-4.1-0.1-8.1,0.2-12.1,0.8c-2,0.3-3.5-1.1-3.8-2.5c-0.6-1.1-1.4-2-2-3 c-0.7-1.1-0.9-2.7-1.7-3.6c-1-1-1.1-2.2-1.7-3.2c-0.3-0.2-0.5-0.4-0.6-0.7c-0.2-0.2-0.3-0.4-0.5-0.7c-0.3-0.4-0.4-0.9-0.7-1.3 c-0.1-1.2-1.1-1.9-1.7-2.8c-0.8-1.4-1.4-3-2.5-4.3c-0.9-1.2-1.6-2.4-2-3.9c0-0.1-0.1-0.4-0.2-0.4c-1.5-0.7-1.4-2.5-2.3-3.5 c-1-1.2-1.6-2.5-2.4-3.8c-0.7-1.1-1.4-2.2-2.1-3.3c-0.5-0.9-1.1-1.8-1.7-2.5c-0.5-0.7-0.8-1.4-1.1-2.1c-0.4-0.9-1.2-1.4-1.6-2.1 c-0.9-1.4-2-2.7-2.1-4.5c0-0.7,0-1.4,0-2c0-0.4,0.1-0.7,0.5-0.7c1.2-0.5,1.1-1.8,1.5-2.7c0.4-0.8,1.2-1.3,1.7-2 c0.2-0.3,0.3-0.6,0.3-0.9C398.8,139.3,399.8,138,400.6,136.5z" style="fill: rgb(255, 255, 255);"/>
    <path class="st26" d="M481.7,107.9c-0.7-1.9-2.2-3.4-2.5-5.5c1.3,0.4,1,1.8,1.5,2.7c0.3,0.5,0.4,1.2,1,1.6 C482.1,107,481.9,107.5,481.7,107.9z" style="fill: rgb(249, 190, 190);"/>
    <path class="st27" d="M400.6,136.5c-0.5,1.6-1.7,2.8-2.7,4.2c-0.1-0.1-0.1-0.1,0-0.2c0.3-1.1,1.2-1.9,1.9-2.8 C400.1,137.3,399.9,136.6,400.6,136.5z" style="fill: rgb(252, 220, 220);"/>
    <path class="st28" d="M397.9,140.5c0,0.1,0,0.2,0,0.2c-0.2,1.3-1.3,2.1-2.1,3c-0.1,0.1-0.2,0.1-0.2,0c0-0.4,0-0.7,0.4-0.9 C397,142.3,397.4,141.4,397.9,140.5z" style="fill: rgb(246, 155, 156);"/>
    <path class="st29" d="M500.6,156c-0.2-0.8,0.3-1.3,0.9-1.7c0.5-0.3,0.8-0.7,1.1-1.1c0,0.5,0.3,1.1-0.7,1.3 C501.4,154.6,501,155.4,500.6,156z" style="fill: rgb(247, 167, 169);"/>
    <path class="st30" d="M418.6,191.9c0.9,0.9,1.7,1.7,2,3C419.7,194.1,418.9,193.2,418.6,191.9z" style="fill: rgb(248, 180, 180);"/>
    <path class="st31" d="M502.8,152.5c0.2-1.1,0.8-1.7,1.8-2.1C504.8,151.8,503.3,151.7,502.8,152.5z" style="fill: rgb(246, 159, 160);"/>
    <path class="st32" d="M482.9,188.1c0-1.2,0.2-2.2,1.4-2.8c0,0.6,0,1-0.7,1.3C483,186.8,483.1,187.6,482.9,188.1z" style="fill: rgb(253, 229, 229);"/>
    <path class="st33" d="M395.7,143.7c0.1,0,0.2,0,0.2,0c0,0.8-0.5,1.5-0.7,2.2c-0.1,0.5-0.5,0.5-0.9,0.5 C395.2,145.7,395.2,144.5,395.7,143.7z" style="fill: rgb(253, 226, 225);"/>
    <path class="st34" d="M487.9,178.1c0.6-0.4,0.6-1,0.9-1.6c0.2-0.4,0.3-0.8,0.7-1c0.2,0.2,0.1,0.3,0,0.5c-0.3,0.4-0.6,0.7-0.7,1.3 C488.8,177.8,488.4,178,487.9,178.1z" style="fill: rgb(251, 210, 210);"/>
    <path class="st35" d="M496.5,163c0.2-0.7,0.6-1.2,1.1-1.6C497.6,162.2,497.3,162.8,496.5,163z" style="fill: rgb(249, 183, 183);"/>
    <path class="st36" d="M498.1,160.3c0.1-0.5,0.4-0.8,0.9-0.9C499.4,160.4,498.5,160.1,498.1,160.3z" style="fill: rgb(248, 179, 179);"/>
    <path class="st37" d="M413.4,182.4c0.4,0.3,0.8,0.7,0.7,1.3C413.4,183.5,413.5,182.9,413.4,182.4z" style="fill: rgb(246, 157, 159);"/>
    <path class="st36" d="M499,159.3c0.2-0.5,0.1-1.1,0.7-1.4C499.7,158.6,499.6,159.1,499,159.3z" style="fill: rgb(248, 179, 179);"/>
    <path class="st36" d="M499.7,158c-0.1-0.6,0.1-1.1,0.7-1.4C500.4,157.2,499.9,157.5,499.7,158z" style="fill: rgb(248, 179, 179);"/>
    <path class="st38" d="M489.4,176c0-0.2,0-0.3,0-0.5c0-0.3,0-0.7,0.5-0.6C489.9,175.3,489.7,175.7,489.4,176z" style="fill: rgb(250, 203, 203);"/>
    <path class="st39" d="M414.6,184.4c0.3,0.2,0.5,0.4,0.6,0.7C414.8,185.1,414.5,184.8,414.6,184.4z" style="fill: rgb(247, 162, 162);"/>
    <path class="st1" d="M527.3,168.6c0.5-0.7-1-1.8,0.2-2.6c-0.7-3.1,0.8-5.8,2.4-8.1c1.7-2.3,3.8-4.3,6.9-5.1 c1.9-0.5,3.7-1.1,5.7-1.1c3.1,0,6.1,0.6,8.6,2.8c0.7,0.6,1.5,1.1,2.2,1.9c1.2,1.4,2.4,2.8,2.8,4.7c0.1,0.5,0.7,0.5,0.8,1 c0.6,2.2,0.8,4.4,0.5,6.7c-0.1,0.8,0.1,1.6-0.3,2.4c-0.3,0.8-0.5,1.7-1.3,2.3c-0.7,0.6-0.7,1.6-1.3,2.4c-1.1,1.7-2.4,3.1-4.3,4 c-1.2,0.6-2.3,1.5-3.6,1.6c-1.8,0.2-3.7,1.1-5.5-0.1c-0.3-0.2-0.6-0.2-0.8,0.1c-0.5,0.6-1.1,0.4-1.6,0.2c-2-0.6-3.9-1.3-5.4-2.9 c-0.5-0.6-1.3-1.1-1.9-1.6C529,175,527.4,172.2,527.3,168.6z" style="fill: rgb(1, 1, 1);"/>
    <path class="st40" d="M570.7,150.9c-0.4-0.6-0.4-1.5-0.2-2.1c0.3-0.9,0.2-1.4-0.4-2c-0.7-0.8-0.6-1.4,0.3-1.6 c1.2,0.9,2.7,1.4,3.8,2.4c0.9,0.9,2.2,1.3,3.1,2.3c0.2,0.4,0.9,0.8,0.2,1.4c1,0.9-0.5,1.9,0.2,2.9c0.3,0.5-0.2,1.3-0.1,2 c-1.3-0.1-2-1.2-2.9-2c-0.1-0.1-0.2-0.5-0.3-0.5c-1.2,0.2-1.5-1.2-2.6-1.4C571.1,152.5,571.2,151.5,570.7,150.9z" style="fill: rgb(1, 1, 2);"/>
    <path class="st1" d="M518,101.9c-0.8-0.5-0.9,0.1-1.1,0.7c-0.3,1-0.9,1.1-1.7,0.3c-0.2-0.2-0.3-0.7-0.7-0.3c-0.9,1-1.8,0.4-2.8,0.4 c-0.8,0-1.7,0.1-2.5-0.1c-1.4-0.2-2.7,0.2-4.1-0.1c-0.7-0.2-1.5,0.5-2.3,0.2c-1.2-0.4-2.4,0.4-3.5-0.4c-0.2-0.1-0.4-0.1-0.4,0.1 c-0.3,1.1-1.1,0.6-1.7,0.7c-0.9,0.2-1-0.4-1.6-0.8c-0.9-0.6-0.9-1.4-1.3-2.2c-0.7-1.7-1.4-3.4-2.3-5c-0.4-0.8-0.8-1.5-0.6-2.5 c0.1-0.3-1-1-1.4-1.7c-0.3-0.5-0.6-1-0.2-1.7c0.1-0.1,0.1-0.3,0.1-0.3c-1.4-1,0.3-2,0.1-3c-0.1-0.7,0.7-0.8,1-0.9 c0.9-0.3,0.9-1.5,2-1.5c0.4,0,0.2-0.7,0.6-1.1c0.9-0.9,2.1-1.5,3-2.6c0.1-0.1,0.2-0.3,0.4-0.3c1.3,0.1,1.7-0.9,2.3-1.8 c0.4-0.6,2.6-0.7,3.1-0.1c0.3,0.4,0.6,0.2,0.9,0c0.7-0.4,1.3-0.5,2.1-0.3c1.1,0.3,2.4,0.4,3.5,0c0.2-0.1,0.5,0,0.6,0.2 c0.5,1,1,0.7,1.5,0.1c0.4-0.5,0.9,0.1,1.4-0.1c1.8-0.5,3.6,0,5.3,0.1c0.6,0,2,2.6,1.8,3.2c-0.3,0.8,0,1.2,0.8,1.3 c0.5,0,0.7,0.3,1,0.7c1.2,1.2,1.7,2.9,3,4.1c0.4,0.4,1.2,1.2,1.1,2.1c-0.1,0.8-0.2,1.6-0.8,2.4c-0.6,0.8-1.4,1.4-1.9,2.2 c-0.2,0.4-0.9,0.6-0.7,1.3c0.1,0.4-0.4,1-0.7,1.2c-0.8,0.4-1,0.8-0.7,1.7c0.2,0.6-0.6,1-0.9,1.7c-0.2,0.6-0.6,1.2-0.9,1.8 C518.7,101.9,518.4,102,518,101.9z" style="fill: rgb(1, 1, 1);"/>
    <path class="st41" d="M570.5,139.3c-0.4-1.6-0.7-3.1-0.5-4.7c-0.1-0.2,0-0.3,0.2-0.2c1.4-0.5,2.4,0.6,3.7,1 c1.3,0.4,2.2,1.4,3.4,1.9c0.7,0.9,0,2.1,0.8,3c0.2,0.2,0,0.3-0.2,0.4c-0.5,0.4-0.5,0.8-0.2,1.3c0.5,0.6-0.1,0.5-0.4,0.6 c-0.8,0.5-1.5,0.1-2.1-0.4c-0.5-0.5-1.1-0.8-1.7-1c-0.3-0.1-0.6-0.2-0.8-0.5c-0.4-0.8-1-1.1-1.9-1 C570.7,139.7,570.5,139.5,570.5,139.3z" style="fill: rgb(2, 1, 2);"/>
    <path class="st42" d="M570.2,134.3c-0.1,0.1-0.1,0.2-0.2,0.2c-0.2-0.4-0.5-0.7-0.1-1.2C570,133.7,570.1,134,570.2,134.3z" style="fill: rgb(33, 16, 49);"/>
    <path class="st43" d="M570.5,139.3c1.1,0,2.2,0,2.8,1.3c0.1,0.2,0.8,0.9,1.4,0.4c0.2-0.1,0.3,0,0.3,0.2c0.4,1.1,1.3,1.3,2.3,1.3 c0.2,1.4,0.5,2.7,0.1,4.1c-0.1,0.3,0,0.7,0.1,0.9c0.9,1,0.3,1.7-0.3,2.5c-0.7-0.8-2-0.5-2.7-1.8c-0.4-0.7-1.7-1.7-2.8-1.8 c-0.9-0.1-1.1-0.6-1.4-1.2c0-0.4,0.4-0.8-0.1-1.1c-0.3-0.2-0.2-0.4,0-0.6c0.3-0.2,0.3-0.6,0-0.8c-1-0.8-0.2-1.9-0.6-2.7 C569.7,139.5,570.1,139.3,570.5,139.3z" style="fill: rgb(157, 111, 243);"/>
    <path class="st8" d="M497.9,244.3c1.1-0.5,2.1,0.3,3.1,0.2c1.1-0.2,2.2,0,3.3,0c1.3-0.1,2.6,0.2,3.9-0.4c0.3-0.1,1.4-0.1,2.1,0.1 c0.5,0.2,0.8,0.2,1.3,0.1c2.2-0.3,4.4,0,6.7,0.2c1.2,0.1,2.5,0.1,3.8,0.2c1.3,0,1.5,0.2,1.6,1.6c0,0.8-0.2,1.9,1,2.3 c0.2,0.1,0.3,0.2,0.2,0.4c-0.8,1.3-0.1,2.4,0.5,3.5c0.3,0.5,0,1.3,0.1,1.9c0.4,1.7,0.6,3.5,1.1,5.1c0.2,0.9-0.3,1.6,0.1,2.3 c0.5,0.9-0.1,2.1,0.8,3c0.1,0.1,0.1,0.3,0,0.3c-1.1,1.2-0.5,2.6-0.4,3.9c0,0.8,0.1,1.7-0.1,2.4c-0.3,1.3-0.1,2.5-0.1,3.8 c0,0.3,0.2,0.7,0.1,0.7c-0.7-0.2-0.8,0.8-1.5,0.6c-1.6-0.6-3.1-0.1-4.7-0.1c-1.1,0-2.2-0.2-3.3-0.2c-2.2,0-4.4-0.2-6.6-0.1 c-1.5,0-3,0.1-4.5,0.1c-1,0-1.9,0.2-2.9,0.1c-1.3-0.1-2.6-0.2-4,0.1c-1,0.2-2.1-0.3-2.9,0.5c-2.2-0.9-4.5,0-6.6-0.5 c-0.2-0.1-0.5,0-0.8,0.1c-1,0.3-1.7-0.1-1.7-1.2c0-1.3,0.2-2.6,0.2-4c0-1.7,0-3.4,0.4-5.1c0.1-0.2,0-0.5-0.2-0.6 c-0.1-0.3,0.1-0.3,0.2-0.5c0.1-0.1,0.2-0.3,0.2-0.4c-0.2-1.9,0.2-3.8,0.5-5.6c0.4-2.2,0.3-4.4,1-6.5c0.1-0.2,0.2-0.5,0.1-0.7 c-0.5-0.9,0.1-1.6,0.4-2.3c0.3-0.9,0.2-1.8,0.7-2.7c0.4-0.8,0.6-1.7,1.1-2.4c0.2-0.3,1-0.3,1.5-0.3c1.3,0,2.6-0.2,3.9-0.1 C497.4,244.1,497.6,244.1,497.9,244.3z" style="fill: rgb(57, 39, 80);"/>
    <path class="st44" d="M497.9,244.3c-0.2,0-0.5,0-0.7,0C497.4,243.9,497.6,243.5,497.9,244.3z" style="fill: rgb(39, 31, 49);"/>
    <path class="st45" d="M487.8,265.2c-0.1,0.2-0.1,0.3-0.2,0.5c-0.2,0-0.4,0-0.3-0.3C487.4,265.1,487.6,265.2,487.8,265.2z" style="fill: rgb(37, 28, 48);"/>
    <path class="st46" d="M505.6,217.4c-0.4-0.3-0.9-0.5-1-0.8c-0.2-0.7-0.7-1-1.2-1.3c-0.1,0-0.3-0.1-0.3-0.2c-0.1-1.6-1.4-2.7-2-4 c-0.2-0.5-0.4-0.9-0.8-1.2c-0.5-0.3-0.6-0.8-0.6-1.2c0-0.5,0.6-0.4,0.9-0.5c1.3-0.4,2.4-1.4,3.5-2.1c0.1-0.1,0.2-0.2,0.2-0.2 c0.2-1.7,0.8-1.1,1.7-0.5c1.4,1,2.7,2.3,4.4,2.7c0.5,0.1,0.4,0.4,0.2,0.7c-0.8,1.2-1.2,2.6-1.7,4c-0.5,1.2-1.2,2.5-1.9,3.7 C506.7,216.8,506.1,217,505.6,217.4z" style="fill: rgb(190, 14, 0);"/>
    <path class="st47" d="M409.1,166.6c0.1-0.6-0.3-1.2-0.6-1.5c-1-1.3-1.4-2.9-2.3-4.3c-0.8-1.4-1.4-3-2.9-4c-0.1-0.1-0.2-0.2-0.2-0.4 c-0.1-1.4-1.2-2.5-1.3-4c0-0.1,0-0.2-0.1-0.2c-1.3-0.9-1.2-2.5-1.9-3.7c-0.4-0.6-0.3-1.2,0-1.8c0.2-0.3,0.4-0.6,0.5-1 c0.8-0.5,0.9-1.3,1.1-2.1c0.9-1.7,2.1-3.3,3.1-4.9c0,0,0.1,0,0.1-0.1c0-1.8,1.8-2.6,2.2-4.2c0.3-1.1,1.5-1.8,1.7-3 c0.4-1.9,1.6-3.3,2.7-4.7c1-1.4,1.5-2.9,2.4-4.2c0.9-1.3,1.2-3,2.3-4.1c1.4-1.3,1.3-3.3,2.9-4.5c0.4-0.3,1.3-1.2,1.2-2.3 c-0.1-0.5,1-0.7,1.1-1.4c0-0.5,0.4-0.9,0.6-1.3c0.5-1.2,1.7-1.8,2.2-3c0.4-0.9,1.3-1.8,2.9-1.8c3.6,0.2,7.2-0.2,10.8-0.1 c3.5,0,6.9-0.4,10.4-0.1c1.4,0.1,2.8-0.1,4.2-0.1c1.9,0,3.8,0.2,5.8,0c1.7-0.2,3.5,0.3,5.2,0.1c2.9-0.3,5.7,0.5,8.6,0.2 c0.9-0.1,1.6,0.7,2.6,0.5c0.5,0.1,0.9,0.3,1.1,0.9c0.3,0.9,0.8,1.6,1.4,2.3c0.2,1,1.2,1.5,1.6,2.5c0.2,0.6,0.6,1,1.1,1.3 c0.4,0.2,0.6,0.6,0.7,1c0.2,1.4,1,2.4,1.8,3.5c0.5,0.6,0.9,1.5,1.2,2.3c0.5,1.1,0.9,2.3,1.9,3.1c0.2,0.2,0.2,0.6,0.4,0.9 c0.9,1.9,2.1,3.6,3.3,5.3c0.2,0.2,0.3,0.5,0.4,0.8c0.2,0.9,0.6,1.6,1.3,2.2c1.1,1,1.3,2.5,2,3.8c0.4,0.7,0.9,1.2,1.3,1.8 c0.6,0.8,0.8,1.8,1.1,2.7c0.4,1.4,1.3,2.5,2,3.7c0.9,1.4,1.1,3.3,2.6,4.4c0.4,0.3,0.5,1.2-0.2,1.8c-0.2,0.2-0.3,0.4-0.4,0.6 c-0.3,1.1-1.3,1.9-1.4,3.2c-0.5,1.3-1.4,2.3-2,3.6c-0.5,1.3-0.9,2.9-2.1,3.9c-0.5,0.5-0.5,1.2-1.1,1.6c-0.7,1.6-1.7,3.1-2.3,4.8 c-0.9,0.4-1.1,1.4-1.6,2c-0.1,0-0.2,0.1-0.2,0.1c0,1-0.9,1.8-0.9,2.8c-0.6,0.2-0.8,0.8-1.1,1.3c-0.6,1.1-1.4,2.1-1.6,3.4 c0,0.2-0.2,0.2-0.3,0.3c-0.6,0.4-0.6,1.1-1,1.6c-0.9,1.1-2,2.1-2.3,3.5c-0.2,1-1.1,1.4-1.6,2.1c-0.3,0.5-0.7,0.8-0.6,1.4 c0,0.2-0.1,0.4-0.3,0.6c-0.8,1.1-1.6,2.2-2.5,3.3c-0.4,0.5-0.5,1-0.6,1.6c-0.2,0.8-0.6,1.4-1.6,1.1c-1-0.3-1.8,0.5-2.8,0.4 c-1.7-0.1-3.4-0.1-5.1-0.1c-3,0.1-6.1,0.3-9.1,0.1c-3-0.2-5.9,0.5-8.8,0c-1.6-0.3-3.4-0.1-5.1,0.1c-1.7,0.2-3.5-0.3-5.2-0.2 c-3.4,0.4-6.7-0.2-10.1-0.4c-0.6,0-1.3-0.1-1.9,0c-1.3,0-1.9-0.7-1.9-1.9c-0.1-1-1.1-1.3-1.9-1.6c-0.1-1.2-0.9-2-1.4-2.9 c-0.4-1.3-1.3-2.3-1.8-3.5c-0.8-1.9-2.2-3.5-3.3-5.2c-0.8-1.3-1.1-2.7-2-3.8c-0.7-0.9-0.8-2.1-1.8-2.9c-0.6-0.4-0.6-1.4-1.1-2 C409.7,167.6,409.6,166.9,409.1,166.6z" style="fill: rgb(242, 103, 103);"/>
    <path class="st32" d="M484.2,176.6c0.2-1.7,1.4-2.9,2-4.4c0.2-0.4,0.5-0.6,1-0.6c-0.9,1.3-1.8,2.6-2.3,4.2 C484.8,176.2,484.7,176.6,484.2,176.6z" style="fill: rgb(253, 229, 229);"/>
    <path class="st48" d="M476.7,107.9c-0.7-0.5-1.2-1.2-1.5-2c-0.2-0.5-0.5-1-1-1.2c0.6-0.1,1,0,1.2,0.7 C475.7,106.3,476.2,107.1,476.7,107.9z" style="fill: rgb(248, 177, 177);"/>
    <path class="st49" d="M497.4,152.7c-0.3-1.4,0.8-2.2,1.4-3.2C498.9,150.9,497.8,151.7,497.4,152.7z" style="fill: rgb(248, 173, 175);"/>
    <path class="st50" d="M480.1,112.7c-0.2-0.5-0.6-0.7-1.1-0.9c-0.5-0.2-0.8-0.8-0.8-1.4c0.5,0.4,0.9,0.8,1.4,1.2 C480,111.9,480.2,112.2,480.1,112.7z" style="fill: rgb(251, 204, 204);"/>
    <path class="st51" d="M420.2,185.5c0.6,0.9,1.7,1.6,1.4,2.9C421.3,187.4,420.4,186.7,420.2,185.5z" style="fill: rgb(251, 206, 206);"/>
    <path class="st52" d="M401.3,143.6c0.2,0.5-0.2,1-0.1,1.5c0.1,0.7-0.7,0.3-1,0.6C400.6,145,401,144.3,401.3,143.6z" style="fill: rgb(250, 201, 202);"/>
    <path class="st53" d="M488.3,168.7c0.3-0.8,0.6-1.8,1.6-2C489.2,167.2,489.1,168.2,488.3,168.7z" style="fill: rgb(250, 201, 200);"/>
    <path class="st54" d="M492.2,161.9c0.3-0.6,0.3-1.4,1.1-1.6C493.1,160.9,493.1,161.7,492.2,161.9z" style="fill: rgb(250, 196, 196);"/>
    <path class="st55" d="M409.1,166.6c0.7,0.2,0.8,0.8,1.1,1.4C409.6,167.7,409.4,167.2,409.1,166.6z" style="fill: rgb(249, 190, 189);"/>
    <path class="st25" d="M541.6,179.2c-1-0.3-2.4-0.5-3.8-1.1c-1.4-0.7-2.8-1.4-4.1-2.1c-0.4-0.2-0.5-0.4-0.6-0.8 c-0.1-0.4-0.3-0.7-0.4-1c-0.4-0.8-1.4-1.2-1.4-2.5c0-0.9-0.8-2-1-3c-0.1-1.2,0.3-2.4,0.2-3.5c-0.1-1.6,0.9-2.8,1.5-4.1 c0.4-0.8,1-1.3,1.5-1.9c1.7-2,4.1-3,6.5-4.1c0.2-0.1,0.3-0.1,0.4,0c0.3,0.5,0.9,0.3,1.3,0.2c2.9-0.6,5.2,0.8,7.5,2.1 c3.6,2.1,4.8,5.5,5.2,9.4c0.3,2.7-0.9,5-2,7.2c-0.8,1.5-2.7,2.6-4.2,3.6C546.7,178.5,543.8,179.2,541.6,179.2z" style="fill: rgb(255, 255, 255);"/>
    <path class="st25" d="M513.8,82.4c0.4-0.5,0.9,0.1,0.9,0.2c0.3,0.7,0.9,1,1.3,1.5c0.8,1.1,1.6,2.3,2.4,3.4c0.4,0.5,0.8,1,1.2,1.5 c0.3,0.4,0.7,0.9-0.1,1.4c-0.2,0.1-0.5,0.6-0.4,0.8c0.3,0.7-0.2,1.1-0.6,1.6c-0.7,0.9-1,2.1-1.7,2.9c-0.9,1.1-2,3.1-3.3,2.7 c-1.3-0.3-1.9,0.6-2.9,0.4c-0.3-0.1-0.5-0.1-0.8-0.3c-0.5-0.4-1-0.4-1.5,0.1c-0.1,0.2-0.2,0.5-0.5,0.3c-0.2-0.1-0.2-0.4-0.1-0.6 c0.1-0.3,0.2-0.8,0.4-0.8c1-0.2,0.8-0.8,0.9-1.6c0.1-0.7,0.2-1.1-0.5-1.6c-0.6-0.5-0.4-1.8,0.3-2c0.8-0.2,0.8-1,1.2-1.6 c0.7-1.2,2.2-2,2.4-3.6c0-0.4,0.4-0.2,0.7-0.2c0.7-0.1,1.3-1.1,0.8-1.4c-1.1-0.7-0.9-1.7-1-2.6C512.8,82.2,513.6,82.7,513.8,82.4z" style="fill: rgb(255, 255, 255);"/>
    <path class="st25" d="M504.7,94c-0.8,0.5-1.2,1.8-0.9,2.7c0.1,0.2,0.3,0.4,0.5,0.4c1.1,0,1,1,1.3,1.6c0.3,0.6-0.5,0.6-0.8,0.4 c-1-0.8-2-1.1-3.1-0.1c-0.1,0.1-0.5-0.1-0.7-0.2c-0.2-0.1-0.5-0.3-0.6-0.2c-1.4,0.9-1.5-0.7-2-1.2c-0.4-0.5-1.2-1.1-0.9-2.1 c0.1-0.2-0.1-0.6-0.2-0.6c-1.2-0.4-0.6-1.7-1.1-2.3c-0.8-1.1-0.6-2.6-1.9-3.4c-0.4-0.2-0.4-0.8,0.1-0.9c0.8-0.1,1.2-0.5,1.5-1.2 c0.4-0.9,1.4-1.2,2-1.9c1.2-1.6,2.8-2.5,4.7-3.1c0.4-0.1,0.4-0.7,1-0.7c1-0.1,1,0.9,1.6,1.2c-0.2,0.4-0.5,0.3-0.7,0.3 c-0.9-0.3-1.5-0.1-1.7,0.8c-0.1,0.2-0.3,0.3-0.5,0.3c-1,0.3-1.1,0.6-0.4,1.4c0.4,0.5,0.7,0.8,0,1.2c-0.2,0.1-0.4,0.4-0.2,0.7 c0.5,1.2,1.2,2.2,1.5,3.5c0.1,0.5,0.5,1.1,1.2,1.2c0.3,0,0.4,0.3,0.3,0.6C504.6,92.9,505.4,93.4,504.7,94z" style="fill: rgb(255, 255, 255);"/>
    <path class="st56" d="M510.2,82.9c-0.3,0.7-0.7,0.5-1.2,0.3c-0.8-0.4-1.5-0.6-2.4-0.2c-0.4,0.2-0.6-0.1-0.9-0.3 c-0.1-0.1,0-0.3,0-0.4c0.3-0.4,0.5,0.1,0.8,0c1-0.3,2,0.2,2.9-0.5c0.5-0.4,0.4,0.3,0.7,0.4C510.3,82.4,510.3,82.6,510.2,82.9z" style="fill: rgb(232, 231, 231);"/>
    <path class="st57" d="M510.2,82.9c0-0.3,0-0.5,0-0.8c0.4,0.1,0.7-0.2,1-0.5c0.3-0.2,0.6-0.2,0.8,0.1c0.4,0.8,1.2,0.7,1.8,0.7 c-0.2,0.4-0.8,0.1-1,0.5C512,82.4,510.7,82.4,510.2,82.9z" style="fill: rgb(219, 218, 218);"/>
    <path class="st58" d="M504.7,94c0.5-0.6-0.4-1-0.2-1.6c0.1,0.1,0.1,0.3,0.2,0.4C506.1,93.2,505.4,93.6,504.7,94z" style="fill: rgb(215, 214, 214);"/>
    <path class="st59" d="M509.3,252.2c0,0.2,0,0.4,0,0.5c-0.1,0.5,0,1.1-0.7,1.1c-0.6,0-1.3-0.4-1.4-1.1c-0.1-1.5,0-3,1.5-3.9 c0,0,0.1,0,0.1-0.1c0.5-0.9,1.7,0.7,2.2-0.7c0.2-0.5,1.6-0.4,2.4,0.2c0.2,0.1,0.4,0.3,0.5,0.1c0.9-1.2,1.5,0.2,2.2,0.4 c0.9,0.2,1.2,1,1.5,1.9c0.2,0.8,0.9,1.4,0.7,2.3c-0.1,0.6,0,1.4-0.5,1.9c-0.1,0.1-0.3,0.2-0.2,0.4c0.7,1-0.1,2.3-0.5,2.5 c-1.1,0.8-1.1,2.4-2.3,3.1c-0.6,0.4-1.1,1.1-1,1.9c0,0.2-1.3,2.4-1.6,2.4c-0.4,0-0.9,0.2-1.3-0.2c-0.7-0.7-1.4-4.4-0.7-5 c0.8-0.7,1.3-1.6,2.1-2.2c0.7-0.6,1-1.4,1.6-2c0.6-0.5,0.6-2.9,0.1-3.5c-0.4-0.6-0.8-0.7-1.5-0.6c-0.8,0.1-1.5,0-2,0.8 C510.2,252.9,509.8,252.3,509.3,252.2z" style="fill: rgb(190, 14, 0);"/>
    <path class="st59" d="M501,252c-0.4,1.7,0.3,3.6,0,5.6c-0.1,0.6-0.3,1.2-0.4,1.7c-0.4,1.1,0.4,2.2-0.2,3.3c-0.2,0.5-0.5,1-0.9,1.4 c-0.9,0.8-1.5,0.4-2.1-0.4c-0.9-1.1-0.6-2.1-0.4-3.2c0.1-0.3,0.1-0.5,0.4-0.6c0.6-0.2,0.6-0.4,0.1-0.9c-0.5-0.6-0.3-1.5-0.3-2.3 c0-0.2,0.3-0.5,0.2-0.6c-0.5-1.4,0-2.8,0-4.2c0-0.8-0.1-1.8,0.6-2.6c0.4-0.4,0.7-0.7,1.2-0.6c0.5,0.1,1.1,0.3,1.2,1 C500.6,250.2,501.1,250.9,501,252z" style="fill: rgb(190, 14, 0);"/>
    <path class="st60" d="M508.5,271c0.7-0.5,0.4-1,0.1-1.5c-0.1-0.1,0-0.3,0.1-0.4c1-0.7,2.1-1.3,3.4-1.3c0.8,0,0.5,1,1.1,1.2 c0.6,0.2,1.2,0.4,0.8,1.2c-0.1,0.2,0,0.4,0,0.5c0.4,0.8-0.1,1.2-0.8,1.4c-0.3,0.1-0.8,0.1-0.9,0.4c-0.4,1.4-0.9,0.7-1.7,0.3 c-0.8-0.4-1.2-0.8-1.7-1.4C508.8,271.4,508.7,271.2,508.5,271z" style="fill: rgb(190, 14, 0);"/>
    <path class="st61" d="M500.6,271.3c0.5,0.8-0.1,1-0.8,1.1c-0.3,0-0.5,0.1-0.7,0.3c-0.5,1-1.3,0.4-1.7,0.1c-1.1-0.5-1.4-2.8-0.7-3.9 c0.2-0.3,0.4-0.3,0.7-0.3c2.3-0.3,2.2-0.3,3.3,1.7C500.9,270.7,500.6,270.9,500.6,271.3z" style="fill: rgb(190, 14, 0);"/>
    <path class="st25" d="M455.9,165c-1.5,0.5-3.2,0.4-4.9,0.5c-1.7,0.1-3.5,0.6-5.2-0.1c-0.1,0-0.2,0-0.3,0c-0.9,1-2,0.5-3,0.4 c-0.7-0.1-1.3,0.3-1.9,0.4c-1.1,0.2-2.1-0.5-3.5-0.1c-1.6,0.5-3.2-1.4-3.1-3.2c0-0.2,0-0.3-0.2-0.4c-1-0.6-1-1.7-1.2-2.6 c-0.1-0.6-0.7-1.3,0.1-1.9c-0.6-0.6-0.7-1.4-0.8-2.1c-0.1-0.7-0.6-1.3-0.1-2c0-0.1,0.1-0.2,0.1-0.2c-1-1.7-0.7-3.7-1.4-5.5 c0-0.1-0.1-0.2,0-0.3c0.3-1.4-0.8-2.8-0.1-4.2c0.1-0.2,0-0.4-0.2-0.6c-0.2-0.2-0.4-0.3-0.4-0.5c0.4-1.5-1-2.8-0.6-4.1 c0.4-1.4-0.3-2.5-0.2-3.9c0.1-1.3-0.3-3.1-0.2-4.5c0.1-1.3-0.4-2.6-0.1-4c0.2-0.8,0.2-1.8,0-2.8c-0.3-1.3-0.4-2.9,0.4-4.3 c0.2-0.4,0.3-0.7,0.2-1.1c-0.1-0.6,0-1.1,0.3-1.6c0.4-0.8,0.3-1.7,0.9-2.4c0.6-0.7,0.9-1.7,1.1-2.4c0.3-1.1,1.2-1,1.7-1.6 c0.3-0.5,0.8-0.1,1.1,0.1c0.6,0.2,1.1,0.5,1.6-0.1c0.1-0.2,0.4-0.2,0.6-0.2c1.1,0.2,2.2-0.2,3.3,0c0.7,0.2,1.3-0.4,2.1-0.2 c0.4,0.1,0.8-0.1,1.3,0.2c0.7,0.4,1.2-0.5,1.9-0.4c0.9,0.2,1.8,0.1,2.7,0.1c1.4,0,2.8,0.5,4.2-0.3c0.7-0.4,1.7-0.3,2.5-0.2 c1.1,0.1,2.3-0.7,3.2,0.5c0.1,0.2,0.5,0.1,0.6-0.1c0.9-0.8,2.1-0.2,3-0.6c1.1-0.4,2.2,0.9,3.1-0.2c0.9,0.5,2-0.3,2.8,0.5 c0.1,0.1,0.3,0.2,0.4,0.2c1.8,0.2,2.4,1.4,1.9,3.2c-0.2,0.7,0.1,1.5,0,2.3c-0.2,2.6-0.3,5.3-0.7,7.9c-0.2,1.5-0.2,3-0.5,4.5 c-0.6,3.1-1.1,6.1-1.7,9.2c-0.5,2.1-0.5,4.3-0.8,6.5c-0.1,0.9-0.5,1.8-0.5,2.6c0,1.4-0.5,2.6-0.6,3.9c-0.1,1.4-0.2,2.7-0.8,4.1 c-0.2,0.5-0.1,1.4-0.2,2.1c-0.2,1.9-0.9,3.7-0.8,5.6c0,1.3-1.9,2.9-3.2,3.3c-1,0.3-2,0.1-2.9,0.7 C456.8,165.1,456.4,165.3,455.9,165z" style="fill: rgb(255, 255, 255);"/>
    <path class="st25" d="M442.1,167.3c2.2,0.4,4.3-0.2,6.4-0.5c1.1-0.2,2.3,0,3.5,0.2c1.2,0.2,2.3,0.4,3.3,0.8 c1.8,0.8,3.9,1.3,4.8,3.4c0.1,0.2,0.3,0.2,0.5,0.2c0.1,0,0.4,0.1,0.4,0.1c0.1,1,1.1,1.4,1.5,2.1c0.9,1.8,0.5,3.8,0.5,5.6 c0,0.3-0.1,0.6-0.5,0.7c-0.8,0.2-0.9,0.9-0.8,1.4c0.3,1.2-0.4,2-1,2.8c-0.8,1-1.5,2-2.6,2.6c-1.4,0.8-2.6,1.8-4,2.4 c-0.6,0.3-1.1,0.4-1.7,0.1c-0.6-0.3-1.1-0.2-1.4,0.5c-0.2,0.6-0.6,0.8-1.2,0.7c-1.1-0.1-2.1,0.7-3.3,0.7c-0.9,0-1.7,0-2.3-0.8 c-0.3-0.4-0.7-0.6-1.2-0.4c-1,0.3-1.7,0.1-2.7-0.6c-1-0.7-1.8-1.6-2.8-2.3c-0.3-0.2-0.5-0.5-0.6-0.9c-0.3-1.4-0.8-2.6-1.9-3.6 c-0.5-0.4-0.6-2.7-0.1-3.2c0.4-0.4,0.3-0.5,0-0.8c-1.4-1.9-0.7-3.8,0.4-5.4c0.5-0.7,0.7-2.3,2.3-2.1c0.1,0,0.2-0.2,0.3-0.3 c0.7-2,3-1.9,4.1-3.3C442,167.3,442.1,167.3,442.1,167.3z" style="fill: rgb(255, 255, 255);"/>
    <path class="st47" d="M435.4,154.1c-0.1-1.8-0.4-3.5-1-5.2c-0.2-0.7-0.3-1.7-0.3-2.6c0-0.3,0-0.6-0.1-0.9c-0.7-1.6-0.5-3.4-0.7-5.1 c-0.3-2.4-0.1-4.9-0.4-7.3c-0.1-1.6,0.3-3.3-0.4-4.8c-0.1-0.2-0.1-0.5-0.1-0.7c0.8-2.2,0.3-4.4,0.4-6.6c0.1-1.2-0.1-2.7,0.8-3.9 c0.4-0.6,0.9-1.2,0.9-2.1c0-0.9,0.8-1.1,1.4-1.3c1.1-0.3,2.2-0.3,3.3-0.6c1.3-0.4,2.6,0.1,3.9-0.3c0.6-0.2,1.4,0.5,1.8-0.4 c0,0,0.1,0,0.1,0c0.9,1.1,2.2,0.7,3.1,0.3c1.8-0.9,3.4,0.7,5.1-0.1c0.4-0.2,0.9,0.3,1.5,0.2c0.6-0.1,1.2,0.2,1.5-0.5 c0-0.1,0.3-0.1,0.4,0c2.4,1.1,5,0.4,7.5,0.6c1.6,0.1,1.7,0.1,1.6,1.7c0,0.8,0,1.6,0.3,2.5c0.5,1.4-0.4,2.8,0,4.2 c0.3,1-0.5,2.1,0.4,3c0.1,0.1,0,0.3,0,0.4c-1.1,2.3-1.2,4.7-1.3,7.2c0,0.6-0.5,0.9-0.6,1.4c-0.6,3.1-1,6.3-1.7,9.4 c-0.3,1.3-0.9,2.6-0.7,4.1c0.1,0.4-0.5,1.2-0.8,1.8c-0.5,0.9-0.3,1.9-0.9,2.9c-0.8,1.5-0.8,3.5-1.1,5.3c-0.2,1.2-0.4,2.4-0.4,3.6 c0,0.6-1,0.6-1.5,0.6c-1.1-0.1-2,0.3-3,0.6c-1.2,0.3-2.4,0.1-3.6,0.3c-1.3,0.2-2.6-0.3-3.9,0.4c-0.4,0.2-1.6-0.2-2.4-0.3 c-1.2-0.1-2.4,0.5-3.5,0.1c-0.9-0.3-1.8,0.1-2.7,0.1c-0.5,0-0.6-0.1-0.7-0.5c-0.4-1-1-2-1.2-3.1c-0.3-1.2-0.7-2.2-1-3.3 C435.4,154.8,435.4,154.5,435.4,154.1z" style="fill: rgb(242, 103, 103);"/>
    <path class="st47" d="M447.6,186.5c-2.3-0.4-4-0.6-5.3-1.9c-0.9-0.9-1.8-1.9-2.9-2.5c-0.1,0-0.2-0.2-0.2-0.3 c0.3-1.8-0.6-3.4-0.1-5.3c0.3-1.1,1.3-1.3,1.6-2.2c0.3-0.9,1.1-1.2,2.1-1.4c0.9-0.2,2.2-0.6,2.9-1.5c0.3-0.3,0.5-0.3,0.9-0.3 c1.2-0.1,2.4,0.8,3.6,0c0.2-0.1,0.3,0.2,0.5,0.2c0.6,0.2,1.2,0.5,2,0.4c0.4-0.1,0.8,0.1,1.1,0.4c0.2,0.3,0.5,0.6,0.9,0.4 c1.1-0.6,1.1,0.1,1.2,0.8c0.1,0.6,0.6,0.6,0.9,1c0.8,1,1,2.3,2,3.1c0.7,0.6,0,1.2-0.4,1.7c-0.8,1.1-1.7,2.2-2.5,3.3 c-0.5,0.6-1.3,1-1.7,1.5c-1,1.1-2.4,1.1-3.5,1.7C449.8,186.1,448.4,186.9,447.6,186.5z" style="fill: rgb(242, 103, 103);"/>
  </g>
</svg>