<?xml version="1.0" encoding="UTF-8"?><svg xmlns="http://www.w3.org/2000/svg" viewBox="0 0 587.02 330.39"><defs><style>.d{stroke-width:2px;}.d,.e,.f,.g,.h,.i,.j,.k,.l,.m,.n{stroke:#673db6;}.d,.e,.f,.g,.h,.i,.j,.k,.l,.m,.n,.o{stroke-miterlimit:10;}.d,.g,.l{fill:none;}.e{stroke-width:5.5px;}.e,.i,.j,.k,.m{fill:#cab1fb;}.f,.h{fill:#9d6ff3;}.f,.n{stroke-width:9px;}.g,.m{stroke-width:4px;}.h,.j{stroke-width:3px;}.i{stroke-width:5px;}.k{stroke-width:6px;}.l{stroke-width:2.5px;}.n{fill:#e4d8fd;}.o{fill:#fff;stroke:#fff;stroke-width:44px;}</style></defs><g id="a"/><g id="b"><g id="c"><g><path class="o" d="M31.65,67.79c-6.16,11.69-9.65,25.01-9.65,39.15v117.38c0,46.43,37.64,84.07,84.07,84.07H480.95c46.43,0,84.07-37.64,84.07-84.07V106.94c0-14-3.42-27.2-9.47-38.81,0,0-.94-22.55-17.86-35.94-18.95-14.99-43.19-8.24-43.19-8.24-4.41-.71-8.93-1.08-13.54-1.08H106.07c-4.59,0-9.09,.37-13.47,1.07h0c-1.92-.6-24.32-7.17-43.26,7.82-16.92,13.39-17.63,33.33-17.68,36.03h0Z"/><rect class="n" x="22.31" y="22.96" width="543.02" height="285.52" rx="84.07" ry="84.07"/><rect class="f" x="145.22" y="81.43" width="296.58" height="168.57" rx="3.43" ry="3.43"/><circle class="k" cx="509.39" cy="99.01" r="26.21"/><circle class="d" cx="509.39" cy="99.01" r="19.14"/><rect class="k" x="215.56" y="42.47" width="155.89" height="19.44" rx="9.72" ry="9.72"/><path class="e" d="M107.41,175.5v12.93c0,2.55-2.07,4.62-4.62,4.62h-8.09c-2.55,0-4.62-2.07-4.62-4.62v-12.93h-12.71c-2.55,0-4.62-2.07-4.62-4.62v-8.09c0-2.55,2.07-4.62,4.62-4.62h12.71v-12.93c0-2.55,2.07-4.62,4.62-4.62h8.09c2.55,0,4.62,2.07,4.62,4.62v12.93h12.71c2.55,0,4.62,2.07,4.62,4.62v8.09c0,2.55-2.07,4.62-4.62,4.62h-12.71Z"/><line class="l" x1="98.74" y1="158.17" x2="98.74" y2="146.69"/><line class="l" x1="107.41" y1="166.84" x2="118.89" y2="166.84"/><line class="l" x1="98.74" y1="175.5" x2="98.74" y2="186.99"/><line class="l" x1="90.08" y1="166.84" x2="78.59" y2="166.84"/><circle class="k" cx="77.94" cy="99.01" r="26.21"/><circle class="d" cx="77.94" cy="99.01" r="19.14"/><circle class="k" cx="293.51" cy="279.24" r="10"/><circle class="g" cx="293.82" cy="52.2" r="5.64"/><circle class="i" cx="493.74" cy="150.72" r="9.55"/><circle class="i" cx="472.63" cy="171.74" r="9.55"/><circle class="i" cx="493.74" cy="192.76" r="9.55"/><circle class="i" cx="514.38" cy="171.74" r="9.55"/><circle class="m" cx="429.25" cy="279.24" r="8.35"/><rect class="m" x="395.94" y="271.34" width="15.81" height="15.81" rx="1.52" ry="1.52"/><line class="g" x1="468.19" y1="279.24" x2="477.74" y2="279.24"/><circle class="j" cx="464.21" cy="215.04" r="7.12"/><circle class="j" cx="464.21" cy="237.48" r="7.12"/><line class="g" x1="119.45" y1="279.24" x2="109.9" y2="279.24"/><rect class="d" x="85.47" y="216.24" width="29.48" height="18.59" rx="4.23" ry="4.23"/><path class="h" d="M31.97,67.88c3.43-6.58,10.34-17.7,22.89-27.42,15.11-11.7,30.44-15.21,38.04-16.42-1.92-.6-24.32-7.17-43.26,7.81-16.92,13.39-17.63,33.33-17.68,36.03Z"/><path class="h" d="M555.67,68.32c-3.43-6.58-10.34-17.7-22.89-27.42-15.11-11.7-30.44-15.21-38.04-16.42,1.92-.6,24.32-7.17,43.26,7.81,16.92,13.39,17.63,33.33,17.68,36.03Z"/></g></g></g></svg>