<?xml version="1.0" standalone="no"?>
<!DOCTYPE svg PUBLIC "-//W3C//DTD SVG 20010904//EN"
 "http://www.w3.org/TR/2001/REC-SVG-20010904/DTD/svg10.dtd">
<svg version="1.0" xmlns="http://www.w3.org/2000/svg"
 width="429.000000pt" height="429.000000pt" viewBox="0 0 429.000000 429.000000"
 preserveAspectRatio="xMidYMid meet">
<metadata>
Created by potrace 1.14, written by Peter Selinger 2001-2017
</metadata>
<g transform="translate(0.000000,429.000000) scale(0.100000,-0.100000)"
fill="#000000" stroke="none">
<path d="M0 2145 l0 -2145 2145 0 2145 0 0 2145 0 2145 -2145 0 -2145 0 0
-2145z m2349 1170 c279 -53 533 -193 668 -369 58 -74 63 -96 33 -126 -31 -31
-59 -25 -99 22 -122 144 -237 228 -396 289 -263 102 -524 113 -749 33 -56 -19
-111 -38 -123 -41 -30 -7 -65 30 -61 65 2 22 15 33 68 59 173 85 428 111 659
68z m-99 -215 c235 -25 459 -135 586 -288 64 -78 74 -105 49 -132 -26 -29 -71
-26 -97 8 -138 170 -326 266 -578 294 -124 13 -241 -2 -351 -46 -78 -31 -100
-32 -123 -7 -29 32 -17 72 29 98 67 38 233 76 356 82 15 0 73 -4 129 -9z m90
-270 c420 -118 636 -591 451 -985 -60 -128 -144 -222 -270 -303 -80 -52 -147
-77 -261 -98 -121 -22 -239 -10 -368 39 l-92 34 0 -254 0 -255 -29 -29 c-29
-29 -29 -29 -156 -29 -127 0 -127 0 -156 29 l-29 29 0 821 0 820 24 28 c24 27
28 28 148 33 122 5 123 6 178 43 57 39 169 80 260 96 78 14 213 5 300 -19z"/>
<path d="M2042 2535 c-73 -21 -101 -37 -166 -96 -99 -91 -143 -214 -124 -351
41 -300 398 -448 637 -262 240 186 202 549 -71 683 -80 40 -190 50 -276 26z"/>
</g>
</svg>
